SplineFontDB: 3.2
FontName: FiraSans-ExtraBoldItalic
FullName: Fira Sans ExtraBold Italic
FamilyName: Fira Sans ExtraBold
Weight: Heavy
Copyright: Digitized data copyright 2012-2016, The Mozilla Foundation and Telefonica S.A.
Version: 4.203
ItalicAngle: -8
UnderlinePosition: -100
UnderlineWidth: 50
Ascent: 800
Descent: 200
InvalidEm: 0
sfntRevision: 0x000433f7
LayerCount: 2
Layer: 0 1 "Back" 1
Layer: 1 1 "Fore" 0
XUID: [1021 460 1340379196 9956898]
StyleMap: 0x0001
FSType: 0
OS2Version: 4
OS2_WeightWidthSlopeOnly: 0
OS2_UseTypoMetrics: 1
CreationTime: 1476948552
ModificationTime: 1480667555
PfmFamily: 17
TTFWeight: 800
TTFWidth: 5
LineGap: 0
VLineGap: 0
Panose: 2 11 9 3 5 0 0 2 0 4
OS2TypoAscent: 935
OS2TypoAOffset: 0
OS2TypoDescent: -265
OS2TypoDOffset: 0
OS2TypoLinegap: 0
OS2WinAscent: 935
OS2WinAOffset: 0
OS2WinDescent: 265
OS2WinDOffset: 0
HheadAscent: 935
HheadAOffset: 0
HheadDescent: -265
HheadDOffset: 0
OS2SubXSize: 650
OS2SubYSize: 600
OS2SubXOff: -11
OS2SubYOff: 75
OS2SupXSize: 650
OS2SupYSize: 600
OS2SupXOff: 49
OS2SupYOff: 350
OS2StrikeYSize: 50
OS2StrikeYPos: 319
OS2CapHeight: 695
OS2XHeight: 533
OS2Vendor: 'CTDB'
OS2CodePages: 2000019f.00000000
OS2UnicodeRanges: 600002ff.00000001.00000000.00000000
Lookup: 1 0 0 "'aalt' Access All Alternates lookup 0" { "'aalt' Access All Alternates lookup 0 subtable"  } ['aalt' ('DFLT' <'dflt' > 'cyrl' <'dflt' > 'grek' <'dflt' > 'latn' <'AFK ' 'CAT ' 'EWE ' 'MOL ' 'PLK ' 'ROM ' 'TRK ' 'dflt' > ) ]
Lookup: 3 0 0 "'aalt' Access All Alternates lookup 1" { "'aalt' Access All Alternates lookup 1 subtable"  } ['aalt' ('DFLT' <'dflt' > 'cyrl' <'dflt' > 'grek' <'dflt' > 'latn' <'AFK ' 'CAT ' 'EWE ' 'MOL ' 'PLK ' 'ROM ' 'TRK ' 'dflt' > ) ]
Lookup: 1 0 0 "'locl' Localized Forms in Latin lookup 2" { "'locl' Localized Forms in Latin lookup 2 subtable"  } ['locl' ('latn' <'TAT ' > ) ]
Lookup: 1 0 0 "'locl' Localized Forms in Latin lookup 3" { "'locl' Localized Forms in Latin lookup 3 subtable"  } ['locl' ('latn' <'TRK ' > ) ]

StartChar: .notdef
Encoding: 65536 -1 0
Width: 655
GlyphClass: 1
Flags: W
LayerCount: 2
Fore
SplineSet
644 1050 m 1,0,-1
 447 -350 l 1,1,-1
 34 -350 l 1,2,-1
 231 1050 l 1,3,-1
 644 1050 l 1,0,-1
585 998 m 1,4,-1
 279 998 l 1,5,-1
 96 -298 l 1,6,-1
 402 -298 l 1,7,-1
 585 998 l 1,4,-1
416.5 426 m 128,-1,9
 440 401 440 401 440 360 c 0,10,11
 440 351 440 351 438 333 c 0,12,13
 431 281 431 281 405.5 253 c 128,-1,14
 380 225 380 225 330 218 c 1,15,-1
 322 172 l 2,16,17
 321 161 321 161 313.5 155 c 128,-1,18
 306 149 306 149 297 149 c 0,19,20
 286 149 286 149 279 156 c 128,-1,21
 272 163 272 163 273 174 c 2,22,-1
 284 257 l 1,23,24
 337 260 337 260 358.5 277.5 c 128,-1,25
 380 295 380 295 385 337 c 0,26,27
 387 351 387 351 387 358 c 0,28,29
 387 403 387 403 337 403 c 0,30,31
 309 403 309 403 284 391 c 0,32,33
 278 389 278 389 272 389 c 0,34,35
 260 389 260 389 253.5 396.5 c 128,-1,36
 247 404 247 404 249 415 c 0,37,38
 251 432 251 432 280.5 441.5 c 128,-1,39
 310 451 310 451 342 451 c 0,40,8
 393 451 393 451 416.5 426 c 128,-1,9
313 109.5 m 128,-1,42
 322 99 322 99 320 82 c 0,43,44
 318 68 318 68 307 58 c 128,-1,45
 296 48 296 48 282 48 c 0,46,47
 267 48 267 48 258 59.5 c 128,-1,48
 249 71 249 71 252 88 c 0,49,50
 253 101 253 101 263.5 110.5 c 128,-1,51
 274 120 274 120 288 120 c 0,52,41
 304 120 304 120 313 109.5 c 128,-1,42
EndSplineSet
EndChar

StartChar: A
Encoding: 65 65 3
Width: 585
GlyphClass: 2
Flags: W
AnchorPoint: "Anchor-18" 0 0 basechar 0
AnchorPoint: "Anchor-17" 0 0 basechar 0
AnchorPoint: "Anchor-16" 352 695 basechar 0
AnchorPoint: "Anchor-15" 489 0 basechar 0
AnchorPoint: "Anchor-14" 253 0 basechar 0
LayerCount: 2
Fore
SplineSet
374 0 m 1,0,-1
 363 142 l 1,1,-1
 182 142 l 1,2,-1
 133 0 l 1,3,-1
 -57 0 l 1,4,-1
 242 695 l 1,5,-1
 462 695 l 1,6,-1
 566 0 l 1,7,-1
 374 0 l 1,0,-1
227 274 m 1,8,-1
 354 274 l 1,9,-1
 331 575 l 1,10,-1
 227 274 l 1,8,-1
EndSplineSet
Substitution2: "Single Substitution lookup 44 subtable" ordfeminine
Substitution2: "'c2sc' Capitals to Small Capitals lookup 27 subtable" a.sc
AlternateSubs2: "'aalt' Access All Alternates lookup 1 subtable" ordfeminine a.sc
Position2: "'cpsp' Capital Spacing lookup 0 subtable" dx=5 dy=0 dh=10 dv=0
EndChar

StartChar: uni1EAE
Encoding: 7854 7854 6
Width: 585
GlyphClass: 2
Flags: W
AnchorPoint: "Anchor-18" 0 0 basechar 0
AnchorPoint: "Anchor-17" 0 0 basechar 0
AnchorPoint: "Anchor-16" 388 928 basechar 0
AnchorPoint: "Anchor-15" 489 0 basechar 0
AnchorPoint: "Anchor-14" 0 0 basechar 0
LayerCount: 2
Fore
SplineSet
566 1046 m 1,0,-1
 384 902 l 1,1,-1
 325 961 l 1,2,-1
 482 1139 l 1,3,-1
 566 1046 l 1,0,-1
274.5 760.5 m 128,-1,5
 239 785 239 785 223.5 825.5 c 128,-1,6
 208 866 208 866 211 912 c 1,7,-1
 303 926 l 1,8,9
 307 896 307 896 325 877 c 128,-1,10
 343 858 343 858 374 858 c 0,11,12
 406 858 406 858 429.5 877.5 c 128,-1,13
 453 897 453 897 466 928 c 1,14,-1
 561 909 l 1,15,16
 545 837 545 837 493 786.5 c 128,-1,17
 441 736 441 736 363 736 c 0,18,4
 310 736 310 736 274.5 760.5 c 128,-1,5
242 695 m 1,19,-1
 462 695 l 1,20,-1
 566 0 l 1,21,-1
 374 0 l 1,22,-1
 363 142 l 1,23,-1
 182 142 l 1,24,-1
 133 0 l 1,25,-1
 -57 0 l 1,26,-1
 242 695 l 1,19,-1
227 274 m 1,27,-1
 354 274 l 1,28,-1
 331 575 l 1,29,-1
 227 274 l 1,27,-1
EndSplineSet
Substitution2: "'c2sc' Capitals to Small Capitals lookup 27 subtable" uni1EAF.sc
Substitution2: "'aalt' Access All Alternates lookup 0 subtable" uni1EAF.sc
Position2: "'cpsp' Capital Spacing lookup 0 subtable" dx=5 dy=0 dh=10 dv=0
EndChar

StartChar: uni1EB0
Encoding: 7856 7856 8
Width: 585
GlyphClass: 2
Flags: W
AnchorPoint: "Anchor-18" 0 0 basechar 0
AnchorPoint: "Anchor-17" 0 0 basechar 0
AnchorPoint: "Anchor-16" 387 928 basechar 0
AnchorPoint: "Anchor-15" 489 0 basechar 0
AnchorPoint: "Anchor-14" 0 0 basechar 0
LayerCount: 2
Fore
SplineSet
446 956 m 1,0,-1
 375 902 l 1,1,-1
 233 1052 l 1,2,-1
 337 1137 l 1,3,-1
 446 956 l 1,0,-1
273.5 760.5 m 128,-1,5
 238 785 238 785 222.5 825.5 c 128,-1,6
 207 866 207 866 210 912 c 1,7,-1
 302 926 l 1,8,9
 306 896 306 896 324 877 c 128,-1,10
 342 858 342 858 373 858 c 0,11,12
 405 858 405 858 428.5 877.5 c 128,-1,13
 452 897 452 897 465 928 c 1,14,-1
 560 909 l 1,15,16
 544 837 544 837 492 786.5 c 128,-1,17
 440 736 440 736 362 736 c 0,18,4
 309 736 309 736 273.5 760.5 c 128,-1,5
374 0 m 1,19,-1
 363 142 l 1,20,-1
 182 142 l 1,21,-1
 133 0 l 1,22,-1
 -57 0 l 1,23,-1
 242 695 l 1,24,-1
 462 695 l 1,25,-1
 566 0 l 1,26,-1
 374 0 l 1,19,-1
227 274 m 1,27,-1
 354 274 l 1,28,-1
 331 575 l 1,29,-1
 227 274 l 1,27,-1
EndSplineSet
Substitution2: "'c2sc' Capitals to Small Capitals lookup 27 subtable" uni1EB1.sc
Substitution2: "'aalt' Access All Alternates lookup 0 subtable" uni1EB1.sc
Position2: "'cpsp' Capital Spacing lookup 0 subtable" dx=5 dy=0 dh=10 dv=0
EndChar

StartChar: uni1EB4
Encoding: 7860 7860 10
Width: 585
GlyphClass: 2
Flags: W
AnchorPoint: "Anchor-18" 0 0 basechar 0
AnchorPoint: "Anchor-17" 0 0 basechar 0
AnchorPoint: "Anchor-16" 401 1109 basechar 0
AnchorPoint: "Anchor-15" 489 0 basechar 0
AnchorPoint: "Anchor-14" 0 0 basechar 0
LayerCount: 2
Fore
SplineSet
312 983.5 m 128,-1,1
 299 974 299 974 283 952 c 1,2,-1
 206 993 l 1,3,4
 233 1044 233 1044 270.5 1076.5 c 128,-1,5
 308 1109 308 1109 351 1109 c 0,6,7
 373 1109 373 1109 387 1103 c 128,-1,8
 401 1097 401 1097 422 1084 c 0,9,10
 444 1069 444 1069 457 1069 c 0,11,12
 473 1069 473 1069 486.5 1078.5 c 128,-1,13
 500 1088 500 1088 515 1109 c 1,14,-1
 593 1069 l 1,15,16
 566 1017 566 1017 528.5 985 c 128,-1,17
 491 953 491 953 449 953 c 0,18,19
 431 953 431 953 417 959 c 128,-1,20
 403 965 403 965 382 977 c 0,21,22
 372 983 372 983 361.5 988 c 128,-1,23
 351 993 351 993 342 993 c 0,24,0
 325 993 325 993 312 983.5 c 128,-1,1
429.5 877.5 m 128,-1,26
 453 897 453 897 466 928 c 1,27,-1
 561 909 l 1,28,29
 545 837 545 837 493 786.5 c 128,-1,30
 441 736 441 736 363 736 c 0,31,32
 310 736 310 736 274.5 760.5 c 128,-1,33
 239 785 239 785 223.5 825.5 c 128,-1,34
 208 866 208 866 211 912 c 1,35,-1
 303 926 l 1,36,37
 307 896 307 896 325 877 c 128,-1,38
 343 858 343 858 374 858 c 0,39,25
 406 858 406 858 429.5 877.5 c 128,-1,26
242 695 m 1,40,-1
 462 695 l 1,41,-1
 566 0 l 1,42,-1
 374 0 l 1,43,-1
 363 142 l 1,44,-1
 182 142 l 1,45,-1
 133 0 l 1,46,-1
 -57 0 l 1,47,-1
 242 695 l 1,40,-1
227 274 m 1,48,-1
 354 274 l 1,49,-1
 331 575 l 1,50,-1
 227 274 l 1,48,-1
EndSplineSet
Substitution2: "'c2sc' Capitals to Small Capitals lookup 27 subtable" uni1EB5.sc
Substitution2: "'aalt' Access All Alternates lookup 0 subtable" uni1EB5.sc
Position2: "'cpsp' Capital Spacing lookup 0 subtable" dx=5 dy=0 dh=10 dv=0
EndChar

StartChar: uni1EA4
Encoding: 7844 7844 13
Width: 585
GlyphClass: 2
Flags: W
AnchorPoint: "Anchor-18" 0 0 basechar 0
AnchorPoint: "Anchor-17" 458 812 basechar 0
AnchorPoint: "Anchor-16" 380 929 basechar 0
AnchorPoint: "Anchor-15" 489 0 basechar 0
AnchorPoint: "Anchor-14" 0 0 basechar 0
LayerCount: 2
Fore
SplineSet
712 1022 m 1,0,-1
 530 878 l 1,1,-1
 471 937 l 1,2,-1
 628 1115 l 1,3,-1
 712 1022 l 1,0,-1
367 808 m 1,4,-1
 223 722 l 1,5,-1
 168 793 l 1,6,-1
 328 929 l 1,7,-1
 434 929 l 1,8,-1
 555 793 l 1,9,-1
 488 722 l 1,10,-1
 367 808 l 1,4,-1
242 695 m 1,11,-1
 462 695 l 1,12,-1
 566 0 l 1,13,-1
 374 0 l 1,14,-1
 363 142 l 1,15,-1
 182 142 l 1,16,-1
 133 0 l 1,17,-1
 -57 0 l 1,18,-1
 242 695 l 1,11,-1
227 274 m 1,19,-1
 354 274 l 1,20,-1
 331 575 l 1,21,-1
 227 274 l 1,19,-1
EndSplineSet
Substitution2: "'c2sc' Capitals to Small Capitals lookup 27 subtable" uni1EA5.sc
Substitution2: "'aalt' Access All Alternates lookup 0 subtable" uni1EA5.sc
Position2: "'cpsp' Capital Spacing lookup 0 subtable" dx=5 dy=0 dh=10 dv=0
EndChar

StartChar: uni1EA6
Encoding: 7846 7846 15
Width: 585
GlyphClass: 2
Flags: W
AnchorPoint: "Anchor-18" 0 0 basechar 0
AnchorPoint: "Anchor-17" 455 812 basechar 0
AnchorPoint: "Anchor-16" 377 929 basechar 0
AnchorPoint: "Anchor-15" 489 0 basechar 0
AnchorPoint: "Anchor-14" 0 0 basechar 0
LayerCount: 2
Fore
SplineSet
279 932 m 1,0,-1
 208 878 l 1,1,-1
 66 1028 l 1,2,-1
 170 1113 l 1,3,-1
 279 932 l 1,0,-1
220 722 m 1,4,-1
 165 793 l 1,5,-1
 325 929 l 1,6,-1
 431 929 l 1,7,-1
 552 793 l 1,8,-1
 485 722 l 1,9,-1
 364 808 l 1,10,-1
 220 722 l 1,4,-1
374 0 m 1,11,-1
 363 142 l 1,12,-1
 182 142 l 1,13,-1
 133 0 l 1,14,-1
 -57 0 l 1,15,-1
 242 695 l 1,16,-1
 462 695 l 1,17,-1
 566 0 l 1,18,-1
 374 0 l 1,11,-1
227 274 m 1,19,-1
 354 274 l 1,20,-1
 331 575 l 1,21,-1
 227 274 l 1,19,-1
EndSplineSet
Substitution2: "'c2sc' Capitals to Small Capitals lookup 27 subtable" uni1EA7.sc
Substitution2: "'aalt' Access All Alternates lookup 0 subtable" uni1EA7.sc
Position2: "'cpsp' Capital Spacing lookup 0 subtable" dx=5 dy=0 dh=10 dv=0
EndChar

StartChar: uni1EAA
Encoding: 7850 7850 17
Width: 585
GlyphClass: 2
Flags: W
AnchorPoint: "Anchor-18" 0 0 basechar 0
AnchorPoint: "Anchor-17" 453 812 basechar 0
AnchorPoint: "Anchor-16" 393 1111 basechar 0
AnchorPoint: "Anchor-15" 489 0 basechar 0
AnchorPoint: "Anchor-14" 0 0 basechar 0
LayerCount: 2
Fore
SplineSet
304 985.5 m 128,-1,1
 291 976 291 976 275 954 c 1,2,-1
 198 995 l 1,3,4
 225 1046 225 1046 262.5 1078.5 c 128,-1,5
 300 1111 300 1111 343 1111 c 0,6,7
 365 1111 365 1111 379 1105 c 128,-1,8
 393 1099 393 1099 414 1086 c 0,9,10
 437 1071 437 1071 449 1071 c 0,11,12
 465 1071 465 1071 478.5 1080.5 c 128,-1,13
 492 1090 492 1090 507 1111 c 1,14,-1
 585 1071 l 1,15,16
 558 1019 558 1019 520.5 987 c 128,-1,17
 483 955 483 955 441 955 c 0,18,19
 423 955 423 955 409 961 c 128,-1,20
 395 967 395 967 374 979 c 0,21,22
 364 985 364 985 353.5 990 c 128,-1,23
 343 995 343 995 334 995 c 0,24,0
 317 995 317 995 304 985.5 c 128,-1,1
362 808 m 1,25,-1
 218 722 l 1,26,-1
 163 793 l 1,27,-1
 323 929 l 1,28,-1
 429 929 l 1,29,-1
 550 793 l 1,30,-1
 483 722 l 1,31,-1
 362 808 l 1,25,-1
242 695 m 1,32,-1
 462 695 l 1,33,-1
 566 0 l 1,34,-1
 374 0 l 1,35,-1
 363 142 l 1,36,-1
 182 142 l 1,37,-1
 133 0 l 1,38,-1
 -57 0 l 1,39,-1
 242 695 l 1,32,-1
227 274 m 1,40,-1
 354 274 l 1,41,-1
 331 575 l 1,42,-1
 227 274 l 1,40,-1
EndSplineSet
Substitution2: "'c2sc' Capitals to Small Capitals lookup 27 subtable" uni1EAB.sc
Substitution2: "'aalt' Access All Alternates lookup 0 subtable" uni1EAB.sc
Position2: "'cpsp' Capital Spacing lookup 0 subtable" dx=5 dy=0 dh=10 dv=0
EndChar

StartChar: uni2C6D
Encoding: 11373 11373 27
Width: 674
GlyphClass: 2
Flags: W
AnchorPoint: "Anchor-18" 0 0 basechar 0
AnchorPoint: "Anchor-17" 0 0 basechar 0
AnchorPoint: "Anchor-16" 398 695 basechar 0
AnchorPoint: "Anchor-15" 0 0 basechar 0
AnchorPoint: "Anchor-14" 300 0 basechar 0
LayerCount: 2
Fore
SplineSet
601 137 m 0,1,2
 601 123 601 123 606.5 114.5 c 128,-1,3
 612 106 612 106 627 99 c 1,4,-1
 576 -15 l 1,5,6
 475 -8 475 -8 437 65 c 1,7,8
 403 24 403 24 360.5 2.5 c 128,-1,9
 318 -19 318 -19 262 -19 c 0,10,11
 153 -19 153 -19 92 55 c 128,-1,12
 31 129 31 129 31 259 c 0,13,14
 31 377 31 377 71.5 481.5 c 128,-1,15
 112 586 112 586 186 649.5 c 128,-1,16
 260 713 260 713 357 713 c 0,17,18
 407 713 407 713 442 693.5 c 128,-1,19
 477 674 477 674 504 639 c 1,20,-1
 523 695 l 1,21,-1
 677 695 l 1,22,-1
 603 162 l 2,23,0
 601 142 601 142 601 137 c 0,1,2
242 143.5 m 128,-1,25
 266 111 266 111 314 111 c 0,26,27
 374 111 374 111 419 155 c 1,28,-1
 472 533 l 1,29,30
 441 580 441 580 384 580 c 0,31,32
 330 580 330 580 292.5 531.5 c 128,-1,33
 255 483 255 483 236.5 408 c 128,-1,34
 218 333 218 333 218 254 c 0,35,24
 218 176 218 176 242 143.5 c 128,-1,25
EndSplineSet
Substitution2: "'c2sc' Capitals to Small Capitals lookup 27 subtable" uni2C6D.sc
Substitution2: "'aalt' Access All Alternates lookup 0 subtable" uni2C6D.sc
Position2: "'cpsp' Capital Spacing lookup 0 subtable" dx=5 dy=0 dh=10 dv=0
EndChar

StartChar: Aogonek
Encoding: 260 260 29
Width: 585
GlyphClass: 2
Flags: W
AnchorPoint: "Anchor-18" 0 0 basechar 0
AnchorPoint: "Anchor-17" 0 0 basechar 0
AnchorPoint: "Anchor-16" 352 695 basechar 0
AnchorPoint: "Anchor-15" 489 0 basechar 0
AnchorPoint: "Anchor-14" 253 0 basechar 0
LayerCount: 2
Fore
SplineSet
377.5 -55 m 128,-1,1
 350 -84 350 -84 350 -110 c 0,2,3
 350 -143 350 -143 393 -143 c 0,4,5
 419 -143 419 -143 456 -135 c 1,6,-1
 432 -242 l 1,7,8
 397 -250 397 -250 361 -250 c 0,9,10
 300 -250 300 -250 261.5 -221 c 128,-1,11
 223 -192 223 -192 223 -142 c 0,12,13
 223 -34 223 -34 372 28 c 1,14,-1
 363 142 l 1,15,-1
 182 142 l 1,16,-1
 133 0 l 1,17,-1
 -57 0 l 1,18,-1
 242 695 l 1,19,-1
 462 695 l 1,20,-1
 566 0 l 1,21,-1
 481 0 l 1,22,0
 405 -26 405 -26 377.5 -55 c 128,-1,1
227 274 m 1,23,-1
 354 274 l 1,24,-1
 331 575 l 1,25,-1
 227 274 l 1,23,-1
EndSplineSet
Substitution2: "'c2sc' Capitals to Small Capitals lookup 27 subtable" aogonek.sc
Substitution2: "'aalt' Access All Alternates lookup 0 subtable" aogonek.sc
Position2: "'cpsp' Capital Spacing lookup 0 subtable" dx=5 dy=0 dh=10 dv=0
EndChar

StartChar: uni023A
Encoding: 570 570 32
Width: 585
GlyphClass: 2
Flags: W
AnchorPoint: "Anchor-18" 0 0 basechar 0
AnchorPoint: "Anchor-17" 0 0 basechar 0
AnchorPoint: "Anchor-16" 352 695 basechar 0
AnchorPoint: "Anchor-15" 0 0 basechar 0
AnchorPoint: "Anchor-14" 254 0 basechar 0
LayerCount: 2
Fore
SplineSet
394 0 m 1,0,-1
 380 142 l 1,1,-1
 270 142 l 1,2,-1
 182 -76 l 1,3,-1
 120 -61 l 1,4,-1
 203 142 l 1,5,-1
 168 142 l 1,6,-1
 116 0 l 1,7,-1
 -57 0 l 1,8,-1
 242 695 l 1,9,-1
 428 695 l 1,10,-1
 453 757 l 1,11,-1
 513 743 l 1,12,-1
 471 638 l 1,13,-1
 566 0 l 1,14,-1
 394 0 l 1,0,-1
214 265 m 1,15,-1
 253 265 l 1,16,-1
 344 490 l 1,17,-1
 334 592 l 1,18,-1
 214 265 l 1,15,-1
320 265 m 1,19,-1
 367 265 l 1,20,-1
 358 359 l 1,21,-1
 320 265 l 1,19,-1
EndSplineSet
Substitution2: "'c2sc' Capitals to Small Capitals lookup 27 subtable" uni2C65.sc
Substitution2: "'aalt' Access All Alternates lookup 0 subtable" uni2C65.sc
Position2: "'cpsp' Capital Spacing lookup 0 subtable" dx=5 dy=0 dh=10 dv=0
EndChar

StartChar: AE
Encoding: 198 198 34
Width: 840
GlyphClass: 2
Flags: W
AnchorPoint: "Anchor-18" 0 0 basechar 0
AnchorPoint: "Anchor-17" 0 0 basechar 0
AnchorPoint: "Anchor-16" 539 695 basechar 0
AnchorPoint: "Anchor-15" 0 0 basechar 0
AnchorPoint: "Anchor-14" 382 0 basechar 0
LayerCount: 2
Fore
SplineSet
803 564 m 1,0,-1
 548 564 l 1,1,-1
 555 415 l 1,2,-1
 791 415 l 1,3,-1
 774 287 l 1,4,-1
 561 287 l 1,5,-1
 568 131 l 1,6,-1
 796 131 l 1,7,-1
 778 0 l 1,8,-1
 405 0 l 1,9,-1
 401 142 l 1,10,-1
 201 142 l 1,11,-1
 136 0 l 1,12,-1
 -61 0 l 1,13,-1
 293 695 l 1,14,-1
 839 695 l 1,15,-1
 803 564 l 1,0,-1
261 274 m 1,16,-1
 398 274 l 1,17,-1
 391 561 l 1,18,-1
 261 274 l 1,16,-1
EndSplineSet
Substitution2: "'c2sc' Capitals to Small Capitals lookup 27 subtable" ae.sc
Substitution2: "'aalt' Access All Alternates lookup 0 subtable" ae.sc
Position2: "'cpsp' Capital Spacing lookup 0 subtable" dx=5 dy=0 dh=10 dv=0
EndChar

StartChar: B
Encoding: 66 66 37
Width: 609
GlyphClass: 2
Flags: W
AnchorPoint: "Anchor-18" 0 0 basechar 0
AnchorPoint: "Anchor-17" 0 0 basechar 0
AnchorPoint: "Anchor-16" 338 695 basechar 0
AnchorPoint: "Anchor-15" 0 0 basechar 0
AnchorPoint: "Anchor-14" 261 0 basechar 0
LayerCount: 2
Fore
SplineSet
544.5 322 m 128,-1,1
 582 289 582 289 582 221 c 0,2,3
 582 121 582 121 503.5 60.5 c 128,-1,4
 425 0 425 0 247 0 c 2,5,-1
 16 0 l 1,6,-1
 113 695 l 1,7,-1
 320 695 l 2,8,9
 454 695 454 695 525.5 657.5 c 128,-1,10
 597 620 597 620 597 535 c 0,11,12
 597 465 597 465 554 424 c 128,-1,13
 511 383 511 383 445 367 c 1,14,0
 507 355 507 355 544.5 322 c 128,-1,1
385 447 m 128,-1,16
 409 473 409 473 409 513 c 0,17,18
 409 541 409 541 388 553.5 c 128,-1,19
 367 566 367 566 322 566 c 2,20,-1
 276 566 l 1,21,-1
 256 421 l 1,22,-1
 303 421 l 2,23,15
 361 421 361 421 385 447 c 128,-1,16
367 159 m 128,-1,25
 395 186 395 186 395 236 c 0,26,27
 395 302 395 302 301 302 c 2,28,-1
 240 302 l 1,29,-1
 216 132 l 1,30,-1
 264 132 l 2,31,24
 339 132 339 132 367 159 c 128,-1,25
EndSplineSet
Substitution2: "'c2sc' Capitals to Small Capitals lookup 27 subtable" b.sc
Substitution2: "'aalt' Access All Alternates lookup 0 subtable" b.sc
Position2: "'cpsp' Capital Spacing lookup 0 subtable" dx=5 dy=0 dh=10 dv=0
EndChar

StartChar: uniA7B4
Encoding: 42932 42932 40
Width: 607
GlyphClass: 2
Flags: W
AnchorPoint: "Anchor-18" 0 0 basechar 0
AnchorPoint: "Anchor-17" 0 0 basechar 0
AnchorPoint: "Anchor-16" 364 695 basechar 0
AnchorPoint: "Anchor-15" 0 0 basechar 0
AnchorPoint: "Anchor-14" 0 0 basechar 0
LayerCount: 2
Fore
SplineSet
582 231 m 0,1,2
 582 157 582 157 544 104.5 c 128,-1,3
 506 52 506 52 441.5 26 c 128,-1,4
 377 0 377 0 296 0 c 0,5,6
 249 0 249 0 199 10 c 1,7,-1
 168 -213 l 1,8,-1
 -14 -213 l 1,9,-1
 113 695 l 1,10,-1
 320 695 l 2,11,12
 454 695 454 695 525.5 657.5 c 128,-1,13
 597 620 597 620 597 535 c 0,14,15
 597 465 597 465 554 424.5 c 128,-1,16
 511 384 511 384 447 367 c 1,17,0
 582 339 582 339 582 231 c 0,1,2
287 302 m 1,18,-1
 314 421 l 1,19,-1
 320 421 l 2,20,21
 360 421 360 421 384 444 c 128,-1,22
 408 467 408 467 408 507 c 0,23,24
 408 539 408 539 387.5 552.5 c 128,-1,25
 367 566 367 566 322 566 c 2,26,-1
 277 566 l 1,27,-1
 217 137 l 1,28,29
 250 132 250 132 278 132 c 0,30,31
 333 132 333 132 364.5 158.5 c 128,-1,32
 396 185 396 185 396 238 c 0,33,34
 396 302 396 302 316 302 c 2,35,-1
 287 302 l 1,18,-1
EndSplineSet
Substitution2: "'c2sc' Capitals to Small Capitals lookup 27 subtable" uniA7B4.sc
Substitution2: "'aalt' Access All Alternates lookup 0 subtable" uniA7B4.sc
Position2: "'cpsp' Capital Spacing lookup 0 subtable" dx=5 dy=0 dh=10 dv=0
EndChar

StartChar: uni0181
Encoding: 385 385 41
Width: 766
GlyphClass: 2
Flags: W
AnchorPoint: "Anchor-18" 0 0 basechar 0
AnchorPoint: "Anchor-17" 0 0 basechar 0
AnchorPoint: "Anchor-16" 496 695 basechar 0
AnchorPoint: "Anchor-15" 0 0 basechar 0
AnchorPoint: "Anchor-14" 419 0 basechar 0
LayerCount: 2
Fore
SplineSet
702.5 322 m 128,-1,1
 740 289 740 289 740 221 c 0,2,3
 740 121 740 121 661.5 60.5 c 128,-1,4
 583 0 583 0 405 0 c 2,5,-1
 174 0 l 1,6,-1
 253 564 l 1,7,-1
 227 564 l 2,8,9
 203 564 203 564 190 550.5 c 128,-1,10
 177 537 177 537 177 511 c 0,11,12
 177 495 177 495 180 480 c 128,-1,13
 183 465 183 465 184 461 c 1,14,-1
 64 415 l 1,15,16
 39 467 39 467 39 515 c 0,17,18
 39 598 39 598 94 646.5 c 128,-1,19
 149 695 149 695 240 695 c 2,20,-1
 478 695 l 2,21,22
 612 695 612 695 683.5 657.5 c 128,-1,23
 755 620 755 620 755 535 c 0,24,25
 755 465 755 465 712 424 c 128,-1,26
 669 383 669 383 603 367 c 1,27,0
 665 355 665 355 702.5 322 c 128,-1,1
543 447 m 128,-1,29
 567 473 567 473 567 513 c 0,30,31
 567 541 567 541 546 553.5 c 128,-1,32
 525 566 525 566 480 566 c 2,33,-1
 434 566 l 1,34,-1
 414 421 l 1,35,-1
 461 421 l 2,36,28
 519 421 519 421 543 447 c 128,-1,29
525 159 m 128,-1,38
 553 186 553 186 553 236 c 0,39,40
 553 302 553 302 459 302 c 2,41,-1
 398 302 l 1,42,-1
 374 132 l 1,43,-1
 422 132 l 2,44,37
 497 132 497 132 525 159 c 128,-1,38
EndSplineSet
Substitution2: "'ss02' Style Set 2 lookup 35 subtable" uni0181.ss02
Substitution2: "'c2sc' Capitals to Small Capitals lookup 27 subtable" uni0253.sc
AlternateSubs2: "'aalt' Access All Alternates lookup 1 subtable" uni0253.sc uni0181.ss02
Position2: "'cpsp' Capital Spacing lookup 0 subtable" dx=5 dy=0 dh=10 dv=0
EndChar

StartChar: uni0243
Encoding: 579 579 42
Width: 619
GlyphClass: 2
Flags: W
AnchorPoint: "Anchor-18" 0 0 basechar 0
AnchorPoint: "Anchor-17" 0 0 basechar 0
AnchorPoint: "Anchor-16" 348 695 basechar 0
AnchorPoint: "Anchor-15" 0 0 basechar 0
AnchorPoint: "Anchor-14" 271 0 basechar 0
LayerCount: 2
Fore
SplineSet
554.5 322 m 128,-1,1
 592 289 592 289 592 221 c 0,2,3
 592 121 592 121 513.5 60.5 c 128,-1,4
 435 0 435 0 257 0 c 2,5,-1
 26 0 l 1,6,-1
 51 178 l 1,7,-1
 -5 178 l 1,8,-1
 7 261 l 1,9,-1
 62 261 l 1,10,-1
 123 695 l 1,11,-1
 330 695 l 2,12,13
 464 695 464 695 535.5 657.5 c 128,-1,14
 607 620 607 620 607 535 c 0,15,16
 607 465 607 465 564 424 c 128,-1,17
 521 383 521 383 455 367 c 1,18,0
 517 355 517 355 554.5 322 c 128,-1,1
395 447 m 128,-1,20
 419 473 419 473 419 513 c 0,21,22
 419 541 419 541 398 553.5 c 128,-1,23
 377 566 377 566 332 566 c 2,24,-1
 286 566 l 1,25,-1
 266 421 l 1,26,-1
 313 421 l 2,27,19
 371 421 371 421 395 447 c 128,-1,20
377 159 m 128,-1,29
 405 186 405 186 405 236 c 0,30,31
 405 302 405 302 311 302 c 2,32,-1
 250 302 l 1,33,-1
 244 261 l 1,34,-1
 346 261 l 1,35,-1
 334 178 l 1,36,-1
 232 178 l 1,37,-1
 226 132 l 1,38,-1
 274 132 l 2,39,28
 349 132 349 132 377 159 c 128,-1,29
EndSplineSet
Substitution2: "'c2sc' Capitals to Small Capitals lookup 27 subtable" uni0180.sc
Substitution2: "'aalt' Access All Alternates lookup 0 subtable" uni0180.sc
Position2: "'cpsp' Capital Spacing lookup 0 subtable" dx=5 dy=0 dh=10 dv=0
EndChar

StartChar: C
Encoding: 67 67 44
Width: 568
GlyphClass: 2
Flags: W
AnchorPoint: "Anchor-18" 0 0 basechar 0
AnchorPoint: "Anchor-17" 0 0 basechar 0
AnchorPoint: "Anchor-16" 409 695 basechar 0
AnchorPoint: "Anchor-15" 0 0 basechar 0
AnchorPoint: "Anchor-14" 296 0 basechar 0
LayerCount: 2
Fore
SplineSet
607 627 m 1,1,-1
 510 533 l 1,2,3
 484 555 484 555 457 566.5 c 128,-1,4
 430 578 430 578 397 578 c 0,5,6
 334 578 334 578 294.5 528 c 128,-1,7
 255 478 255 478 237.5 407.5 c 128,-1,8
 220 337 220 337 220 271 c 0,9,10
 220 196 220 196 249 159.5 c 128,-1,11
 278 123 278 123 332 123 c 0,12,13
 368 123 368 123 399.5 138 c 128,-1,14
 431 153 431 153 469 181 c 1,15,-1
 538 74 l 1,16,17
 493 33 493 33 433 7 c 128,-1,18
 373 -19 373 -19 302 -19 c 0,19,20
 221 -19 221 -19 160 14.5 c 128,-1,21
 99 48 99 48 65.5 113 c 128,-1,22
 32 178 32 178 32 270 c 0,23,24
 32 376 32 376 69.5 477.5 c 128,-1,25
 107 579 107 579 188.5 646 c 128,-1,26
 270 713 270 713 395 713 c 0,27,0
 530 713 530 713 607 627 c 1,1,-1
EndSplineSet
Substitution2: "'c2sc' Capitals to Small Capitals lookup 27 subtable" c.sc
Substitution2: "'aalt' Access All Alternates lookup 0 subtable" c.sc
Position2: "'cpsp' Capital Spacing lookup 0 subtable" dx=5 dy=0 dh=10 dv=0
EndChar

StartChar: Ccedilla
Encoding: 199 199 47
Width: 568
GlyphClass: 2
Flags: W
AnchorPoint: "Anchor-18" 0 0 basechar 0
AnchorPoint: "Anchor-17" 0 0 basechar 0
AnchorPoint: "Anchor-16" 409 695 basechar 0
AnchorPoint: "Anchor-15" 0 0 basechar 0
AnchorPoint: "Anchor-14" 291 -269 basechar 0
LayerCount: 2
Fore
SplineSet
345 -16 m 1,1,-1
 340 -45 l 1,2,3
 386 -51 386 -51 410 -75.5 c 128,-1,4
 434 -100 434 -100 434 -139 c 0,5,6
 434 -169 434 -169 417 -199 c 128,-1,7
 400 -229 400 -229 362 -249 c 128,-1,8
 324 -269 324 -269 265 -269 c 0,9,10
 198 -269 198 -269 151 -235 c 1,11,-1
 200 -158 l 1,12,13
 229 -174 229 -174 260 -174 c 0,14,15
 310 -174 310 -174 310 -144 c 0,16,17
 310 -128 310 -128 290 -122 c 128,-1,18
 270 -116 270 -116 223 -116 c 1,19,-1
 248 -15 l 1,20,21
 147 1 147 1 89.5 74.5 c 128,-1,22
 32 148 32 148 32 270 c 0,23,24
 32 376 32 376 69.5 477.5 c 128,-1,25
 107 579 107 579 188.5 646 c 128,-1,26
 270 713 270 713 395 713 c 0,27,28
 530 713 530 713 607 627 c 1,29,-1
 510 533 l 1,30,31
 484 555 484 555 457 566.5 c 128,-1,32
 430 578 430 578 397 578 c 0,33,34
 334 578 334 578 294.5 528 c 128,-1,35
 255 478 255 478 237.5 407.5 c 128,-1,36
 220 337 220 337 220 271 c 0,37,38
 220 196 220 196 249 159.5 c 128,-1,39
 278 123 278 123 332 123 c 0,40,41
 368 123 368 123 399.5 138 c 128,-1,42
 431 153 431 153 469 181 c 1,43,-1
 538 74 l 1,44,0
 454 -3 454 -3 345 -16 c 1,1,-1
EndSplineSet
Substitution2: "'c2sc' Capitals to Small Capitals lookup 27 subtable" ccedilla.sc
Substitution2: "'aalt' Access All Alternates lookup 0 subtable" ccedilla.sc
Position2: "'cpsp' Capital Spacing lookup 0 subtable" dx=5 dy=0 dh=10 dv=0
EndChar

StartChar: uniA7B3
Encoding: 42931 42931 50
Width: 573
GlyphClass: 2
Flags: W
AnchorPoint: "Anchor-18" 0 0 basechar 0
AnchorPoint: "Anchor-17" 0 0 basechar 0
AnchorPoint: "Anchor-16" 346 695 basechar 0
AnchorPoint: "Anchor-15" 0 0 basechar 0
AnchorPoint: "Anchor-14" 0 0 basechar 0
LayerCount: 2
Fore
SplineSet
625 695 m 1,0,-1
 392 286 l 1,1,-1
 519 -171 l 1,2,-1
 326 -171 l 1,3,-1
 268 162 l 1,4,-1
 129 -171 l 1,5,-1
 -69 -171 l 1,6,-1
 176 284 l 1,7,-1
 67 695 l 1,8,-1
 260 695 l 1,9,-1
 301 399 l 1,10,-1
 430 695 l 1,11,-1
 625 695 l 1,0,-1
EndSplineSet
Substitution2: "'c2sc' Capitals to Small Capitals lookup 27 subtable" uniA7B3.sc
Substitution2: "'aalt' Access All Alternates lookup 0 subtable" uniA7B3.sc
Position2: "'cpsp' Capital Spacing lookup 0 subtable" dx=5 dy=0 dh=10 dv=0
EndChar

StartChar: uni0187
Encoding: 391 391 51
Width: 579
GlyphClass: 2
Flags: W
AnchorPoint: "Anchor-18" 0 0 basechar 0
AnchorPoint: "Anchor-17" 0 0 basechar 0
AnchorPoint: "Anchor-16" 345 743 basechar 0
AnchorPoint: "Anchor-15" 0 0 basechar 0
AnchorPoint: "Anchor-14" 252 0 basechar 0
LayerCount: 2
Fore
SplineSet
791 819 m 1,1,-1
 729 711 l 1,2,3
 712 720 712 720 698.5 724 c 128,-1,4
 685 728 685 728 669 728 c 0,5,6
 620 728 620 728 611 669 c 2,7,-1
 606 627 l 1,8,-1
 525 542 l 1,9,10
 462 578 462 578 399 578 c 0,11,12
 335 578 335 578 294.5 528 c 128,-1,13
 254 478 254 478 237 407.5 c 128,-1,14
 220 337 220 337 220 271 c 0,15,16
 220 196 220 196 249 159.5 c 128,-1,17
 278 123 278 123 332 123 c 0,18,19
 367 123 367 123 398.5 138 c 128,-1,20
 430 153 430 153 469 182 c 1,21,-1
 538 74 l 1,22,23
 492 33 492 33 432.5 7 c 128,-1,24
 373 -19 373 -19 307 -19 c 0,25,26
 177 -19 177 -19 104 56 c 128,-1,27
 31 131 31 131 31 270 c 0,28,29
 31 372 31 372 71 474.5 c 128,-1,30
 111 577 111 577 189 645 c 128,-1,31
 267 713 267 713 376 713 c 0,32,33
 426 713 426 713 464 697 c 1,34,35
 477 774 477 774 525.5 815.5 c 128,-1,36
 574 857 574 857 657 857 c 0,37,0
 734 857 734 857 791 819 c 1,1,-1
EndSplineSet
Substitution2: "'c2sc' Capitals to Small Capitals lookup 27 subtable" uni0188.sc
Substitution2: "'aalt' Access All Alternates lookup 0 subtable" uni0188.sc
Position2: "'cpsp' Capital Spacing lookup 0 subtable" dx=5 dy=0 dh=10 dv=0
EndChar

StartChar: uni023B
Encoding: 571 571 52
Width: 568
GlyphClass: 2
Flags: W
AnchorPoint: "Anchor-18" 0 0 basechar 0
AnchorPoint: "Anchor-17" 0 0 basechar 0
AnchorPoint: "Anchor-16" 344 695 basechar 0
AnchorPoint: "Anchor-15" 0 0 basechar 0
AnchorPoint: "Anchor-14" 247 0 basechar 0
LayerCount: 2
Fore
SplineSet
399.5 138 m 128,-1,1
 431 153 431 153 469 181 c 1,2,-1
 538 74 l 1,3,4
 493 33 493 33 433 7 c 128,-1,5
 373 -19 373 -19 302 -19 c 0,6,7
 267 -19 267 -19 237 -13 c 1,8,-1
 211 -76 l 1,9,-1
 149 -61 l 1,10,-1
 176 6 l 1,11,12
 108 37 108 37 70 104.5 c 128,-1,13
 32 172 32 172 32 270 c 0,14,15
 32 376 32 376 69.5 477.5 c 128,-1,16
 107 579 107 579 188.5 646 c 128,-1,17
 270 713 270 713 395 713 c 0,18,19
 431 713 431 713 462 707 c 1,20,-1
 482 757 l 1,21,-1
 542 743 l 1,22,-1
 520 689 l 1,23,24
 570 668 570 668 607 627 c 1,25,-1
 510 533 l 1,26,27
 488 551 488 551 469 561 c 1,28,-1
 294 128 l 1,29,30
 312 123 312 123 332 123 c 0,31,0
 368 123 368 123 399.5 138 c 128,-1,1
243 169 m 1,33,-1
 409 578 l 1,34,-1
 397 578 l 2,35,36
 334 578 334 578 294.5 528 c 128,-1,37
 255 478 255 478 237.5 407.5 c 128,-1,38
 220 337 220 337 220 271 c 0,39,32
 220 206 220 206 243 169 c 1,33,-1
EndSplineSet
Substitution2: "'c2sc' Capitals to Small Capitals lookup 27 subtable" uni023C.sc
Substitution2: "'aalt' Access All Alternates lookup 0 subtable" uni023C.sc
Position2: "'cpsp' Capital Spacing lookup 0 subtable" dx=5 dy=0 dh=10 dv=0
EndChar

StartChar: D
Encoding: 68 68 53
Width: 643
GlyphClass: 2
Flags: W
AnchorPoint: "Anchor-18" 333 347 basechar 0
AnchorPoint: "Anchor-17" 0 0 basechar 0
AnchorPoint: "Anchor-16" 349 695 basechar 0
AnchorPoint: "Anchor-15" 0 0 basechar 0
AnchorPoint: "Anchor-14" 252 0 basechar 0
LayerCount: 2
Fore
SplineSet
547 637 m 128,-1,1
 634 579 634 579 634 431 c 0,2,3
 634 240 634 240 540.5 120 c 128,-1,4
 447 0 447 0 235 0 c 2,5,-1
 16 0 l 1,6,-1
 113 695 l 1,7,-1
 316 695 l 2,8,0
 460 695 460 695 547 637 c 128,-1,1
277 562 m 1,9,-1
 217 132 l 1,10,-1
 262 132 l 2,11,12
 364 132 364 132 405.5 221.5 c 128,-1,13
 447 311 447 311 447 430 c 0,14,15
 447 505 447 505 416.5 533.5 c 128,-1,16
 386 562 386 562 325 562 c 2,17,-1
 277 562 l 1,9,-1
EndSplineSet
Substitution2: "'c2sc' Capitals to Small Capitals lookup 27 subtable" d.sc
Substitution2: "'aalt' Access All Alternates lookup 0 subtable" d.sc
Position2: "'cpsp' Capital Spacing lookup 0 subtable" dx=5 dy=0 dh=10 dv=0
EndChar

StartChar: Eth
Encoding: 208 208 57
Width: 652
GlyphClass: 2
Flags: W
AnchorPoint: "Anchor-18" 342 347 basechar 0
AnchorPoint: "Anchor-17" 0 0 basechar 0
AnchorPoint: "Anchor-16" 358 695 basechar 0
AnchorPoint: "Anchor-15" 0 0 basechar 0
AnchorPoint: "Anchor-14" 261 0 basechar 0
LayerCount: 2
Fore
SplineSet
556 637 m 128,-1,1
 643 579 643 579 643 431 c 0,2,3
 643 240 643 240 549.5 120 c 128,-1,4
 456 0 456 0 244 0 c 2,5,-1
 25 0 l 1,6,-1
 67 299 l 1,7,-1
 12 299 l 1,8,-1
 27 407 l 1,9,-1
 82 407 l 1,10,-1
 122 695 l 1,11,-1
 325 695 l 2,12,0
 469 695 469 695 556 637 c 128,-1,1
414.5 221.5 m 128,-1,14
 456 311 456 311 456 430 c 0,15,16
 456 505 456 505 425.5 533.5 c 128,-1,17
 395 562 395 562 334 562 c 2,18,-1
 286 562 l 1,19,-1
 264 407 l 1,20,-1
 389 407 l 1,21,-1
 375 299 l 1,22,-1
 249 299 l 1,23,-1
 226 132 l 1,24,-1
 271 132 l 2,25,13
 373 132 373 132 414.5 221.5 c 128,-1,14
EndSplineSet
Substitution2: "'c2sc' Capitals to Small Capitals lookup 27 subtable" eth.sc
Substitution2: "'aalt' Access All Alternates lookup 0 subtable" eth.sc
Position2: "'cpsp' Capital Spacing lookup 0 subtable" dx=5 dy=0 dh=10 dv=0
EndChar

StartChar: uni018A
Encoding: 394 394 63
Width: 801
GlyphClass: 2
Flags: W
AnchorPoint: "Anchor-18" 491 347 basechar 0
AnchorPoint: "Anchor-17" 0 0 basechar 0
AnchorPoint: "Anchor-16" 507 695 basechar 0
AnchorPoint: "Anchor-15" 0 0 basechar 0
AnchorPoint: "Anchor-14" 410 0 basechar 0
LayerCount: 2
Fore
SplineSet
705 637 m 128,-1,1
 792 579 792 579 792 431 c 0,2,3
 792 240 792 240 698.5 120 c 128,-1,4
 605 0 605 0 393 0 c 2,5,-1
 174 0 l 1,6,-1
 253 564 l 1,7,-1
 227 564 l 2,8,9
 203 564 203 564 190 550.5 c 128,-1,10
 177 537 177 537 177 511 c 0,11,12
 177 495 177 495 180 480 c 128,-1,13
 183 465 183 465 184 461 c 1,14,-1
 64 415 l 1,15,16
 39 467 39 467 39 515 c 0,17,18
 39 598 39 598 94 646.5 c 128,-1,19
 149 695 149 695 240 695 c 2,20,-1
 474 695 l 2,21,0
 618 695 618 695 705 637 c 128,-1,1
563.5 221.5 m 128,-1,23
 605 311 605 311 605 430 c 0,24,25
 605 505 605 505 574.5 533.5 c 128,-1,26
 544 562 544 562 483 562 c 2,27,-1
 435 562 l 1,28,-1
 375 132 l 1,29,-1
 420 132 l 2,30,22
 522 132 522 132 563.5 221.5 c 128,-1,23
EndSplineSet
Substitution2: "'c2sc' Capitals to Small Capitals lookup 27 subtable" uni0257.sc
Substitution2: "'aalt' Access All Alternates lookup 0 subtable" uni0257.sc
Position2: "'cpsp' Capital Spacing lookup 0 subtable" dx=5 dy=0 dh=10 dv=0
EndChar

StartChar: uni018B
Encoding: 395 395 65
Width: 594
GlyphClass: 2
Flags: W
AnchorPoint: "Anchor-18" 0 0 basechar 0
AnchorPoint: "Anchor-17" 0 0 basechar 0
AnchorPoint: "Anchor-16" 356 695 basechar 0
AnchorPoint: "Anchor-15" 0 0 basechar 0
AnchorPoint: "Anchor-14" 259 0 basechar 0
LayerCount: 2
Fore
SplineSet
503 0 m 1,0,-1
 244 0 l 2,1,2
 135 0 135 0 70.5 52 c 128,-1,3
 6 104 6 104 6 206 c 0,4,5
 6 324 6 324 89.5 387.5 c 128,-1,6
 173 451 173 451 315 451 c 2,7,-1
 384 451 l 1,8,-1
 398 556 l 1,9,-1
 145 556 l 1,10,-1
 165 695 l 1,11,-1
 600 695 l 1,12,-1
 503 0 l 1,0,-1
339 132 m 1,13,-1
 366 325 l 1,14,-1
 317 325 l 2,15,16
 258 325 258 325 228 293.5 c 128,-1,17
 198 262 198 262 198 213 c 0,18,19
 198 170 198 170 219 151 c 128,-1,20
 240 132 240 132 285 132 c 2,21,-1
 339 132 l 1,13,-1
EndSplineSet
Substitution2: "'c2sc' Capitals to Small Capitals lookup 27 subtable" uni018C.sc
Substitution2: "'aalt' Access All Alternates lookup 0 subtable" uni018C.sc
Position2: "'cpsp' Capital Spacing lookup 0 subtable" dx=5 dy=0 dh=10 dv=0
EndChar

StartChar: E
Encoding: 69 69 68
Width: 514
GlyphClass: 2
Flags: W
AnchorPoint: "Anchor-18" 0 0 basechar 0
AnchorPoint: "Anchor-17" 0 0 basechar 0
AnchorPoint: "Anchor-16" 332 695 basechar 0
AnchorPoint: "Anchor-15" 418 0 basechar 0
AnchorPoint: "Anchor-14" 232 0 basechar 0
LayerCount: 2
Fore
SplineSet
548 695 m 1,0,-1
 510 564 l 1,1,-1
 277 564 l 1,2,-1
 256 417 l 1,3,-1
 460 417 l 1,4,-1
 443 289 l 1,5,-1
 239 289 l 1,6,-1
 217 131 l 1,7,-1
 466 131 l 1,8,-1
 448 0 l 1,9,-1
 16 0 l 1,10,-1
 113 695 l 1,11,-1
 548 695 l 1,0,-1
EndSplineSet
Substitution2: "'c2sc' Capitals to Small Capitals lookup 27 subtable" e.sc
Substitution2: "'aalt' Access All Alternates lookup 0 subtable" e.sc
Position2: "'cpsp' Capital Spacing lookup 0 subtable" dx=5 dy=0 dh=10 dv=0
EndChar

StartChar: uni0228
Encoding: 552 552 72
Width: 514
GlyphClass: 2
Flags: W
AnchorPoint: "Anchor-18" 0 0 basechar 0
AnchorPoint: "Anchor-17" 0 0 basechar 0
AnchorPoint: "Anchor-16" 332 695 basechar 0
AnchorPoint: "Anchor-15" 418 0 basechar 0
AnchorPoint: "Anchor-14" 232 0 basechar 0
LayerCount: 2
Fore
SplineSet
277 564 m 1,0,-1
 256 417 l 1,1,-1
 460 417 l 1,2,-1
 443 289 l 1,3,-1
 239 289 l 1,4,-1
 217 131 l 1,5,-1
 466 131 l 1,6,-1
 448 0 l 1,7,-1
 282 0 l 1,8,-1
 274 -45 l 1,9,10
 321 -51 321 -51 344.5 -75 c 128,-1,11
 368 -99 368 -99 368 -138 c 0,12,13
 368 -168 368 -168 351 -198 c 128,-1,14
 334 -228 334 -228 296 -248.5 c 128,-1,15
 258 -269 258 -269 198 -269 c 0,16,17
 132 -269 132 -269 85 -235 c 1,18,-1
 134 -158 l 1,19,20
 163 -174 163 -174 197 -174 c 0,21,22
 244 -174 244 -174 244 -145 c 0,23,24
 244 -129 244 -129 224.5 -122.5 c 128,-1,25
 205 -116 205 -116 157 -116 c 1,26,-1
 186 0 l 1,27,-1
 16 0 l 1,28,-1
 113 695 l 1,29,-1
 548 695 l 1,30,-1
 510 564 l 1,31,-1
 277 564 l 1,0,-1
EndSplineSet
Substitution2: "'c2sc' Capitals to Small Capitals lookup 27 subtable" uni0229.sc
Substitution2: "'aalt' Access All Alternates lookup 0 subtable" uni0229.sc
Position2: "'cpsp' Capital Spacing lookup 0 subtable" dx=5 dy=0 dh=10 dv=0
EndChar

StartChar: uni1EBE
Encoding: 7870 7870 74
Width: 514
GlyphClass: 2
Flags: W
AnchorPoint: "Anchor-18" 0 0 basechar 0
AnchorPoint: "Anchor-17" 438 812 basechar 0
AnchorPoint: "Anchor-16" 360 929 basechar 0
AnchorPoint: "Anchor-15" 418 0 basechar 0
AnchorPoint: "Anchor-14" 0 0 basechar 0
LayerCount: 2
Fore
SplineSet
608 1115 m 1,0,-1
 692 1022 l 1,1,-1
 510 878 l 1,2,-1
 451 937 l 1,3,-1
 608 1115 l 1,0,-1
203 722 m 1,4,-1
 148 793 l 1,5,-1
 308 929 l 1,6,-1
 414 929 l 1,7,-1
 535 793 l 1,8,-1
 468 722 l 1,9,-1
 347 808 l 1,10,-1
 203 722 l 1,4,-1
548 695 m 1,11,-1
 510 564 l 1,12,-1
 277 564 l 1,13,-1
 256 417 l 1,14,-1
 460 417 l 1,15,-1
 443 289 l 1,16,-1
 239 289 l 1,17,-1
 217 131 l 1,18,-1
 466 131 l 1,19,-1
 448 0 l 1,20,-1
 16 0 l 1,21,-1
 113 695 l 1,22,-1
 548 695 l 1,11,-1
EndSplineSet
Substitution2: "'c2sc' Capitals to Small Capitals lookup 27 subtable" uni1EBF.sc
Substitution2: "'aalt' Access All Alternates lookup 0 subtable" uni1EBF.sc
Position2: "'cpsp' Capital Spacing lookup 0 subtable" dx=5 dy=0 dh=10 dv=0
EndChar

StartChar: uni1EC0
Encoding: 7872 7872 76
Width: 514
GlyphClass: 2
Flags: W
AnchorPoint: "Anchor-18" 0 0 basechar 0
AnchorPoint: "Anchor-17" 435 812 basechar 0
AnchorPoint: "Anchor-16" 357 929 basechar 0
AnchorPoint: "Anchor-15" 418 0 basechar 0
AnchorPoint: "Anchor-14" 0 0 basechar 0
LayerCount: 2
Fore
SplineSet
150 1113 m 1,0,-1
 259 932 l 1,1,-1
 188 878 l 1,2,-1
 46 1028 l 1,3,-1
 150 1113 l 1,0,-1
200 722 m 1,4,-1
 145 793 l 1,5,-1
 305 929 l 1,6,-1
 411 929 l 1,7,-1
 532 793 l 1,8,-1
 465 722 l 1,9,-1
 344 808 l 1,10,-1
 200 722 l 1,4,-1
548 695 m 1,11,-1
 510 564 l 1,12,-1
 277 564 l 1,13,-1
 256 417 l 1,14,-1
 460 417 l 1,15,-1
 443 289 l 1,16,-1
 239 289 l 1,17,-1
 217 131 l 1,18,-1
 466 131 l 1,19,-1
 448 0 l 1,20,-1
 16 0 l 1,21,-1
 113 695 l 1,22,-1
 548 695 l 1,11,-1
EndSplineSet
Substitution2: "'c2sc' Capitals to Small Capitals lookup 27 subtable" uni1EC1.sc
Substitution2: "'aalt' Access All Alternates lookup 0 subtable" uni1EC1.sc
Position2: "'cpsp' Capital Spacing lookup 0 subtable" dx=5 dy=0 dh=10 dv=0
EndChar

StartChar: uni1EC4
Encoding: 7876 7876 78
Width: 514
GlyphClass: 2
Flags: W
AnchorPoint: "Anchor-18" 0 0 basechar 0
AnchorPoint: "Anchor-17" 433 812 basechar 0
AnchorPoint: "Anchor-16" 373 1111 basechar 0
AnchorPoint: "Anchor-15" 418 0 basechar 0
AnchorPoint: "Anchor-14" 0 0 basechar 0
LayerCount: 2
Fore
SplineSet
389 961 m 128,-1,1
 375 967 375 967 354 979 c 0,2,3
 344 985 344 985 333.5 990 c 128,-1,4
 323 995 323 995 314 995 c 0,5,6
 297 995 297 995 284 985.5 c 128,-1,7
 271 976 271 976 255 954 c 1,8,-1
 178 995 l 1,9,10
 205 1046 205 1046 242.5 1078.5 c 128,-1,11
 280 1111 280 1111 323 1111 c 0,12,13
 345 1111 345 1111 359 1105 c 128,-1,14
 373 1099 373 1099 394 1086 c 0,15,16
 416 1071 416 1071 429 1071 c 0,17,18
 445 1071 445 1071 458.5 1080.5 c 128,-1,19
 472 1090 472 1090 487 1111 c 1,20,-1
 565 1071 l 1,21,22
 538 1019 538 1019 500.5 987 c 128,-1,23
 463 955 463 955 421 955 c 0,24,0
 403 955 403 955 389 961 c 128,-1,1
198 722 m 1,25,-1
 143 793 l 1,26,-1
 303 929 l 1,27,-1
 409 929 l 1,28,-1
 530 793 l 1,29,-1
 463 722 l 1,30,-1
 342 808 l 1,31,-1
 198 722 l 1,25,-1
548 695 m 1,32,-1
 510 564 l 1,33,-1
 277 564 l 1,34,-1
 256 417 l 1,35,-1
 460 417 l 1,36,-1
 443 289 l 1,37,-1
 239 289 l 1,38,-1
 217 131 l 1,39,-1
 466 131 l 1,40,-1
 448 0 l 1,41,-1
 16 0 l 1,42,-1
 113 695 l 1,43,-1
 548 695 l 1,32,-1
EndSplineSet
Substitution2: "'c2sc' Capitals to Small Capitals lookup 27 subtable" uni1EC5.sc
Substitution2: "'aalt' Access All Alternates lookup 0 subtable" uni1EC5.sc
Position2: "'cpsp' Capital Spacing lookup 0 subtable" dx=5 dy=0 dh=10 dv=0
EndChar

StartChar: Eogonek
Encoding: 280 280 87
Width: 514
GlyphClass: 2
Flags: W
AnchorPoint: "Anchor-18" 0 0 basechar 0
AnchorPoint: "Anchor-17" 0 0 basechar 0
AnchorPoint: "Anchor-16" 332 695 basechar 0
AnchorPoint: "Anchor-15" 418 0 basechar 0
AnchorPoint: "Anchor-14" 232 0 basechar 0
LayerCount: 2
Fore
SplineSet
277 564 m 1,0,-1
 256 417 l 1,1,-1
 460 417 l 1,2,-1
 443 289 l 1,3,-1
 239 289 l 1,4,-1
 217 131 l 1,5,-1
 466 131 l 1,6,-1
 448 0 l 1,7,-1
 410 0 l 1,8,9
 334 -26 334 -26 306.5 -55 c 128,-1,10
 279 -84 279 -84 279 -110 c 0,11,12
 279 -143 279 -143 322 -143 c 0,13,14
 348 -143 348 -143 385 -135 c 1,15,-1
 361 -242 l 1,16,17
 326 -250 326 -250 290 -250 c 0,18,19
 229 -250 229 -250 190.5 -221 c 128,-1,20
 152 -192 152 -192 152 -142 c 0,21,22
 152 -56 152 -56 245 0 c 1,23,-1
 16 0 l 1,24,-1
 113 695 l 1,25,-1
 548 695 l 1,26,-1
 510 564 l 1,27,-1
 277 564 l 1,0,-1
EndSplineSet
Substitution2: "'c2sc' Capitals to Small Capitals lookup 27 subtable" eogonek.sc
Substitution2: "'aalt' Access All Alternates lookup 0 subtable" eogonek.sc
Position2: "'cpsp' Capital Spacing lookup 0 subtable" dx=5 dy=0 dh=10 dv=0
EndChar

StartChar: uni0190
Encoding: 400 400 88
Width: 537
GlyphClass: 2
Flags: W
AnchorPoint: "Anchor-18" 0 0 basechar 0
AnchorPoint: "Anchor-17" 0 0 basechar 0
AnchorPoint: "Anchor-16" 349 695 basechar 0
AnchorPoint: "Anchor-15" 0 0 basechar 0
AnchorPoint: "Anchor-14" 253 0 basechar 0
LayerCount: 2
Fore
SplineSet
472.5 689.5 m 128,-1,1
 527 666 527 666 570 618 c 1,2,-1
 473 528 l 1,3,4
 421 581 421 581 355 581 c 0,5,6
 309 581 309 581 283.5 557.5 c 128,-1,7
 258 534 258 534 258 496 c 0,8,9
 258 430 258 430 341 430 c 2,10,-1
 419 430 l 1,11,-1
 380 301 l 1,12,-1
 328 301 l 2,13,14
 265 301 265 301 230 273.5 c 128,-1,15
 195 246 195 246 195 196 c 0,16,17
 195 154 195 154 218 134.5 c 128,-1,18
 241 115 241 115 288 115 c 0,19,20
 327 115 327 115 361 130 c 128,-1,21
 395 145 395 145 432 176 c 1,22,-1
 517 79 l 1,23,24
 413 -19 413 -19 258 -19 c 0,25,26
 183 -19 183 -19 126 4.5 c 128,-1,27
 69 28 69 28 38 72 c 128,-1,28
 7 116 7 116 7 174 c 0,29,30
 7 262 7 262 60.5 309.5 c 128,-1,31
 114 357 114 357 211 368 c 1,32,33
 142 383 142 383 108 420 c 128,-1,34
 74 457 74 457 74 511 c 0,35,36
 74 571 74 571 111 617 c 128,-1,37
 148 663 148 663 209 688 c 128,-1,38
 270 713 270 713 341 713 c 0,39,0
 418 713 418 713 472.5 689.5 c 128,-1,1
EndSplineSet
Substitution2: "'c2sc' Capitals to Small Capitals lookup 27 subtable" uni025B.sc
Substitution2: "'aalt' Access All Alternates lookup 0 subtable" uni025B.sc
Position2: "'cpsp' Capital Spacing lookup 0 subtable" dx=5 dy=0 dh=10 dv=0
EndChar

StartChar: uni018E
Encoding: 398 398 89
Width: 510
GlyphClass: 2
Flags: W
LayerCount: 2
Fore
SplineSet
90 695 m 1,0,-1
 516 695 l 1,1,-1
 419 0 l 1,2,-1
 -12 0 l 1,3,-1
 6 131 l 1,4,-1
 255 131 l 1,5,-1
 278 289 l 1,6,-1
 74 289 l 1,7,-1
 91 417 l 1,8,-1
 294 417 l 1,9,-1
 316 564 l 1,10,-1
 71 564 l 1,11,-1
 90 695 l 1,0,-1
EndSplineSet
Substitution2: "'c2sc' Capitals to Small Capitals lookup 27 subtable" uni0258.sc
Substitution2: "'aalt' Access All Alternates lookup 0 subtable" uni0258.sc
Position2: "'cpsp' Capital Spacing lookup 0 subtable" dx=5 dy=0 dh=10 dv=0
EndChar

StartChar: uni0246
Encoding: 582 582 91
Width: 514
GlyphClass: 2
Flags: W
AnchorPoint: "Anchor-18" 0 0 basechar 0
AnchorPoint: "Anchor-17" 0 0 basechar 0
AnchorPoint: "Anchor-16" 317 695 basechar 0
AnchorPoint: "Anchor-15" 418 0 basechar 0
AnchorPoint: "Anchor-14" 219 0 basechar 0
LayerCount: 2
Fore
SplineSet
510 564 m 1,0,-1
 461 564 l 1,1,-1
 401 417 l 1,2,-1
 460 417 l 1,3,-1
 443 289 l 1,4,-1
 350 289 l 1,5,-1
 286 131 l 1,6,-1
 466 131 l 1,7,-1
 448 0 l 1,8,-1
 233 0 l 1,9,-1
 202 -76 l 1,10,-1
 141 -61 l 1,11,-1
 166 0 l 1,12,-1
 16 0 l 1,13,-1
 113 695 l 1,14,-1
 448 695 l 1,15,-1
 473 757 l 1,16,-1
 533 743 l 1,17,-1
 514 695 l 1,18,-1
 548 695 l 1,19,-1
 510 564 l 1,0,-1
335 417 m 1,20,-1
 395 564 l 1,21,-1
 277 564 l 1,22,-1
 256 417 l 1,23,-1
 335 417 l 1,20,-1
219 131 m 1,24,-1
 283 289 l 1,25,-1
 239 289 l 1,26,-1
 217 131 l 1,27,-1
 219 131 l 1,24,-1
EndSplineSet
Substitution2: "'c2sc' Capitals to Small Capitals lookup 27 subtable" uni0247.sc
Substitution2: "'aalt' Access All Alternates lookup 0 subtable" uni0247.sc
Position2: "'cpsp' Capital Spacing lookup 0 subtable" dx=5 dy=0 dh=10 dv=0
EndChar

StartChar: uni01B7
Encoding: 439 439 93
Width: 551
GlyphClass: 2
Flags: W
AnchorPoint: "Anchor-18" 0 0 basechar 0
AnchorPoint: "Anchor-17" 0 0 basechar 0
AnchorPoint: "Anchor-16" 329 695 basechar 0
AnchorPoint: "Anchor-15" 0 0 basechar 0
AnchorPoint: "Anchor-14" 236 0 basechar 0
LayerCount: 2
Fore
SplineSet
534 567 m 1,0,-1
 350 404 l 1,1,2
 432 399 432 399 478 356 c 128,-1,3
 524 313 524 313 524 237 c 0,4,5
 524 158 524 158 483.5 100 c 128,-1,6
 443 42 443 42 372.5 11.5 c 128,-1,7
 302 -19 302 -19 216 -19 c 0,8,9
 131 -19 131 -19 75.5 9 c 128,-1,10
 20 37 20 37 -19 89 c 1,11,-1
 84 177 l 1,12,13
 115 145 115 145 144 131 c 128,-1,14
 173 117 173 117 215 117 c 0,15,16
 268 117 268 117 302.5 147.5 c 128,-1,17
 337 178 337 178 337 229 c 0,18,19
 337 268 337 268 311 285 c 128,-1,20
 285 302 285 302 236 302 c 2,21,-1
 134 302 l 1,22,-1
 148 402 l 1,23,-1
 327 563 l 1,24,-1
 89 563 l 1,25,-1
 107 695 l 1,26,-1
 551 695 l 1,27,-1
 534 567 l 1,0,-1
EndSplineSet
Substitution2: "'c2sc' Capitals to Small Capitals lookup 27 subtable" uni0292.sc
Substitution2: "'aalt' Access All Alternates lookup 0 subtable" uni0292.sc
Position2: "'cpsp' Capital Spacing lookup 0 subtable" dx=5 dy=0 dh=10 dv=0
EndChar

StartChar: uni01B8
Encoding: 440 440 95
Width: 553
GlyphClass: 2
Flags: W
AnchorPoint: "Anchor-18" 0 0 basechar 0
AnchorPoint: "Anchor-17" 0 0 basechar 0
AnchorPoint: "Anchor-16" 338 695 basechar 0
AnchorPoint: "Anchor-15" 0 0 basechar 0
AnchorPoint: "Anchor-14" 240 0 basechar 0
LayerCount: 2
Fore
SplineSet
544 563 m 1,0,-1
 297 563 l 1,1,-1
 440 399 l 1,2,-1
 427 302 l 1,3,-1
 425 303 l 1,4,-1
 426 302 l 1,5,-1
 327 302 l 2,6,7
 268 302 268 302 233.5 272.5 c 128,-1,8
 199 243 199 243 199 190 c 0,9,10
 199 155 199 155 221 136 c 128,-1,11
 243 117 243 117 282 117 c 0,12,13
 326 117 326 117 362.5 131.5 c 128,-1,14
 399 146 399 146 439 179 c 1,15,-1
 521 87 l 1,16,17
 469 35 469 35 405.5 8 c 128,-1,18
 342 -19 342 -19 258 -19 c 0,19,20
 140 -19 140 -19 75 36 c 128,-1,21
 10 91 10 91 10 184 c 0,22,23
 10 247 10 247 41.5 296 c 128,-1,24
 73 345 73 345 127 373.5 c 128,-1,25
 181 402 181 402 248 405 c 1,26,-1
 102 567 l 1,27,-1
 119 695 l 1,28,-1
 563 695 l 1,29,-1
 544 563 l 1,0,-1
EndSplineSet
Substitution2: "'c2sc' Capitals to Small Capitals lookup 27 subtable" uni01B9.sc
Substitution2: "'aalt' Access All Alternates lookup 0 subtable" uni01B9.sc
Position2: "'cpsp' Capital Spacing lookup 0 subtable" dx=5 dy=0 dh=10 dv=0
EndChar

StartChar: F
Encoding: 70 70 96
Width: 477
GlyphClass: 2
Flags: W
AnchorPoint: "Anchor-18" 0 0 basechar 0
AnchorPoint: "Anchor-17" 0 0 basechar 0
AnchorPoint: "Anchor-16" 324 695 basechar 0
AnchorPoint: "Anchor-15" 0 0 basechar 0
AnchorPoint: "Anchor-14" 107 0 basechar 0
LayerCount: 2
Fore
SplineSet
534 695 m 1,0,-1
 497 564 l 1,1,-1
 277 564 l 1,2,-1
 254 397 l 1,3,-1
 447 397 l 1,4,-1
 429 266 l 1,5,-1
 236 266 l 1,6,-1
 198 0 l 1,7,-1
 16 0 l 1,8,-1
 113 695 l 1,9,-1
 534 695 l 1,0,-1
EndSplineSet
Substitution2: "'c2sc' Capitals to Small Capitals lookup 27 subtable" f.sc
Substitution2: "'aalt' Access All Alternates lookup 0 subtable" f.sc
Position2: "'cpsp' Capital Spacing lookup 0 subtable" dx=5 dy=0 dh=10 dv=0
EndChar

StartChar: uni0191
Encoding: 401 401 98
Width: 477
GlyphClass: 2
Flags: W
AnchorPoint: "Anchor-18" 0 0 basechar 0
AnchorPoint: "Anchor-17" 0 0 basechar 0
AnchorPoint: "Anchor-16" 324 695 basechar 0
AnchorPoint: "Anchor-15" 0 0 basechar 0
AnchorPoint: "Anchor-14" 107 0 basechar 0
LayerCount: 2
Fore
SplineSet
277 564 m 1,0,-1
 254 397 l 1,1,-1
 447 397 l 1,2,-1
 429 266 l 1,3,-1
 236 266 l 1,4,-1
 198 0 l 1,5,-1
 194 -26 l 2,6,7
 178 -124 178 -124 116 -174 c 128,-1,8
 54 -224 54 -224 -43 -224 c 0,9,10
 -131 -224 -131 -224 -186 -180 c 1,11,-1
 -114 -73 l 1,12,13
 -96 -83 -96 -83 -83 -87.5 c 128,-1,14
 -70 -92 -70 -92 -51 -92 c 0,15,16
 2 -92 2 -92 11 -34 c 2,17,-1
 16 0 l 1,18,-1
 113 695 l 1,19,-1
 534 695 l 1,20,-1
 497 564 l 1,21,-1
 277 564 l 1,0,-1
EndSplineSet
Substitution2: "'c2sc' Capitals to Small Capitals lookup 27 subtable" uni0191.sc
Substitution2: "'aalt' Access All Alternates lookup 0 subtable" uni0191.sc
Position2: "'cpsp' Capital Spacing lookup 0 subtable" dx=5 dy=0 dh=10 dv=0
EndChar

StartChar: G
Encoding: 71 71 99
Width: 637
GlyphClass: 2
Flags: W
AnchorPoint: "Anchor-18" 0 0 basechar 0
AnchorPoint: "Anchor-17" 0 0 basechar 0
AnchorPoint: "Anchor-16" 409 695 basechar 0
AnchorPoint: "Anchor-15" 0 0 basechar 0
AnchorPoint: "Anchor-14" 305 0 basechar 0
LayerCount: 2
Fore
SplineSet
550 688.5 m 128,-1,1
 606 664 606 664 645 622 c 1,2,-1
 545 532 l 1,3,4
 513 558 513 558 484.5 569.5 c 128,-1,5
 456 581 456 581 418 581 c 0,6,7
 344 581 344 581 299 530 c 128,-1,8
 254 479 254 479 236 402.5 c 128,-1,9
 218 326 218 326 218 244 c 0,10,11
 218 174 218 174 242.5 144.5 c 128,-1,12
 267 115 267 115 318 115 c 0,13,14
 360 115 360 115 404 134 c 1,15,-1
 424 276 l 1,16,-1
 345 276 l 1,17,-1
 347 404 l 1,18,-1
 618 404 l 1,19,-1
 570 57 l 1,20,21
 512 21 512 21 443 1 c 128,-1,22
 374 -19 374 -19 309 -19 c 0,23,24
 169 -19 169 -19 100 51.5 c 128,-1,25
 31 122 31 122 31 259 c 0,26,27
 31 373 31 373 71.5 476.5 c 128,-1,28
 112 580 112 580 199.5 646.5 c 128,-1,29
 287 713 287 713 421 713 c 0,30,0
 494 713 494 713 550 688.5 c 128,-1,1
EndSplineSet
Substitution2: "'c2sc' Capitals to Small Capitals lookup 27 subtable" g.sc
Substitution2: "'aalt' Access All Alternates lookup 0 subtable" g.sc
Position2: "'cpsp' Capital Spacing lookup 0 subtable" dx=5 dy=0 dh=10 dv=0
EndChar

StartChar: uni0194
Encoding: 404 404 101
Width: 565
GlyphClass: 2
Flags: W
AnchorPoint: "Anchor-18" 0 0 basechar 0
AnchorPoint: "Anchor-17" 0 0 basechar 0
AnchorPoint: "Anchor-16" 342 695 basechar 0
AnchorPoint: "Anchor-15" 0 0 basechar 0
AnchorPoint: "Anchor-14" 0 0 basechar 0
LayerCount: 2
Fore
SplineSet
348 92 m 1,0,1
 372 42 372 42 383.5 7 c 128,-1,2
 395 -28 395 -28 395 -67 c 0,3,4
 395 -143 395 -143 348.5 -183.5 c 128,-1,5
 302 -224 302 -224 218 -224 c 0,6,7
 146 -224 146 -224 111 -191.5 c 128,-1,8
 76 -159 76 -159 76 -101 c 0,9,10
 76 -54 76 -54 99 -7.5 c 128,-1,11
 122 39 122 39 169 99 c 1,12,-1
 41 695 l 1,13,-1
 231 695 l 1,14,-1
 276 218 l 1,15,-1
 456 695 l 1,16,-1
 645 695 l 1,17,-1
 348 92 l 1,0,1
249 7 m 1,19,20
 207 -51 207 -51 207 -88 c 0,21,22
 207 -112 207 -112 230 -112 c 0,23,24
 247 -112 247 -112 255.5 -101 c 128,-1,25
 264 -90 264 -90 264 -71 c 0,26,18
 264 -37 264 -37 249 7 c 1,19,20
EndSplineSet
Substitution2: "'c2sc' Capitals to Small Capitals lookup 27 subtable" uni0194.sc
Substitution2: "'aalt' Access All Alternates lookup 0 subtable" uni0194.sc
Position2: "'cpsp' Capital Spacing lookup 0 subtable" dx=5 dy=0 dh=10 dv=0
EndChar

StartChar: uni0193
Encoding: 403 403 107
Width: 618
GlyphClass: 2
Flags: W
AnchorPoint: "Anchor-18" 0 0 basechar 0
AnchorPoint: "Anchor-17" 0 0 basechar 0
AnchorPoint: "Anchor-16" 369 734 basechar 0
AnchorPoint: "Anchor-15" 0 0 basechar 0
AnchorPoint: "Anchor-14" 271 0 basechar 0
LayerCount: 2
Fore
SplineSet
830 819 m 1,1,-1
 768 711 l 1,2,3
 736 728 736 728 707 728 c 0,4,5
 657 728 657 728 650 669 c 2,6,-1
 645 622 l 1,7,-1
 554 540 l 1,8,9
 489 581 489 581 417 581 c 0,10,11
 343 581 343 581 298 530 c 128,-1,12
 253 479 253 479 235 402.5 c 128,-1,13
 217 326 217 326 217 244 c 0,14,15
 217 174 217 174 241.5 144.5 c 128,-1,16
 266 115 266 115 317 115 c 0,17,18
 359 115 359 115 403 134 c 1,19,-1
 423 276 l 1,20,-1
 345 276 l 1,21,-1
 346 404 l 1,22,-1
 617 404 l 1,23,-1
 569 57 l 1,24,25
 512 21 512 21 442.5 1 c 128,-1,26
 373 -19 373 -19 308 -19 c 0,27,28
 168 -19 168 -19 99 51.5 c 128,-1,29
 30 122 30 122 30 259 c 0,30,31
 30 369 30 369 73 474 c 128,-1,32
 116 579 116 579 200.5 646 c 128,-1,33
 285 713 285 713 403 713 c 0,34,35
 461 713 461 713 503 695 c 1,36,37
 515 773 515 773 563.5 815 c 128,-1,38
 612 857 612 857 696 857 c 0,39,0
 773 857 773 857 830 819 c 1,1,-1
EndSplineSet
Substitution2: "'c2sc' Capitals to Small Capitals lookup 27 subtable" uni0260.sc
Substitution2: "'aalt' Access All Alternates lookup 0 subtable" uni0260.sc
Position2: "'cpsp' Capital Spacing lookup 0 subtable" dx=5 dy=0 dh=10 dv=0
EndChar

StartChar: uni0241
Encoding: 577 577 108
Width: 522
GlyphClass: 2
Flags: W
AnchorPoint: "Anchor-18" 0 0 basechar 0
AnchorPoint: "Anchor-17" 0 0 basechar 0
AnchorPoint: "Anchor-16" 321 695 basechar 0
AnchorPoint: "Anchor-15" 0 0 basechar 0
AnchorPoint: "Anchor-14" 204 0 basechar 0
LayerCount: 2
Fore
SplineSet
159 334 m 1,0,-1
 210 348 l 2,1,2
 278 368 278 368 312.5 404.5 c 128,-1,3
 347 441 347 441 347 502 c 0,4,5
 347 540 347 540 327.5 560.5 c 128,-1,6
 308 581 308 581 269 581 c 0,7,8
 234 581 234 581 202.5 567.5 c 128,-1,9
 171 554 171 554 134 526 c 1,10,-1
 57 620 l 1,11,12
 111 667 111 667 169.5 690 c 128,-1,13
 228 713 228 713 304 713 c 0,14,15
 412 713 412 713 473.5 660 c 128,-1,16
 535 607 535 607 535 514 c 0,17,18
 535 344 535 344 363 290 c 1,19,-1
 335 280 l 1,20,-1
 295 0 l 1,21,-1
 113 0 l 1,22,-1
 159 334 l 1,0,-1
EndSplineSet
Substitution2: "'c2sc' Capitals to Small Capitals lookup 27 subtable" uni0294.sc
Substitution2: "'aalt' Access All Alternates lookup 0 subtable" uni0294.sc
Position2: "'cpsp' Capital Spacing lookup 0 subtable" dx=5 dy=0 dh=10 dv=0
EndChar

StartChar: uni01E4
Encoding: 484 484 109
Width: 673
GlyphClass: 2
Flags: W
AnchorPoint: "Anchor-18" 0 0 basechar 0
AnchorPoint: "Anchor-17" 0 0 basechar 0
AnchorPoint: "Anchor-16" 397 695 basechar 0
AnchorPoint: "Anchor-15" 0 0 basechar 0
AnchorPoint: "Anchor-14" 299 0 basechar 0
LayerCount: 2
Fore
SplineSet
652 178 m 1,0,-1
 587 178 l 1,1,-1
 570 57 l 1,2,3
 512 21 512 21 443 1 c 128,-1,4
 374 -19 374 -19 309 -19 c 0,5,6
 169 -19 169 -19 100 51.5 c 128,-1,7
 31 122 31 122 31 259 c 0,8,9
 31 373 31 373 71.5 476.5 c 128,-1,10
 112 580 112 580 199.5 646.5 c 128,-1,11
 287 713 287 713 421 713 c 0,12,13
 494 713 494 713 550 688.5 c 128,-1,14
 606 664 606 664 645 622 c 1,15,-1
 541 529 l 1,16,17
 512 557 512 557 484.5 569 c 128,-1,18
 457 581 457 581 418 581 c 0,19,20
 344 581 344 581 299 530 c 128,-1,21
 254 479 254 479 236 402.5 c 128,-1,22
 218 326 218 326 218 244 c 0,23,24
 218 174 218 174 242.5 144.5 c 128,-1,25
 267 115 267 115 318 115 c 0,26,27
 368 115 368 115 412 134 c 1,28,-1
 418 178 l 1,29,-1
 327 178 l 1,30,-1
 341 279 l 1,31,-1
 431 279 l 1,32,-1
 436 317 l 1,33,-1
 349 317 l 1,34,-1
 349 424 l 1,35,-1
 621 424 l 1,36,-1
 601 279 l 1,37,-1
 665 279 l 1,38,-1
 652 178 l 1,0,-1
EndSplineSet
Substitution2: "'c2sc' Capitals to Small Capitals lookup 27 subtable" uni01E5.sc
Substitution2: "'aalt' Access All Alternates lookup 0 subtable" uni01E5.sc
Position2: "'cpsp' Capital Spacing lookup 0 subtable" dx=5 dy=0 dh=10 dv=0
EndChar

StartChar: uni021C
Encoding: 540 540 110
Width: 516
GlyphClass: 2
Flags: W
AnchorPoint: "Anchor-18" 0 0 basechar 0
AnchorPoint: "Anchor-17" 0 0 basechar 0
AnchorPoint: "Anchor-16" 317 695 basechar 0
AnchorPoint: "Anchor-15" 0 0 basechar 0
AnchorPoint: "Anchor-14" 0 0 basechar 0
LayerCount: 2
Fore
SplineSet
453.5 664.5 m 128,-1,1
 512 616 512 616 512 537 c 0,2,3
 512 398 512 398 333 357 c 1,4,5
 407 355 407 355 448.5 319 c 128,-1,6
 490 283 490 283 490 217 c 0,7,8
 490 88 490 88 357 4 c 128,-1,9
 224 -80 224 -80 17 -117 c 1,10,-1
 20 15 l 1,11,12
 158 52 158 52 229 98.5 c 128,-1,13
 300 145 300 145 300 221 c 0,14,15
 300 258 300 258 276 274.5 c 128,-1,16
 252 291 252 291 199 291 c 2,17,-1
 125 291 l 1,18,-1
 162 420 l 1,19,-1
 218 420 l 2,20,21
 269 420 269 420 297.5 447 c 128,-1,22
 326 474 326 474 326 520 c 0,23,24
 326 581 326 581 257 581 c 0,25,26
 190 581 190 581 118 528 c 1,27,-1
 44 620 l 1,28,29
 153 713 153 713 294 713 c 0,30,0
 395 713 395 713 453.5 664.5 c 128,-1,1
EndSplineSet
Substitution2: "'c2sc' Capitals to Small Capitals lookup 27 subtable" uni021D.sc
Substitution2: "'aalt' Access All Alternates lookup 0 subtable" uni021D.sc
Position2: "'cpsp' Capital Spacing lookup 0 subtable" dx=5 dy=0 dh=10 dv=0
EndChar

StartChar: H
Encoding: 72 72 111
Width: 650
GlyphClass: 2
Flags: W
AnchorPoint: "Anchor-18" 337 347 basechar 0
AnchorPoint: "Anchor-17" 0 0 basechar 0
AnchorPoint: "Anchor-16" 385 695 basechar 0
AnchorPoint: "Anchor-15" 0 0 basechar 0
AnchorPoint: "Anchor-14" 288 0 basechar 0
LayerCount: 2
Fore
SplineSet
198 0 m 1,0,-1
 16 0 l 1,1,-1
 113 695 l 1,2,-1
 295 695 l 1,3,-1
 258 432 l 1,4,-1
 437 432 l 1,5,-1
 474 695 l 1,6,-1
 656 695 l 1,7,-1
 559 0 l 1,8,-1
 377 0 l 1,9,-1
 416 289 l 1,10,-1
 239 289 l 1,11,-1
 198 0 l 1,0,-1
EndSplineSet
Substitution2: "'c2sc' Capitals to Small Capitals lookup 27 subtable" h.sc
Substitution2: "'aalt' Access All Alternates lookup 0 subtable" h.sc
Position2: "'cpsp' Capital Spacing lookup 0 subtable" dx=5 dy=0 dh=10 dv=0
EndChar

StartChar: Hbar
Encoding: 294 294 112
Width: 671
GlyphClass: 2
Flags: W
AnchorPoint: "Anchor-18" 346 347 basechar 0
AnchorPoint: "Anchor-17" 0 0 basechar 0
AnchorPoint: "Anchor-16" 394 695 basechar 0
AnchorPoint: "Anchor-15" 0 0 basechar 0
AnchorPoint: "Anchor-14" 297 0 basechar 0
LayerCount: 2
Fore
SplineSet
705 597 m 1,0,-1
 691 497 l 1,1,-1
 637 497 l 1,2,-1
 568 0 l 1,3,-1
 386 0 l 1,4,-1
 425 289 l 1,5,-1
 248 289 l 1,6,-1
 207 0 l 1,7,-1
 25 0 l 1,8,-1
 94 497 l 1,9,-1
 42 497 l 1,10,-1
 56 597 l 1,11,-1
 108 597 l 1,12,-1
 122 695 l 1,13,-1
 304 695 l 1,14,-1
 290 597 l 1,15,-1
 469 597 l 1,16,-1
 483 695 l 1,17,-1
 665 695 l 1,18,-1
 651 597 l 1,19,-1
 705 597 l 1,0,-1
446 432 m 1,20,-1
 455 497 l 1,21,-1
 276 497 l 1,22,-1
 267 432 l 1,23,-1
 446 432 l 1,20,-1
EndSplineSet
Substitution2: "'c2sc' Capitals to Small Capitals lookup 27 subtable" hbar.sc
Substitution2: "'aalt' Access All Alternates lookup 0 subtable" hbar.sc
Position2: "'cpsp' Capital Spacing lookup 0 subtable" dx=5 dy=0 dh=10 dv=0
EndChar

StartChar: uniA7AA
Encoding: 42922 42922 116
Width: 808
GlyphClass: 2
Flags: W
AnchorPoint: "Anchor-18" 495 347 basechar 0
AnchorPoint: "Anchor-17" 0 0 basechar 0
AnchorPoint: "Anchor-16" 543 695 basechar 0
AnchorPoint: "Anchor-15" 0 0 basechar 0
AnchorPoint: "Anchor-14" 446 0 basechar 0
LayerCount: 2
Fore
SplineSet
814 695 m 1,0,-1
 717 0 l 1,1,-1
 535 0 l 1,2,-1
 574 289 l 1,3,-1
 397 289 l 1,4,-1
 356 0 l 1,5,-1
 174 0 l 1,6,-1
 253 564 l 1,7,-1
 227 564 l 2,8,9
 203 564 203 564 190 550.5 c 128,-1,10
 177 537 177 537 177 511 c 0,11,12
 177 495 177 495 180 480 c 128,-1,13
 183 465 183 465 184 461 c 1,14,-1
 64 415 l 1,15,16
 39 467 39 467 39 515 c 0,17,18
 39 598 39 598 94 646.5 c 128,-1,19
 149 695 149 695 240 695 c 2,20,-1
 453 695 l 1,21,-1
 416 432 l 1,22,-1
 595 432 l 1,23,-1
 632 695 l 1,24,-1
 814 695 l 1,0,-1
EndSplineSet
Substitution2: "'c2sc' Capitals to Small Capitals lookup 27 subtable" uniA7AA.sc
Substitution2: "'aalt' Access All Alternates lookup 0 subtable" uniA7AA.sc
Position2: "'cpsp' Capital Spacing lookup 0 subtable" dx=5 dy=0 dh=10 dv=0
EndChar

StartChar: uni01F6
Encoding: 502 502 118
Width: 927
GlyphClass: 2
Flags: W
AnchorPoint: "Anchor-18" 0 0 basechar 0
AnchorPoint: "Anchor-17" 0 0 basechar 0
AnchorPoint: "Anchor-16" 524 695 basechar 0
AnchorPoint: "Anchor-15" 0 0 basechar 0
AnchorPoint: "Anchor-14" 426 0 basechar 0
LayerCount: 2
Fore
SplineSet
453.5 29 m 128,-1,1
 401 77 401 77 401 151 c 0,2,3
 401 161 401 161 403 179 c 2,4,-1
 417 289 l 1,5,-1
 239 289 l 1,6,-1
 198 0 l 1,7,-1
 16 0 l 1,8,-1
 113 695 l 1,9,-1
 295 695 l 1,10,-1
 258 432 l 1,11,-1
 438 432 l 1,12,-1
 475 695 l 1,13,-1
 657 695 l 1,14,-1
 586 186 l 2,15,16
 584 168 584 168 584 160 c 0,17,18
 584 111 584 111 622 111 c 0,19,20
 687 111 687 111 711.5 216.5 c 128,-1,21
 736 322 736 322 736 448 c 0,22,23
 736 494 736 494 732 533 c 1,24,-1
 898 533 l 1,25,26
 906 480 906 480 906 421 c 0,27,28
 906 284 906 284 881 188.5 c 128,-1,29
 856 93 856 93 789.5 37 c 128,-1,30
 723 -19 723 -19 605 -19 c 0,31,0
 506 -19 506 -19 453.5 29 c 128,-1,1
EndSplineSet
Substitution2: "'c2sc' Capitals to Small Capitals lookup 27 subtable" uni01F6.sc
Substitution2: "'aalt' Access All Alternates lookup 0 subtable" uni01F6.sc
Position2: "'cpsp' Capital Spacing lookup 0 subtable" dx=5 dy=0 dh=10 dv=0
EndChar

StartChar: I
Encoding: 73 73 119
Width: 290
GlyphClass: 2
Flags: W
AnchorPoint: "Anchor-18" 0 0 basechar 0
AnchorPoint: "Anchor-17" 0 0 basechar 0
AnchorPoint: "Anchor-16" 204 695 basechar 0
AnchorPoint: "Anchor-15" 168 0 basechar 0
AnchorPoint: "Anchor-14" 107 0 basechar 0
LayerCount: 2
Fore
SplineSet
295 695 m 1,0,-1
 198 0 l 1,1,-1
 16 0 l 1,2,-1
 113 695 l 1,3,-1
 295 695 l 1,0,-1
EndSplineSet
Substitution2: "'c2sc' Capitals to Small Capitals lookup 27 subtable" i.sc
Substitution2: "'aalt' Access All Alternates lookup 0 subtable" i.sc
Position2: "'cpsp' Capital Spacing lookup 0 subtable" dx=5 dy=0 dh=10 dv=0
EndChar

StartChar: Iogonek
Encoding: 302 302 134
Width: 290
GlyphClass: 2
Flags: W
AnchorPoint: "Anchor-18" 0 0 basechar 0
AnchorPoint: "Anchor-17" 0 0 basechar 0
AnchorPoint: "Anchor-16" 204 695 basechar 0
AnchorPoint: "Anchor-15" 168 0 basechar 0
AnchorPoint: "Anchor-14" 107 0 basechar 0
LayerCount: 2
Fore
SplineSet
295 695 m 1,0,-1
 198 0 l 1,1,-1
 160 0 l 1,2,3
 84 -26 84 -26 56.5 -55 c 128,-1,4
 29 -84 29 -84 29 -110 c 0,5,6
 29 -143 29 -143 72 -143 c 0,7,8
 98 -143 98 -143 135 -135 c 1,9,-1
 111 -242 l 1,10,11
 76 -250 76 -250 40 -250 c 0,12,13
 -21 -250 -21 -250 -59.5 -221 c 128,-1,14
 -98 -192 -98 -192 -98 -142 c 0,15,16
 -98 -47 -98 -47 18 12 c 1,17,-1
 113 695 l 1,18,-1
 295 695 l 1,0,-1
EndSplineSet
Substitution2: "'c2sc' Capitals to Small Capitals lookup 27 subtable" iogonek.sc
Substitution2: "'aalt' Access All Alternates lookup 0 subtable" iogonek.sc
Position2: "'cpsp' Capital Spacing lookup 0 subtable" dx=5 dy=0 dh=10 dv=0
EndChar

StartChar: uni0196
Encoding: 406 406 135
Width: 389
GlyphClass: 2
Flags: W
AnchorPoint: "Anchor-18" 0 0 basechar 0
AnchorPoint: "Anchor-17" 0 0 basechar 0
AnchorPoint: "Anchor-16" 195 695 basechar 0
AnchorPoint: "Anchor-15" 0 0 basechar 0
AnchorPoint: "Anchor-14" 153 0 basechar 0
LayerCount: 2
Fore
SplineSet
369 24 m 1,0,1
 307 -18 307 -18 218 -18 c 0,2,3
 130 -18 130 -18 79.5 24 c 128,-1,4
 29 66 29 66 29 146 c 0,5,6
 29 165 29 165 32 184 c 2,7,-1
 35 206 l 1,8,-1
 104 695 l 1,9,-1
 286 695 l 1,10,-1
 217 206 l 1,11,-1
 218 206 l 1,12,-1
 213 169 l 2,13,14
 212 163 212 163 212 154 c 0,15,16
 212 114 212 114 253 114 c 0,17,18
 273 114 273 114 288.5 118.5 c 128,-1,19
 304 123 304 123 324 133 c 1,20,-1
 369 24 l 1,0,1
EndSplineSet
Substitution2: "'c2sc' Capitals to Small Capitals lookup 27 subtable" uni0196.sc
Substitution2: "'aalt' Access All Alternates lookup 0 subtable" uni0196.sc
Position2: "'cpsp' Capital Spacing lookup 0 subtable" dx=5 dy=0 dh=10 dv=0
EndChar

StartChar: uni0197
Encoding: 407 407 136
Width: 335
GlyphClass: 2
Flags: W
AnchorPoint: "Anchor-18" 0 0 basechar 0
AnchorPoint: "Anchor-17" 0 0 basechar 0
AnchorPoint: "Anchor-16" 228 695 basechar 0
AnchorPoint: "Anchor-15" 192 0 basechar 0
AnchorPoint: "Anchor-14" 131 0 basechar 0
LayerCount: 2
Fore
SplineSet
352 427 m 1,0,-1
 334 293 l 1,1,-1
 263 293 l 1,2,-1
 222 0 l 1,3,-1
 40 0 l 1,4,-1
 81 293 l 1,5,-1
 10 293 l 1,6,-1
 28 427 l 1,7,-1
 100 427 l 1,8,-1
 137 695 l 1,9,-1
 319 695 l 1,10,-1
 282 427 l 1,11,-1
 352 427 l 1,0,-1
EndSplineSet
Substitution2: "'c2sc' Capitals to Small Capitals lookup 27 subtable" uni0268.sc
Substitution2: "'aalt' Access All Alternates lookup 0 subtable" uni0268.sc
Position2: "'cpsp' Capital Spacing lookup 0 subtable" dx=5 dy=0 dh=10 dv=0
EndChar

StartChar: J
Encoding: 74 74 138
Width: 314
GlyphClass: 2
Flags: W
AnchorPoint: "Anchor-18" 0 0 basechar 0
AnchorPoint: "Anchor-17" 0 0 basechar 0
AnchorPoint: "Anchor-16" 231 695 basechar 0
AnchorPoint: "Anchor-15" 0 0 basechar 0
AnchorPoint: "Anchor-14" 0 0 basechar 0
LayerCount: 2
Fore
SplineSet
241 107 m 2,0,1
 228 20 228 20 188.5 -36.5 c 128,-1,2
 149 -93 149 -93 95 -125 c 128,-1,3
 41 -157 41 -157 -31 -180 c 1,4,-1
 -64 -48 l 1,5,6
 -19 -32 -19 -32 6 -9.5 c 128,-1,7
 31 13 31 13 42 42 c 128,-1,8
 53 71 53 71 59 116 c 2,9,-1
 140 695 l 1,10,-1
 322 695 l 1,11,-1
 241 107 l 2,0,1
EndSplineSet
Substitution2: "'c2sc' Capitals to Small Capitals lookup 27 subtable" j.sc
Substitution2: "'aalt' Access All Alternates lookup 0 subtable" j.sc
Position2: "'cpsp' Capital Spacing lookup 0 subtable" dx=5 dy=0 dh=10 dv=0
EndChar

StartChar: uniA7B2
Encoding: 42930 42930 140
Width: 365
GlyphClass: 2
Flags: W
AnchorPoint: "Anchor-18" 0 0 basechar 0
AnchorPoint: "Anchor-17" 0 0 basechar 0
AnchorPoint: "Anchor-16" 280 695 basechar 0
AnchorPoint: "Anchor-15" 0 0 basechar 0
AnchorPoint: "Anchor-14" 0 0 basechar 0
LayerCount: 2
Fore
SplineSet
273 -8 m 1,0,1
 320 -22 320 -22 364 -47 c 1,2,-1
 326 -116 l 1,3,4
 294 -99 294 -99 251 -87 c 1,5,6
 223 -157 223 -157 167.5 -190.5 c 128,-1,7
 112 -224 112 -224 19 -224 c 0,8,9
 -54 -224 -54 -224 -94 -193 c 128,-1,10
 -134 -162 -134 -162 -134 -106 c 0,11,12
 -134 -43 -134 -43 -86 -9 c 128,-1,13
 -38 25 -38 25 35 25 c 0,14,15
 72 25 72 25 96 23 c 1,16,-1
 189 695 l 1,17,-1
 371 695 l 1,18,-1
 278 23 l 1,19,-1
 273 -8 l 1,0,1
59 -118.5 m 128,-1,21
 75 -101 75 -101 83 -59 c 1,22,23
 67 -56 67 -56 33 -56 c 0,24,25
 5 -56 5 -56 -11 -68.5 c 128,-1,26
 -27 -81 -27 -81 -27 -101 c 0,27,28
 -27 -118 -27 -118 -17 -127 c 128,-1,29
 -7 -136 -7 -136 12 -136 c 0,30,20
 43 -136 43 -136 59 -118.5 c 128,-1,21
EndSplineSet
Substitution2: "'c2sc' Capitals to Small Capitals lookup 27 subtable" uniA7B2.sc
Substitution2: "'aalt' Access All Alternates lookup 0 subtable" uniA7B2.sc
Position2: "'cpsp' Capital Spacing lookup 0 subtable" dx=5 dy=0 dh=10 dv=0
EndChar

StartChar: uni0248
Encoding: 584 584 141
Width: 334
GlyphClass: 2
Flags: W
AnchorPoint: "Anchor-18" 0 0 basechar 0
AnchorPoint: "Anchor-17" 0 0 basechar 0
AnchorPoint: "Anchor-16" 231 695 basechar 0
AnchorPoint: "Anchor-15" 0 0 basechar 0
AnchorPoint: "Anchor-14" 0 0 basechar 0
LayerCount: 2
Fore
SplineSet
335 275 m 1,0,-1
 264 275 l 1,1,-1
 241 107 l 2,2,3
 228 20 228 20 188.5 -36.5 c 128,-1,4
 149 -93 149 -93 95 -125 c 128,-1,5
 41 -157 41 -157 -31 -180 c 1,6,-1
 -64 -48 l 1,7,8
 -19 -32 -19 -32 6 -9.5 c 128,-1,9
 31 13 31 13 42 42 c 128,-1,10
 53 71 53 71 59 116 c 2,11,-1
 81 275 l 1,12,-1
 11 275 l 1,13,-1
 29 411 l 1,14,-1
 100 411 l 1,15,-1
 140 695 l 1,16,-1
 322 695 l 1,17,-1
 283 411 l 1,18,-1
 353 411 l 1,19,-1
 335 275 l 1,0,-1
EndSplineSet
Substitution2: "'c2sc' Capitals to Small Capitals lookup 27 subtable" uni0249.sc
Substitution2: "'aalt' Access All Alternates lookup 0 subtable" uni0249.sc
Position2: "'cpsp' Capital Spacing lookup 0 subtable" dx=5 dy=0 dh=10 dv=0
EndChar

StartChar: K
Encoding: 75 75 142
Width: 635
GlyphClass: 2
Flags: W
AnchorPoint: "Anchor-18" 0 0 basechar 0
AnchorPoint: "Anchor-17" 0 0 basechar 0
AnchorPoint: "Anchor-16" 385 695 basechar 0
AnchorPoint: "Anchor-15" 0 0 basechar 0
AnchorPoint: "Anchor-14" 286 0 basechar 0
LayerCount: 2
Fore
SplineSet
16 0 m 1,0,-1
 113 695 l 1,1,-1
 296 695 l 1,2,-1
 199 0 l 1,3,-1
 16 0 l 1,0,-1
408 0 m 1,4,-1
 256 370 l 1,5,-1
 502 695 l 1,6,-1
 694 695 l 1,7,-1
 443 375 l 1,8,-1
 615 0 l 1,9,-1
 408 0 l 1,4,-1
EndSplineSet
Substitution2: "'c2sc' Capitals to Small Capitals lookup 27 subtable" k.sc
Substitution2: "'aalt' Access All Alternates lookup 0 subtable" k.sc
Position2: "'cpsp' Capital Spacing lookup 0 subtable" dx=5 dy=0 dh=10 dv=0
EndChar

StartChar: uni0198
Encoding: 408 408 145
Width: 654
GlyphClass: 2
Flags: W
AnchorPoint: "Anchor-18" 0 0 basechar 0
AnchorPoint: "Anchor-17" 0 0 basechar 0
AnchorPoint: "Anchor-16" 387 695 basechar 0
AnchorPoint: "Anchor-15" 0 0 basechar 0
AnchorPoint: "Anchor-14" 289 0 basechar 0
LayerCount: 2
Fore
SplineSet
256 370 m 1,0,-1
 419 594 l 2,1,2
 466 661 466 661 507.5 687 c 128,-1,3
 549 713 549 713 613 713 c 0,4,5
 652 713 652 713 679 702.5 c 128,-1,6
 706 692 706 692 728 673 c 1,7,-1
 669 573 l 1,8,9
 649 583 649 583 631 583 c 0,10,11
 612 583 612 583 598 573 c 128,-1,12
 584 563 584 563 560 532 c 2,13,-1
 444 375 l 1,14,-1
 615 0 l 1,15,-1
 408 0 l 1,16,-1
 256 370 l 1,0,-1
16 0 m 1,17,-1
 113 695 l 1,18,-1
 296 695 l 1,19,-1
 199 0 l 1,20,-1
 16 0 l 1,17,-1
EndSplineSet
Substitution2: "'c2sc' Capitals to Small Capitals lookup 27 subtable" uni0199.sc
Substitution2: "'aalt' Access All Alternates lookup 0 subtable" uni0199.sc
Position2: "'cpsp' Capital Spacing lookup 0 subtable" dx=5 dy=0 dh=10 dv=0
EndChar

StartChar: L
Encoding: 76 76 146
Width: 510
GlyphClass: 2
Flags: W
AnchorPoint: "Anchor-18" 413 401 basechar 0
AnchorPoint: "Anchor-17" 316 695 basechar 0
AnchorPoint: "Anchor-16" 204 695 basechar 0
AnchorPoint: "Anchor-15" 0 0 basechar 0
AnchorPoint: "Anchor-14" 229 0 basechar 0
LayerCount: 2
Fore
SplineSet
295 695 m 1,0,-1
 219 144 l 1,1,-1
 480 144 l 1,2,-1
 441 0 l 1,3,-1
 16 0 l 1,4,-1
 113 695 l 1,5,-1
 295 695 l 1,0,-1
EndSplineSet
Substitution2: "'c2sc' Capitals to Small Capitals lookup 27 subtable" l.sc
Substitution2: "'aalt' Access All Alternates lookup 0 subtable" l.sc
Position2: "'cpsp' Capital Spacing lookup 0 subtable" dx=5 dy=0 dh=10 dv=0
EndChar

StartChar: uni023D
Encoding: 573 573 149
Width: 530
GlyphClass: 2
Flags: W
AnchorPoint: "Anchor-18" 433 401 basechar 0
AnchorPoint: "Anchor-17" 336 695 basechar 0
AnchorPoint: "Anchor-16" 224 695 basechar 0
AnchorPoint: "Anchor-15" 0 0 basechar 0
AnchorPoint: "Anchor-14" 249 0 basechar 0
LayerCount: 2
Fore
SplineSet
239 144 m 1,0,-1
 500 144 l 1,1,-1
 461 0 l 1,2,-1
 36 0 l 1,3,-1
 77 295 l 1,4,-1
 10 295 l 1,5,-1
 28 431 l 1,6,-1
 96 431 l 1,7,-1
 133 695 l 1,8,-1
 315 695 l 1,9,-1
 279 431 l 1,10,-1
 352 431 l 1,11,-1
 334 295 l 1,12,-1
 260 295 l 1,13,-1
 239 144 l 1,0,-1
EndSplineSet
Substitution2: "'c2sc' Capitals to Small Capitals lookup 27 subtable" uni019A.sc
Substitution2: "'aalt' Access All Alternates lookup 0 subtable" uni019A.sc
Position2: "'cpsp' Capital Spacing lookup 0 subtable" dx=5 dy=0 dh=10 dv=0
EndChar

StartChar: uniA7AD
Encoding: 42925 42925 150
Width: 628
GlyphClass: 2
Flags: W
AnchorPoint: "Anchor-18" 531 401 basechar 0
AnchorPoint: "Anchor-17" 434 695 basechar 0
AnchorPoint: "Anchor-16" 322 695 basechar 0
AnchorPoint: "Anchor-15" 0 0 basechar 0
AnchorPoint: "Anchor-14" 347 0 basechar 0
LayerCount: 2
Fore
SplineSet
598 144 m 1,0,-1
 559 0 l 1,1,-1
 134 0 l 1,2,-1
 169 250 l 1,3,4
 93 252 93 252 54 285.5 c 128,-1,5
 15 319 15 319 15 374 c 0,6,7
 15 435 15 435 56.5 470.5 c 128,-1,8
 98 506 98 506 165 506 c 0,9,10
 184 506 184 506 204 502 c 1,11,-1
 231 695 l 1,12,-1
 413 695 l 1,13,-1
 366 351 l 1,14,15
 417 353 417 353 472 361 c 1,16,-1
 473 267 l 1,17,18
 411 256 411 256 352 254 c 1,19,-1
 337 144 l 1,20,-1
 598 144 l 1,0,-1
183 348 m 1,22,-1
 192 414 l 1,23,24
 185 417 185 417 167 417 c 0,25,26
 151 417 151 417 141 407 c 128,-1,27
 131 397 131 397 131 382 c 0,28,21
 131 348 131 348 183 348 c 1,22,-1
EndSplineSet
Substitution2: "'c2sc' Capitals to Small Capitals lookup 27 subtable" uniA7AD.sc
Substitution2: "'aalt' Access All Alternates lookup 0 subtable" uniA7AD.sc
Position2: "'cpsp' Capital Spacing lookup 0 subtable" dx=5 dy=0 dh=10 dv=0
EndChar

StartChar: Lslash
Encoding: 321 321 157
Width: 551
GlyphClass: 2
Flags: W
AnchorPoint: "Anchor-18" 454 401 basechar 0
AnchorPoint: "Anchor-17" 357 695 basechar 0
AnchorPoint: "Anchor-16" 245 695 basechar 0
AnchorPoint: "Anchor-15" 0 0 basechar 0
AnchorPoint: "Anchor-14" 270 0 basechar 0
LayerCount: 2
Fore
SplineSet
260 144 m 1,0,-1
 521 144 l 1,1,-1
 482 0 l 1,2,-1
 57 0 l 1,3,-1
 87 213 l 1,4,-1
 48 191 l 1,5,-1
 4 286 l 1,6,-1
 105 345 l 1,7,-1
 154 695 l 1,8,-1
 336 695 l 1,9,-1
 304 460 l 1,10,-1
 430 533 l 1,11,-1
 475 439 l 1,12,-1
 285 329 l 1,13,-1
 260 144 l 1,0,-1
EndSplineSet
Substitution2: "'c2sc' Capitals to Small Capitals lookup 27 subtable" lslash.sc
Substitution2: "'aalt' Access All Alternates lookup 0 subtable" lslash.sc
Position2: "'cpsp' Capital Spacing lookup 0 subtable" dx=5 dy=0 dh=10 dv=0
EndChar

StartChar: M
Encoding: 77 77 158
Width: 776
GlyphClass: 2
Flags: W
AnchorPoint: "Anchor-18" 0 0 basechar 0
AnchorPoint: "Anchor-17" 0 0 basechar 0
AnchorPoint: "Anchor-16" 441 695 basechar 0
AnchorPoint: "Anchor-15" 0 0 basechar 0
AnchorPoint: "Anchor-14" 351 0 basechar 0
LayerCount: 2
Fore
SplineSet
715 0 m 1,0,-1
 536 0 l 1,1,-1
 563 260 l 2,2,3
 577 401 577 401 606 559 c 1,4,-1
 447 71 l 1,5,-1
 272 71 l 1,6,-1
 238 557 l 1,7,8
 235 467 235 467 228 399 c 128,-1,9
 221 331 221 331 208 257 c 2,10,-1
 165 0 l 1,11,-1
 -14 0 l 1,12,-1
 133 695 l 1,13,-1
 354 695 l 1,14,-1
 379 219 l 1,15,-1
 528 695 l 1,16,-1
 761 695 l 1,17,-1
 715 0 l 1,0,-1
EndSplineSet
Substitution2: "'c2sc' Capitals to Small Capitals lookup 27 subtable" m.sc
Substitution2: "'aalt' Access All Alternates lookup 0 subtable" m.sc
Position2: "'cpsp' Capital Spacing lookup 0 subtable" dx=5 dy=0 dh=10 dv=0
EndChar

StartChar: uni019C
Encoding: 412 412 161
Width: 895
GlyphClass: 2
Flags: W
AnchorPoint: "Anchor-18" 0 0 basechar 0
AnchorPoint: "Anchor-17" 0 0 basechar 0
AnchorPoint: "Anchor-16" 507 695 basechar 0
AnchorPoint: "Anchor-15" 0 0 basechar 0
AnchorPoint: "Anchor-14" 410 0 basechar 0
LayerCount: 2
Fore
SplineSet
901 695 m 1,0,-1
 804 0 l 1,1,-1
 644 0 l 1,2,-1
 640 64 l 1,3,4
 600 20 600 20 562 0.5 c 128,-1,5
 524 -19 524 -19 478 -19 c 0,6,7
 428 -19 428 -19 394.5 4.5 c 128,-1,8
 361 28 361 28 346 70 c 1,9,10
 306 24 306 24 262.5 2.5 c 128,-1,11
 219 -19 219 -19 170 -19 c 0,12,13
 102 -19 102 -19 65 23 c 128,-1,14
 28 65 28 65 28 135 c 0,15,16
 28 154 28 154 31 175 c 2,17,-1
 103 695 l 1,18,-1
 285 695 l 1,19,-1
 214 181 l 2,20,21
 213 175 213 175 213 164 c 0,22,23
 213 141 213 141 222.5 129 c 128,-1,24
 232 117 232 117 250 117 c 0,25,26
 273 117 273 117 293.5 131 c 128,-1,27
 314 145 314 145 339 175 c 1,28,-1
 411 695 l 1,29,-1
 593 695 l 1,30,-1
 522 181 l 2,31,32
 521 175 521 175 521 163 c 0,33,34
 521 141 521 141 530.5 129 c 128,-1,35
 540 117 540 117 558 117 c 0,36,37
 581 117 581 117 602 131.5 c 128,-1,38
 623 146 623 146 647 176 c 1,39,-1
 719 695 l 1,40,-1
 901 695 l 1,0,-1
EndSplineSet
Substitution2: "'c2sc' Capitals to Small Capitals lookup 27 subtable" uni026F.sc
Substitution2: "'aalt' Access All Alternates lookup 0 subtable" uni026F.sc
Position2: "'cpsp' Capital Spacing lookup 0 subtable" dx=5 dy=0 dh=10 dv=0
EndChar

StartChar: N
Encoding: 78 78 162
Width: 647
GlyphClass: 2
Flags: W
AnchorPoint: "Anchor-18" 0 0 basechar 0
AnchorPoint: "Anchor-17" 0 0 basechar 0
AnchorPoint: "Anchor-16" 386 695 basechar 0
AnchorPoint: "Anchor-15" 0 0 basechar 0
AnchorPoint: "Anchor-14" 287 0 basechar 0
LayerCount: 2
Fore
SplineSet
556 0 m 1,0,-1
 326 0 l 1,1,-1
 220 542 l 1,2,3
 223 491 223 491 223 435 c 0,4,5
 223 329 223 329 208 225 c 2,6,-1
 176 0 l 1,7,-1
 16 0 l 1,8,-1
 113 695 l 1,9,-1
 340 695 l 1,10,-1
 449 153 l 1,11,12
 445 208 445 208 445 270 c 0,13,14
 445 358 445 358 458 453 c 2,15,-1
 493 695 l 1,16,-1
 653 695 l 1,17,-1
 556 0 l 1,0,-1
EndSplineSet
Substitution2: "'c2sc' Capitals to Small Capitals lookup 27 subtable" n.sc
Substitution2: "'aalt' Access All Alternates lookup 0 subtable" n.sc
Position2: "'cpsp' Capital Spacing lookup 0 subtable" dx=5 dy=0 dh=10 dv=0
EndChar

StartChar: Eng
Encoding: 330 330 171
Width: 647
GlyphClass: 2
Flags: W
AnchorPoint: "Anchor-18" 0 0 basechar 0
AnchorPoint: "Anchor-17" 0 0 basechar 0
AnchorPoint: "Anchor-16" 386 695 basechar 0
AnchorPoint: "Anchor-15" 0 0 basechar 0
AnchorPoint: "Anchor-14" 287 0 basechar 0
LayerCount: 2
Fore
SplineSet
653 695 m 1,0,-1
 556 0 l 1,1,-1
 552 -26 l 2,2,3
 536 -124 536 -124 474 -174 c 128,-1,4
 412 -224 412 -224 315 -224 c 0,5,6
 227 -224 227 -224 172 -180 c 1,7,-1
 244 -73 l 1,8,9
 262 -83 262 -83 275 -87.5 c 128,-1,10
 288 -92 288 -92 307 -92 c 0,11,12
 360 -92 360 -92 369 -34 c 2,13,-1
 374 0 l 1,14,-1
 326 0 l 1,15,-1
 220 542 l 1,16,17
 223 491 223 491 223 435 c 0,18,19
 223 329 223 329 208 225 c 2,20,-1
 176 0 l 1,21,-1
 16 0 l 1,22,-1
 113 695 l 1,23,-1
 340 695 l 1,24,-1
 449 153 l 1,25,26
 445 208 445 208 445 270 c 0,27,28
 445 358 445 358 458 453 c 2,29,-1
 493 695 l 1,30,-1
 653 695 l 1,0,-1
EndSplineSet
Substitution2: "'ss01' Style Set 1 lookup 34 subtable" Eng.ss01
Substitution2: "'salt' Stylistic Alternatives lookup 33 subtable" Eng.ss01
Substitution2: "'c2sc' Capitals to Small Capitals lookup 27 subtable" eng.sc
AlternateSubs2: "'aalt' Access All Alternates lookup 1 subtable" eng.sc Eng.ss01
Position2: "'cpsp' Capital Spacing lookup 0 subtable" dx=5 dy=0 dh=10 dv=0
EndChar

StartChar: uni019D
Encoding: 413 413 172
Width: 647
GlyphClass: 2
Flags: W
AnchorPoint: "Anchor-18" 0 0 basechar 0
AnchorPoint: "Anchor-17" 0 0 basechar 0
AnchorPoint: "Anchor-16" 386 695 basechar 0
AnchorPoint: "Anchor-15" 0 0 basechar 0
AnchorPoint: "Anchor-14" 287 0 basechar 0
LayerCount: 2
Fore
SplineSet
653 695 m 1,0,-1
 556 0 l 1,1,-1
 326 0 l 1,2,-1
 220 542 l 1,3,4
 223 491 223 491 223 435 c 0,5,6
 223 329 223 329 208 225 c 2,7,-1
 176 0 l 1,8,-1
 172 -27 l 2,9,10
 157 -126 157 -126 102 -175 c 128,-1,11
 47 -224 47 -224 -43 -224 c 0,12,13
 -129 -224 -129 -224 -186 -180 c 1,14,-1
 -114 -79 l 1,15,16
 -96 -89 -96 -89 -82.5 -93.5 c 128,-1,17
 -69 -98 -69 -98 -51 -98 c 0,18,19
 2 -98 2 -98 12 -34 c 2,20,-1
 16 0 l 1,21,-1
 113 695 l 1,22,-1
 340 695 l 1,23,-1
 449 153 l 1,24,25
 445 208 445 208 445 270 c 0,26,27
 445 358 445 358 458 453 c 2,28,-1
 493 695 l 1,29,-1
 653 695 l 1,0,-1
EndSplineSet
Substitution2: "'ss01' Style Set 1 lookup 34 subtable" uni019D.ss01
Substitution2: "'salt' Stylistic Alternatives lookup 33 subtable" uni019D.ss01
Substitution2: "'c2sc' Capitals to Small Capitals lookup 27 subtable" uni0272.sc
AlternateSubs2: "'aalt' Access All Alternates lookup 1 subtable" uni0272.sc uni019D.ss01
Position2: "'cpsp' Capital Spacing lookup 0 subtable" dx=5 dy=0 dh=10 dv=0
EndChar

StartChar: uni0220
Encoding: 544 544 174
Width: 637
GlyphClass: 2
Flags: W
AnchorPoint: "Anchor-18" 0 0 basechar 0
AnchorPoint: "Anchor-17" 0 0 basechar 0
AnchorPoint: "Anchor-16" 384 695 basechar 0
AnchorPoint: "Anchor-15" 0 0 basechar 0
AnchorPoint: "Anchor-14" 0 0 basechar 0
LayerCount: 2
Fore
SplineSet
585.5 671 m 128,-1,1
 626 629 626 629 626 557 c 0,2,3
 626 541 626 541 623 521 c 2,4,-1
 522 -213 l 1,5,-1
 340 -213 l 1,6,-1
 439 503 l 2,7,8
 441 519 441 519 441 525 c 0,9,10
 441 552 441 552 429 564.5 c 128,-1,11
 417 577 417 577 392 577 c 0,12,13
 362 577 362 577 334 562.5 c 128,-1,14
 306 548 306 548 271 518 c 1,15,-1
 198 0 l 1,16,-1
 16 0 l 1,17,-1
 113 695 l 1,18,-1
 273 695 l 1,19,-1
 277 637 l 1,20,21
 324 677 324 677 368 695 c 128,-1,22
 412 713 412 713 467 713 c 0,23,0
 545 713 545 713 585.5 671 c 128,-1,1
EndSplineSet
Substitution2: "'c2sc' Capitals to Small Capitals lookup 27 subtable" uni0220.sc
Substitution2: "'aalt' Access All Alternates lookup 0 subtable" uni0220.sc
Position2: "'cpsp' Capital Spacing lookup 0 subtable" dx=5 dy=0 dh=10 dv=0
EndChar

StartChar: O
Encoding: 79 79 176
Width: 679
GlyphClass: 2
Flags: W
AnchorPoint: "Anchor-18" 0 0 basechar 0
AnchorPoint: "Anchor-17" 636 695 basechar 0
AnchorPoint: "Anchor-16" 400 695 basechar 0
AnchorPoint: "Anchor-15" 430 0 basechar 0
AnchorPoint: "Anchor-14" 303 0 basechar 0
LayerCount: 2
Fore
SplineSet
601 638.5 m 128,-1,1
 671 564 671 564 671 428 c 0,2,3
 671 322 671 322 635.5 220.5 c 128,-1,4
 600 119 600 119 517 50 c 128,-1,5
 434 -19 434 -19 302 -19 c 0,6,7
 172 -19 172 -19 102 56.5 c 128,-1,8
 32 132 32 132 32 267 c 0,9,10
 32 373 32 373 67.5 474.5 c 128,-1,11
 103 576 103 576 185.5 644.5 c 128,-1,12
 268 713 268 713 400 713 c 0,13,0
 531 713 531 713 601 638.5 c 128,-1,1
285.5 524.5 m 128,-1,15
 248 469 248 469 233.5 394.5 c 128,-1,16
 219 320 219 320 219 253 c 0,17,18
 219 180 219 180 243 147.5 c 128,-1,19
 267 115 267 115 316 115 c 0,20,21
 380 115 380 115 417.5 170 c 128,-1,22
 455 225 455 225 469 299.5 c 128,-1,23
 483 374 483 374 483 443 c 0,24,25
 483 516 483 516 459.5 548 c 128,-1,26
 436 580 436 580 387 580 c 0,27,14
 323 580 323 580 285.5 524.5 c 128,-1,15
EndSplineSet
Substitution2: "Single Substitution lookup 44 subtable" ordmasculine
Substitution2: "'c2sc' Capitals to Small Capitals lookup 27 subtable" o.sc
AlternateSubs2: "'aalt' Access All Alternates lookup 1 subtable" ordmasculine o.sc
Position2: "'cpsp' Capital Spacing lookup 0 subtable" dx=5 dy=0 dh=10 dv=0
EndChar

StartChar: uni0222
Encoding: 546 546 177
Width: 638
GlyphClass: 2
Flags: W
AnchorPoint: "Anchor-18" 0 0 basechar 0
AnchorPoint: "Anchor-17" 0 0 basechar 0
AnchorPoint: "Anchor-16" 379 695 basechar 0
AnchorPoint: "Anchor-15" 0 0 basechar 0
AnchorPoint: "Anchor-14" 281 0 basechar 0
LayerCount: 2
Fore
SplineSet
500 398 m 1,1,2
 608 354 608 354 608 245 c 0,3,4
 608 169 608 169 566.5 109 c 128,-1,5
 525 49 525 49 451.5 15 c 128,-1,6
 378 -19 378 -19 284 -19 c 0,7,8
 201 -19 201 -19 140.5 9 c 128,-1,9
 80 37 80 37 48.5 85 c 128,-1,10
 17 133 17 133 17 193 c 0,11,12
 17 268 17 268 59 319 c 128,-1,13
 101 370 101 370 176 397 c 1,14,15
 102 438 102 438 102 526 c 0,16,17
 102 542 102 542 103 551 c 2,18,-1
 123 695 l 1,19,-1
 306 695 l 1,20,-1
 283 537 l 2,21,22
 281 519 281 519 281 512 c 0,23,24
 281 483 281 483 296 468.5 c 128,-1,25
 311 454 311 454 344 454 c 0,26,27
 386 454 386 454 406.5 477 c 128,-1,28
 427 500 427 500 432 540 c 2,29,-1
 454 695 l 1,30,-1
 637 695 l 1,31,-1
 616 548 l 2,32,0
 601 445 601 445 500 398 c 1,1,2
385 150 m 128,-1,34
 418 185 418 185 418 243 c 0,35,36
 418 282 418 282 395.5 305 c 128,-1,37
 373 328 373 328 330 328 c 0,38,39
 275 328 275 328 241.5 291.5 c 128,-1,40
 208 255 208 255 208 197 c 0,41,42
 208 159 208 159 230.5 137 c 128,-1,43
 253 115 253 115 296 115 c 0,44,33
 352 115 352 115 385 150 c 128,-1,34
EndSplineSet
Substitution2: "'c2sc' Capitals to Small Capitals lookup 27 subtable" uni0223.sc
Substitution2: "'aalt' Access All Alternates lookup 0 subtable" uni0223.sc
Position2: "'cpsp' Capital Spacing lookup 0 subtable" dx=5 dy=0 dh=10 dv=0
EndChar

StartChar: uni1ED0
Encoding: 7888 7888 183
Width: 679
GlyphClass: 2
Flags: W
AnchorPoint: "Anchor-18" 0 0 basechar 0
AnchorPoint: "Anchor-17" 506 812 basechar 0
AnchorPoint: "Anchor-16" 428 929 basechar 0
AnchorPoint: "Anchor-15" 430 0 basechar 0
AnchorPoint: "Anchor-14" 0 0 basechar 0
LayerCount: 2
Fore
SplineSet
676 1115 m 1,0,-1
 760 1022 l 1,1,-1
 578 878 l 1,2,-1
 519 937 l 1,3,-1
 676 1115 l 1,0,-1
271 722 m 1,4,-1
 216 793 l 1,5,-1
 376 929 l 1,6,-1
 482 929 l 1,7,-1
 603 793 l 1,8,-1
 536 722 l 1,9,-1
 415 808 l 1,10,-1
 271 722 l 1,4,-1
601 638.5 m 128,-1,12
 671 564 671 564 671 428 c 0,13,14
 671 322 671 322 635.5 220.5 c 128,-1,15
 600 119 600 119 517 50 c 128,-1,16
 434 -19 434 -19 302 -19 c 0,17,18
 172 -19 172 -19 102 56.5 c 128,-1,19
 32 132 32 132 32 267 c 0,20,21
 32 373 32 373 67.5 474.5 c 128,-1,22
 103 576 103 576 185.5 644.5 c 128,-1,23
 268 713 268 713 400 713 c 0,24,11
 531 713 531 713 601 638.5 c 128,-1,12
285.5 524.5 m 128,-1,26
 248 469 248 469 233.5 394.5 c 128,-1,27
 219 320 219 320 219 253 c 0,28,29
 219 180 219 180 243 147.5 c 128,-1,30
 267 115 267 115 316 115 c 0,31,32
 380 115 380 115 417.5 170 c 128,-1,33
 455 225 455 225 469 299.5 c 128,-1,34
 483 374 483 374 483 443 c 0,35,36
 483 516 483 516 459.5 548 c 128,-1,37
 436 580 436 580 387 580 c 0,38,25
 323 580 323 580 285.5 524.5 c 128,-1,26
EndSplineSet
Substitution2: "'c2sc' Capitals to Small Capitals lookup 27 subtable" uni1ED1.sc
Substitution2: "'aalt' Access All Alternates lookup 0 subtable" uni1ED1.sc
Position2: "'cpsp' Capital Spacing lookup 0 subtable" dx=5 dy=0 dh=10 dv=0
EndChar

StartChar: uni1ED2
Encoding: 7890 7890 185
Width: 679
GlyphClass: 2
Flags: W
AnchorPoint: "Anchor-18" 0 0 basechar 0
AnchorPoint: "Anchor-17" 503 812 basechar 0
AnchorPoint: "Anchor-16" 425 929 basechar 0
AnchorPoint: "Anchor-15" 430 0 basechar 0
AnchorPoint: "Anchor-14" 0 0 basechar 0
LayerCount: 2
Fore
SplineSet
218 1113 m 1,0,-1
 327 932 l 1,1,-1
 256 878 l 1,2,-1
 114 1028 l 1,3,-1
 218 1113 l 1,0,-1
268 722 m 1,4,-1
 213 793 l 1,5,-1
 373 929 l 1,6,-1
 479 929 l 1,7,-1
 600 793 l 1,8,-1
 533 722 l 1,9,-1
 412 808 l 1,10,-1
 268 722 l 1,4,-1
601 638.5 m 128,-1,12
 671 564 671 564 671 428 c 0,13,14
 671 322 671 322 635.5 220.5 c 128,-1,15
 600 119 600 119 517 50 c 128,-1,16
 434 -19 434 -19 302 -19 c 0,17,18
 172 -19 172 -19 102 56.5 c 128,-1,19
 32 132 32 132 32 267 c 0,20,21
 32 373 32 373 67.5 474.5 c 128,-1,22
 103 576 103 576 185.5 644.5 c 128,-1,23
 268 713 268 713 400 713 c 0,24,11
 531 713 531 713 601 638.5 c 128,-1,12
285.5 524.5 m 128,-1,26
 248 469 248 469 233.5 394.5 c 128,-1,27
 219 320 219 320 219 253 c 0,28,29
 219 180 219 180 243 147.5 c 128,-1,30
 267 115 267 115 316 115 c 0,31,32
 380 115 380 115 417.5 170 c 128,-1,33
 455 225 455 225 469 299.5 c 128,-1,34
 483 374 483 374 483 443 c 0,35,36
 483 516 483 516 459.5 548 c 128,-1,37
 436 580 436 580 387 580 c 0,38,25
 323 580 323 580 285.5 524.5 c 128,-1,26
EndSplineSet
Substitution2: "'c2sc' Capitals to Small Capitals lookup 27 subtable" uni1ED3.sc
Substitution2: "'aalt' Access All Alternates lookup 0 subtable" uni1ED3.sc
Position2: "'cpsp' Capital Spacing lookup 0 subtable" dx=5 dy=0 dh=10 dv=0
EndChar

StartChar: uni1ED6
Encoding: 7894 7894 187
Width: 679
GlyphClass: 2
Flags: W
AnchorPoint: "Anchor-18" 0 0 basechar 0
AnchorPoint: "Anchor-17" 501 812 basechar 0
AnchorPoint: "Anchor-16" 441 1111 basechar 0
AnchorPoint: "Anchor-15" 430 0 basechar 0
AnchorPoint: "Anchor-14" 0 0 basechar 0
LayerCount: 2
Fore
SplineSet
457 961 m 128,-1,1
 443 967 443 967 422 979 c 0,2,3
 412 985 412 985 401.5 990 c 128,-1,4
 391 995 391 995 382 995 c 0,5,6
 365 995 365 995 352 985.5 c 128,-1,7
 339 976 339 976 323 954 c 1,8,-1
 246 995 l 1,9,10
 273 1046 273 1046 310.5 1078.5 c 128,-1,11
 348 1111 348 1111 391 1111 c 0,12,13
 413 1111 413 1111 427 1105 c 128,-1,14
 441 1099 441 1099 462 1086 c 0,15,16
 485 1071 485 1071 497 1071 c 0,17,18
 513 1071 513 1071 526.5 1080.5 c 128,-1,19
 540 1090 540 1090 555 1111 c 1,20,-1
 633 1071 l 1,21,22
 606 1019 606 1019 568.5 987 c 128,-1,23
 531 955 531 955 489 955 c 0,24,0
 471 955 471 955 457 961 c 128,-1,1
266 722 m 1,25,-1
 211 793 l 1,26,-1
 371 929 l 1,27,-1
 477 929 l 1,28,-1
 598 793 l 1,29,-1
 531 722 l 1,30,-1
 410 808 l 1,31,-1
 266 722 l 1,25,-1
601 638.5 m 128,-1,33
 671 564 671 564 671 428 c 0,34,35
 671 322 671 322 635.5 220.5 c 128,-1,36
 600 119 600 119 517 50 c 128,-1,37
 434 -19 434 -19 302 -19 c 0,38,39
 172 -19 172 -19 102 56.5 c 128,-1,40
 32 132 32 132 32 267 c 0,41,42
 32 373 32 373 67.5 474.5 c 128,-1,43
 103 576 103 576 185.5 644.5 c 128,-1,44
 268 713 268 713 400 713 c 0,45,32
 531 713 531 713 601 638.5 c 128,-1,33
285.5 524.5 m 128,-1,47
 248 469 248 469 233.5 394.5 c 128,-1,48
 219 320 219 320 219 253 c 0,49,50
 219 180 219 180 243 147.5 c 128,-1,51
 267 115 267 115 316 115 c 0,52,53
 380 115 380 115 417.5 170 c 128,-1,54
 455 225 455 225 469 299.5 c 128,-1,55
 483 374 483 374 483 443 c 0,56,57
 483 516 483 516 459.5 548 c 128,-1,58
 436 580 436 580 387 580 c 0,59,46
 323 580 323 580 285.5 524.5 c 128,-1,47
EndSplineSet
Substitution2: "'c2sc' Capitals to Small Capitals lookup 27 subtable" uni1ED7.sc
Substitution2: "'aalt' Access All Alternates lookup 0 subtable" uni1ED7.sc
Position2: "'cpsp' Capital Spacing lookup 0 subtable" dx=5 dy=0 dh=10 dv=0
EndChar

StartChar: Ohorn
Encoding: 416 416 196
Width: 708
GlyphClass: 2
Flags: W
AnchorPoint: "Anchor-18" 0 0 basechar 0
AnchorPoint: "Anchor-17" 688 695 basechar 0
AnchorPoint: "Anchor-16" 400 695 basechar 0
AnchorPoint: "Anchor-15" 430 0 basechar 0
AnchorPoint: "Anchor-14" 303 0 basechar 0
LayerCount: 2
Fore
SplineSet
745.5 605.5 m 128,-1,1
 713 565 713 565 651 554 c 1,2,3
 671 499 671 499 671 428 c 0,4,5
 671 322 671 322 635.5 220.5 c 128,-1,6
 600 119 600 119 517 50 c 128,-1,7
 434 -19 434 -19 302 -19 c 0,8,9
 172 -19 172 -19 102 56.5 c 128,-1,10
 32 132 32 132 32 267 c 0,11,12
 32 373 32 373 67.5 474.5 c 128,-1,13
 103 576 103 576 185.5 644.5 c 128,-1,14
 268 713 268 713 400 713 c 0,15,16
 534 713 534 713 605 634 c 1,17,18
 635 638 635 638 649 656.5 c 128,-1,19
 663 675 663 675 663 710 c 0,20,21
 663 731 663 731 657 759 c 1,22,-1
 769 772 l 1,23,24
 778 747 778 747 778 713 c 0,25,0
 778 646 778 646 745.5 605.5 c 128,-1,1
417.5 170 m 128,-1,27
 455 225 455 225 469 299.5 c 128,-1,28
 483 374 483 374 483 443 c 0,29,30
 483 516 483 516 459.5 548 c 128,-1,31
 436 580 436 580 387 580 c 0,32,33
 323 580 323 580 285.5 524.5 c 128,-1,34
 248 469 248 469 233.5 394.5 c 128,-1,35
 219 320 219 320 219 253 c 0,36,37
 219 180 219 180 243 147.5 c 128,-1,38
 267 115 267 115 316 115 c 0,39,26
 380 115 380 115 417.5 170 c 128,-1,27
EndSplineSet
Substitution2: "'c2sc' Capitals to Small Capitals lookup 27 subtable" ohorn.sc
Substitution2: "'aalt' Access All Alternates lookup 0 subtable" ohorn.sc
Position2: "'cpsp' Capital Spacing lookup 0 subtable" dx=5 dy=0 dh=10 dv=0
EndChar

StartChar: uni1EDA
Encoding: 7898 7898 197
Width: 708
GlyphClass: 2
Flags: W
AnchorPoint: "Anchor-18" 0 0 basechar 0
AnchorPoint: "Anchor-17" 688 695 basechar 0
AnchorPoint: "Anchor-16" 425 971 basechar 0
AnchorPoint: "Anchor-15" 430 0 basechar 0
AnchorPoint: "Anchor-14" 303 0 basechar 0
LayerCount: 2
Fore
SplineSet
577 831 m 1,0,-1
 324 744 l 1,1,-1
 286 832 l 1,2,-1
 522 963 l 1,3,-1
 577 831 l 1,0,-1
745.5 605.5 m 128,-1,5
 713 565 713 565 651 554 c 1,6,7
 671 499 671 499 671 428 c 0,8,9
 671 322 671 322 635.5 220.5 c 128,-1,10
 600 119 600 119 517 50 c 128,-1,11
 434 -19 434 -19 302 -19 c 0,12,13
 172 -19 172 -19 102 56.5 c 128,-1,14
 32 132 32 132 32 267 c 0,15,16
 32 373 32 373 67.5 474.5 c 128,-1,17
 103 576 103 576 185.5 644.5 c 128,-1,18
 268 713 268 713 400 713 c 0,19,20
 534 713 534 713 605 634 c 1,21,22
 635 638 635 638 649 656.5 c 128,-1,23
 663 675 663 675 663 710 c 0,24,25
 663 731 663 731 657 759 c 1,26,-1
 769 772 l 1,27,28
 778 747 778 747 778 713 c 0,29,4
 778 646 778 646 745.5 605.5 c 128,-1,5
417.5 170 m 128,-1,31
 455 225 455 225 469 299.5 c 128,-1,32
 483 374 483 374 483 443 c 0,33,34
 483 516 483 516 459.5 548 c 128,-1,35
 436 580 436 580 387 580 c 0,36,37
 323 580 323 580 285.5 524.5 c 128,-1,38
 248 469 248 469 233.5 394.5 c 128,-1,39
 219 320 219 320 219 253 c 0,40,41
 219 180 219 180 243 147.5 c 128,-1,42
 267 115 267 115 316 115 c 0,43,30
 380 115 380 115 417.5 170 c 128,-1,31
EndSplineSet
Substitution2: "'c2sc' Capitals to Small Capitals lookup 27 subtable" uni1EDB.sc
Substitution2: "'aalt' Access All Alternates lookup 0 subtable" uni1EDB.sc
Position2: "'cpsp' Capital Spacing lookup 0 subtable" dx=5 dy=0 dh=10 dv=0
EndChar

StartChar: uni1EE2
Encoding: 7906 7906 198
Width: 708
GlyphClass: 2
Flags: W
AnchorPoint: "Anchor-18" 0 0 basechar 0
AnchorPoint: "Anchor-17" 688 695 basechar 0
AnchorPoint: "Anchor-16" 400 695 basechar 0
AnchorPoint: "Anchor-15" 430 0 basechar 0
AnchorPoint: "Anchor-14" 273 -252 basechar 0
LayerCount: 2
Fore
SplineSet
745.5 605.5 m 128,-1,1
 713 565 713 565 651 554 c 1,2,3
 671 499 671 499 671 428 c 0,4,5
 671 322 671 322 635.5 220.5 c 128,-1,6
 600 119 600 119 517 50 c 128,-1,7
 434 -19 434 -19 302 -19 c 0,8,9
 172 -19 172 -19 102 56.5 c 128,-1,10
 32 132 32 132 32 267 c 0,11,12
 32 373 32 373 67.5 474.5 c 128,-1,13
 103 576 103 576 185.5 644.5 c 128,-1,14
 268 713 268 713 400 713 c 0,15,16
 534 713 534 713 605 634 c 1,17,18
 635 638 635 638 649 656.5 c 128,-1,19
 663 675 663 675 663 710 c 0,20,21
 663 731 663 731 657 759 c 1,22,-1
 769 772 l 1,23,24
 778 747 778 747 778 713 c 0,25,0
 778 646 778 646 745.5 605.5 c 128,-1,1
417.5 170 m 128,-1,27
 455 225 455 225 469 299.5 c 128,-1,28
 483 374 483 374 483 443 c 0,29,30
 483 516 483 516 459.5 548 c 128,-1,31
 436 580 436 580 387 580 c 0,32,33
 323 580 323 580 285.5 524.5 c 128,-1,34
 248 469 248 469 233.5 394.5 c 128,-1,35
 219 320 219 320 219 253 c 0,36,37
 219 180 219 180 243 147.5 c 128,-1,38
 267 115 267 115 316 115 c 0,39,26
 380 115 380 115 417.5 170 c 128,-1,27
357.5 -80 m 128,-1,41
 382 -104 382 -104 382 -142 c 0,42,43
 382 -189 382 -189 349.5 -220.5 c 128,-1,44
 317 -252 317 -252 269 -252 c 0,45,46
 228 -252 228 -252 203.5 -228 c 128,-1,47
 179 -204 179 -204 179 -166 c 0,48,49
 179 -119 179 -119 211.5 -87.5 c 128,-1,50
 244 -56 244 -56 292 -56 c 0,51,40
 333 -56 333 -56 357.5 -80 c 128,-1,41
EndSplineSet
Substitution2: "'c2sc' Capitals to Small Capitals lookup 27 subtable" uni1EE3.sc
Substitution2: "'aalt' Access All Alternates lookup 0 subtable" uni1EE3.sc
Position2: "'cpsp' Capital Spacing lookup 0 subtable" dx=5 dy=0 dh=10 dv=0
EndChar

StartChar: uni1EDC
Encoding: 7900 7900 199
Width: 708
GlyphClass: 2
Flags: W
AnchorPoint: "Anchor-18" 0 0 basechar 0
AnchorPoint: "Anchor-17" 688 695 basechar 0
AnchorPoint: "Anchor-16" 425 972 basechar 0
AnchorPoint: "Anchor-15" 430 0 basechar 0
AnchorPoint: "Anchor-14" 303 0 basechar 0
LayerCount: 2
Fore
SplineSet
565 832 m 1,0,-1
 520 746 l 1,1,-1
 288 830 l 1,2,-1
 361 962 l 1,3,-1
 565 832 l 1,0,-1
745.5 605.5 m 128,-1,5
 713 565 713 565 651 554 c 1,6,7
 671 499 671 499 671 428 c 0,8,9
 671 322 671 322 635.5 220.5 c 128,-1,10
 600 119 600 119 517 50 c 128,-1,11
 434 -19 434 -19 302 -19 c 0,12,13
 172 -19 172 -19 102 56.5 c 128,-1,14
 32 132 32 132 32 267 c 0,15,16
 32 373 32 373 67.5 474.5 c 128,-1,17
 103 576 103 576 185.5 644.5 c 128,-1,18
 268 713 268 713 400 713 c 0,19,20
 534 713 534 713 605 634 c 1,21,22
 635 638 635 638 649 656.5 c 128,-1,23
 663 675 663 675 663 710 c 0,24,25
 663 731 663 731 657 759 c 1,26,-1
 769 772 l 1,27,28
 778 747 778 747 778 713 c 0,29,4
 778 646 778 646 745.5 605.5 c 128,-1,5
417.5 170 m 128,-1,31
 455 225 455 225 469 299.5 c 128,-1,32
 483 374 483 374 483 443 c 0,33,34
 483 516 483 516 459.5 548 c 128,-1,35
 436 580 436 580 387 580 c 0,36,37
 323 580 323 580 285.5 524.5 c 128,-1,38
 248 469 248 469 233.5 394.5 c 128,-1,39
 219 320 219 320 219 253 c 0,40,41
 219 180 219 180 243 147.5 c 128,-1,42
 267 115 267 115 316 115 c 0,43,30
 380 115 380 115 417.5 170 c 128,-1,31
EndSplineSet
Substitution2: "'c2sc' Capitals to Small Capitals lookup 27 subtable" uni1EDD.sc
Substitution2: "'aalt' Access All Alternates lookup 0 subtable" uni1EDD.sc
Position2: "'cpsp' Capital Spacing lookup 0 subtable" dx=5 dy=0 dh=10 dv=0
EndChar

StartChar: uni1EDE
Encoding: 7902 7902 200
Width: 708
GlyphClass: 2
Flags: W
AnchorPoint: "Anchor-18" 0 0 basechar 0
AnchorPoint: "Anchor-17" 688 695 basechar 0
AnchorPoint: "Anchor-16" 447 1005 basechar 0
AnchorPoint: "Anchor-15" 430 0 basechar 0
AnchorPoint: "Anchor-14" 303 0 basechar 0
LayerCount: 2
Fore
SplineSet
352 908 m 1,1,-1
 333 979 l 1,2,3
 382 1005 382 1005 441 1005 c 0,4,5
 501 1005 501 1005 532 977.5 c 128,-1,6
 563 950 563 950 563 906 c 0,7,8
 563 824 563 824 465 804 c 1,9,-1
 460 764 l 1,10,-1
 360 764 l 1,11,-1
 370 855 l 1,12,13
 447 858 447 858 447 896 c 0,14,15
 447 921 447 921 412 921 c 0,16,0
 386 921 386 921 352 908 c 1,1,-1
745.5 605.5 m 128,-1,18
 713 565 713 565 651 554 c 1,19,20
 671 499 671 499 671 428 c 0,21,22
 671 322 671 322 635.5 220.5 c 128,-1,23
 600 119 600 119 517 50 c 128,-1,24
 434 -19 434 -19 302 -19 c 0,25,26
 172 -19 172 -19 102 56.5 c 128,-1,27
 32 132 32 132 32 267 c 0,28,29
 32 373 32 373 67.5 474.5 c 128,-1,30
 103 576 103 576 185.5 644.5 c 128,-1,31
 268 713 268 713 400 713 c 0,32,33
 534 713 534 713 605 634 c 1,34,35
 635 638 635 638 649 656.5 c 128,-1,36
 663 675 663 675 663 710 c 0,37,38
 663 731 663 731 657 759 c 1,39,-1
 769 772 l 1,40,41
 778 747 778 747 778 713 c 0,42,17
 778 646 778 646 745.5 605.5 c 128,-1,18
417.5 170 m 128,-1,44
 455 225 455 225 469 299.5 c 128,-1,45
 483 374 483 374 483 443 c 0,46,47
 483 516 483 516 459.5 548 c 128,-1,48
 436 580 436 580 387 580 c 0,49,50
 323 580 323 580 285.5 524.5 c 128,-1,51
 248 469 248 469 233.5 394.5 c 128,-1,52
 219 320 219 320 219 253 c 0,53,54
 219 180 219 180 243 147.5 c 128,-1,55
 267 115 267 115 316 115 c 0,56,43
 380 115 380 115 417.5 170 c 128,-1,44
EndSplineSet
Substitution2: "'c2sc' Capitals to Small Capitals lookup 27 subtable" uni1EDF.sc
Substitution2: "'aalt' Access All Alternates lookup 0 subtable" uni1EDF.sc
Position2: "'cpsp' Capital Spacing lookup 0 subtable" dx=5 dy=0 dh=10 dv=0
EndChar

StartChar: uni1EE0
Encoding: 7904 7904 201
Width: 708
GlyphClass: 2
Flags: W
AnchorPoint: "Anchor-18" 0 0 basechar 0
AnchorPoint: "Anchor-17" 688 695 basechar 0
AnchorPoint: "Anchor-16" 423 924 basechar 0
AnchorPoint: "Anchor-15" 430 0 basechar 0
AnchorPoint: "Anchor-14" 303 0 basechar 0
LayerCount: 2
Fore
SplineSet
332 787.5 m 128,-1,1
 319 777 319 777 303 753 c 1,2,-1
 224 798 l 1,3,4
 252 853 252 853 290.5 888.5 c 128,-1,5
 329 924 329 924 372 924 c 0,6,7
 394 924 394 924 409 917 c 128,-1,8
 424 910 424 910 444 897 c 0,9,10
 455 888 455 888 463 884 c 128,-1,11
 471 880 471 880 480 880 c 0,12,13
 496 880 496 880 509.5 890.5 c 128,-1,14
 523 901 523 901 539 924 c 1,15,-1
 618 880 l 1,16,17
 590 824 590 824 551.5 789 c 128,-1,18
 513 754 513 754 471 754 c 0,19,20
 453 754 453 754 437.5 761 c 128,-1,21
 422 768 422 768 404 780 c 0,22,23
 390 789 390 789 381 793.5 c 128,-1,24
 372 798 372 798 363 798 c 0,25,0
 345 798 345 798 332 787.5 c 128,-1,1
745.5 605.5 m 128,-1,27
 713 565 713 565 651 554 c 1,28,29
 671 499 671 499 671 428 c 0,30,31
 671 322 671 322 635.5 220.5 c 128,-1,32
 600 119 600 119 517 50 c 128,-1,33
 434 -19 434 -19 302 -19 c 0,34,35
 172 -19 172 -19 102 56.5 c 128,-1,36
 32 132 32 132 32 267 c 0,37,38
 32 373 32 373 67.5 474.5 c 128,-1,39
 103 576 103 576 185.5 644.5 c 128,-1,40
 268 713 268 713 400 713 c 0,41,42
 534 713 534 713 605 634 c 1,43,44
 635 638 635 638 649 656.5 c 128,-1,45
 663 675 663 675 663 710 c 0,46,47
 663 731 663 731 657 759 c 1,48,-1
 769 772 l 1,49,50
 778 747 778 747 778 713 c 0,51,26
 778 646 778 646 745.5 605.5 c 128,-1,27
417.5 170 m 128,-1,53
 455 225 455 225 469 299.5 c 128,-1,54
 483 374 483 374 483 443 c 0,55,56
 483 516 483 516 459.5 548 c 128,-1,57
 436 580 436 580 387 580 c 0,58,59
 323 580 323 580 285.5 524.5 c 128,-1,60
 248 469 248 469 233.5 394.5 c 128,-1,61
 219 320 219 320 219 253 c 0,62,63
 219 180 219 180 243 147.5 c 128,-1,64
 267 115 267 115 316 115 c 0,65,52
 380 115 380 115 417.5 170 c 128,-1,53
EndSplineSet
Substitution2: "'c2sc' Capitals to Small Capitals lookup 27 subtable" uni1EE1.sc
Substitution2: "'aalt' Access All Alternates lookup 0 subtable" uni1EE1.sc
Position2: "'cpsp' Capital Spacing lookup 0 subtable" dx=5 dy=0 dh=10 dv=0
EndChar

StartChar: uni01A2
Encoding: 418 418 203
Width: 955
GlyphClass: 2
Flags: W
AnchorPoint: "Anchor-18" 0 0 basechar 0
AnchorPoint: "Anchor-17" 0 0 basechar 0
AnchorPoint: "Anchor-16" 537 695 basechar 0
AnchorPoint: "Anchor-15" 0 0 basechar 0
AnchorPoint: "Anchor-14" 0 0 basechar 0
LayerCount: 2
Fore
SplineSet
889 672 m 128,-1,1
 938 630 938 630 938 551 c 0,2,3
 938 532 938 532 935 511 c 2,4,-1
 834 -213 l 1,5,-1
 652 -213 l 1,6,-1
 755 519 l 2,7,8
 757 533 757 533 757 539 c 0,9,10
 757 586 757 586 711 586 c 0,11,12
 692 586 692 586 677 582 c 128,-1,13
 662 578 662 578 643 570 c 1,14,15
 671 508 671 508 671 428 c 0,16,17
 671 322 671 322 635.5 220.5 c 128,-1,18
 600 119 600 119 517 50 c 128,-1,19
 434 -19 434 -19 302 -19 c 0,20,21
 172 -19 172 -19 102 56.5 c 128,-1,22
 32 132 32 132 32 267 c 0,23,24
 32 373 32 373 67.5 474.5 c 128,-1,25
 103 576 103 576 185.5 644.5 c 128,-1,26
 268 713 268 713 400 713 c 0,27,28
 505 713 505 713 573 660 c 1,29,30
 650 714 650 714 750 714 c 0,31,0
 840 714 840 714 889 672 c 128,-1,1
417.5 170 m 128,-1,33
 455 225 455 225 469 299.5 c 128,-1,34
 483 374 483 374 483 443 c 0,35,36
 483 516 483 516 459.5 548 c 128,-1,37
 436 580 436 580 387 580 c 0,38,39
 323 580 323 580 285.5 524.5 c 128,-1,40
 248 469 248 469 233.5 394.5 c 128,-1,41
 219 320 219 320 219 253 c 0,42,43
 219 180 219 180 243 147.5 c 128,-1,44
 267 115 267 115 316 115 c 0,45,32
 380 115 380 115 417.5 170 c 128,-1,33
EndSplineSet
Substitution2: "'c2sc' Capitals to Small Capitals lookup 27 subtable" uni01A3.sc
Substitution2: "'aalt' Access All Alternates lookup 0 subtable" uni01A3.sc
Position2: "'cpsp' Capital Spacing lookup 0 subtable" dx=5 dy=0 dh=10 dv=0
EndChar

StartChar: uniA7B6
Encoding: 42934 42934 208
Width: 883
GlyphClass: 2
Flags: W
AnchorPoint: "Anchor-18" 0 0 basechar 0
AnchorPoint: "Anchor-17" 0 0 basechar 0
AnchorPoint: "Anchor-16" 501 695 basechar 0
AnchorPoint: "Anchor-15" 0 0 basechar 0
AnchorPoint: "Anchor-14" 403 0 basechar 0
LayerCount: 2
Fore
SplineSet
88.5 36 m 128,-1,1
 39 91 39 91 39 207 c 0,2,3
 39 328 39 328 76.5 453.5 c 128,-1,4
 114 579 114 579 179 695 c 1,5,-1
 347 695 l 1,6,7
 289 561 289 561 255 440 c 128,-1,8
 221 319 221 319 221 204 c 0,9,10
 221 156 221 156 233 135.5 c 128,-1,11
 245 115 245 115 272 115 c 0,12,13
 332 115 332 115 343 198 c 2,14,-1
 372 399 l 1,15,-1
 551 399 l 1,16,-1
 522 195 l 2,17,18
 519 177 519 177 519 163 c 0,19,20
 519 139 519 139 529 127 c 128,-1,21
 539 115 539 115 561 115 c 0,22,23
 623 115 623 115 650 224.5 c 128,-1,24
 677 334 677 334 677 461 c 0,25,26
 677 521 677 521 670 570.5 c 128,-1,27
 663 620 663 620 648 695 c 1,28,-1
 822 695 l 1,29,30
 839 637 839 637 848.5 581.5 c 128,-1,31
 858 526 858 526 858 458 c 0,32,33
 858 247 858 247 792 114 c 128,-1,34
 726 -19 726 -19 576 -19 c 0,35,36
 438 -19 438 -19 419 108 c 1,37,38
 393 43 393 43 345.5 12 c 128,-1,39
 298 -19 298 -19 238 -19 c 0,40,0
 138 -19 138 -19 88.5 36 c 128,-1,1
EndSplineSet
Substitution2: "'c2sc' Capitals to Small Capitals lookup 27 subtable" uniA7B6.sc
Substitution2: "'aalt' Access All Alternates lookup 0 subtable" uniA7B6.sc
Position2: "'cpsp' Capital Spacing lookup 0 subtable" dx=5 dy=0 dh=10 dv=0
EndChar

StartChar: uni01EA
Encoding: 490 490 209
Width: 679
GlyphClass: 2
Flags: W
AnchorPoint: "Anchor-18" 0 0 basechar 0
AnchorPoint: "Anchor-17" 636 695 basechar 0
AnchorPoint: "Anchor-16" 400 695 basechar 0
AnchorPoint: "Anchor-15" 430 0 basechar 0
AnchorPoint: "Anchor-14" 303 0 basechar 0
LayerCount: 2
Fore
SplineSet
291 -110 m 0,1,2
 291 -143 291 -143 334 -143 c 0,3,4
 360 -143 360 -143 397 -135 c 1,5,-1
 373 -242 l 1,6,7
 338 -250 338 -250 302 -250 c 0,8,9
 241 -250 241 -250 202.5 -221 c 128,-1,10
 164 -192 164 -192 164 -142 c 0,11,12
 164 -66 164 -66 237 -13 c 1,13,14
 138 5 138 5 85 77.5 c 128,-1,15
 32 150 32 150 32 267 c 0,16,17
 32 373 32 373 67.5 474.5 c 128,-1,18
 103 576 103 576 185.5 644.5 c 128,-1,19
 268 713 268 713 400 713 c 0,20,21
 531 713 531 713 601 638.5 c 128,-1,22
 671 564 671 564 671 428 c 0,23,24
 671 338 671 338 645 249 c 128,-1,25
 619 160 619 160 559.5 90 c 128,-1,26
 500 20 500 20 406 -6 c 1,27,0
 291 -49 291 -49 291 -110 c 0,1,2
285.5 524.5 m 128,-1,29
 248 469 248 469 233.5 394.5 c 128,-1,30
 219 320 219 320 219 253 c 0,31,32
 219 180 219 180 243 147.5 c 128,-1,33
 267 115 267 115 316 115 c 0,34,35
 380 115 380 115 417.5 170 c 128,-1,36
 455 225 455 225 469 299.5 c 128,-1,37
 483 374 483 374 483 443 c 0,38,39
 483 516 483 516 459.5 548 c 128,-1,40
 436 580 436 580 387 580 c 0,41,28
 323 580 323 580 285.5 524.5 c 128,-1,29
EndSplineSet
Substitution2: "'c2sc' Capitals to Small Capitals lookup 27 subtable" uni01EB.sc
Substitution2: "'aalt' Access All Alternates lookup 0 subtable" uni01EB.sc
Position2: "'cpsp' Capital Spacing lookup 0 subtable" dx=5 dy=0 dh=10 dv=0
EndChar

StartChar: uni01EC
Encoding: 492 492 210
Width: 679
GlyphClass: 2
Flags: W
AnchorPoint: "Anchor-18" 0 0 basechar 0
AnchorPoint: "Anchor-17" 636 695 basechar 0
AnchorPoint: "Anchor-16" 422 900 basechar 0
AnchorPoint: "Anchor-15" 430 0 basechar 0
AnchorPoint: "Anchor-14" 303 0 basechar 0
LayerCount: 2
Fore
SplineSet
584 900 m 1,0,-1
 567 778 l 1,1,-1
 257 778 l 1,2,-1
 274 900 l 1,3,-1
 584 900 l 1,0,-1
291 -110 m 0,5,6
 291 -143 291 -143 334 -143 c 0,7,8
 360 -143 360 -143 397 -135 c 1,9,-1
 373 -242 l 1,10,11
 338 -250 338 -250 302 -250 c 0,12,13
 241 -250 241 -250 202.5 -221 c 128,-1,14
 164 -192 164 -192 164 -142 c 0,15,16
 164 -66 164 -66 237 -13 c 1,17,18
 138 5 138 5 85 77.5 c 128,-1,19
 32 150 32 150 32 267 c 0,20,21
 32 373 32 373 67.5 474.5 c 128,-1,22
 103 576 103 576 185.5 644.5 c 128,-1,23
 268 713 268 713 400 713 c 0,24,25
 531 713 531 713 601 638.5 c 128,-1,26
 671 564 671 564 671 428 c 0,27,28
 671 338 671 338 645 249 c 128,-1,29
 619 160 619 160 559.5 90 c 128,-1,30
 500 20 500 20 406 -6 c 1,31,4
 291 -49 291 -49 291 -110 c 0,5,6
285.5 524.5 m 128,-1,33
 248 469 248 469 233.5 394.5 c 128,-1,34
 219 320 219 320 219 253 c 0,35,36
 219 180 219 180 243 147.5 c 128,-1,37
 267 115 267 115 316 115 c 0,38,39
 380 115 380 115 417.5 170 c 128,-1,40
 455 225 455 225 469 299.5 c 128,-1,41
 483 374 483 374 483 443 c 0,42,43
 483 516 483 516 459.5 548 c 128,-1,44
 436 580 436 580 387 580 c 0,45,32
 323 580 323 580 285.5 524.5 c 128,-1,33
EndSplineSet
Substitution2: "'c2sc' Capitals to Small Capitals lookup 27 subtable" uni01ED.sc
Substitution2: "'aalt' Access All Alternates lookup 0 subtable" uni01ED.sc
Position2: "'cpsp' Capital Spacing lookup 0 subtable" dx=5 dy=0 dh=10 dv=0
EndChar

StartChar: uni0186
Encoding: 390 390 211
Width: 568
GlyphClass: 2
Flags: W
AnchorPoint: "Anchor-18" 0 0 basechar 0
AnchorPoint: "Anchor-17" 0 0 basechar 0
AnchorPoint: "Anchor-16" 302 695 basechar 0
AnchorPoint: "Anchor-15" 0 0 basechar 0
AnchorPoint: "Anchor-14" 204 0 basechar 0
LayerCount: 2
Fore
SplineSet
487 637 m 128,-1,1
 558 561 558 561 558 424 c 0,2,3
 558 302 558 302 513.5 201 c 128,-1,4
 469 100 469 100 385 40.5 c 128,-1,5
 301 -19 301 -19 187 -19 c 0,6,7
 118 -19 118 -19 65 7.5 c 128,-1,8
 12 34 12 34 -25 76 c 1,9,-1
 67 178 l 1,10,11
 98 151 98 151 127 137 c 128,-1,12
 156 123 156 123 193 123 c 0,13,14
 253 123 253 123 293 167.5 c 128,-1,15
 333 212 333 212 351.5 281.5 c 128,-1,16
 370 351 370 351 370 428 c 0,17,18
 370 578 370 578 268 578 c 0,19,20
 233 578 233 578 201 565.5 c 128,-1,21
 169 553 169 553 135 528 c 1,22,-1
 60 635 l 1,23,24
 111 674 111 674 167 693.5 c 128,-1,25
 223 713 223 713 293 713 c 0,26,0
 416 713 416 713 487 637 c 128,-1,1
EndSplineSet
Substitution2: "'c2sc' Capitals to Small Capitals lookup 27 subtable" uni0254.sc
Substitution2: "'aalt' Access All Alternates lookup 0 subtable" uni0254.sc
Position2: "'cpsp' Capital Spacing lookup 0 subtable" dx=5 dy=0 dh=10 dv=0
EndChar

StartChar: Oslash
Encoding: 216 216 212
Width: 679
GlyphClass: 2
Flags: W
AnchorPoint: "Anchor-18" 0 0 basechar 0
AnchorPoint: "Anchor-17" 0 0 basechar 0
AnchorPoint: "Anchor-16" 404 734 basechar 0
AnchorPoint: "Anchor-15" 0 0 basechar 0
AnchorPoint: "Anchor-14" 302 0 basechar 0
LayerCount: 2
Fore
SplineSet
645 570 m 128,-1,1
 671 510 671 510 671 428 c 0,2,3
 671 322 671 322 635.5 220.5 c 128,-1,4
 600 119 600 119 517 50 c 128,-1,5
 434 -19 434 -19 302 -19 c 0,6,7
 278 -19 278 -19 257 -16 c 1,8,-1
 204 -137 l 1,9,-1
 73 -100 l 1,10,-1
 132 30 l 1,11,12
 83 66 83 66 57.5 126 c 128,-1,13
 32 186 32 186 32 267 c 0,14,15
 32 373 32 373 67.5 474.5 c 128,-1,16
 103 576 103 576 185.5 644.5 c 128,-1,17
 268 713 268 713 400 713 c 0,18,19
 416 713 416 713 444 711 c 1,20,-1
 498 830 l 1,21,-1
 628 794 l 1,22,-1
 569 666 l 1,23,0
 619 630 619 630 645 570 c 128,-1,1
284.5 524 m 128,-1,25
 246 468 246 468 230.5 392 c 128,-1,26
 215 316 215 316 215 248 c 0,27,28
 215 196 215 196 225 164 c 1,29,-1
 406 579 l 1,30,31
 400 580 400 580 387 580 c 0,32,24
 323 580 323 580 284.5 524 c 128,-1,25
418 170.5 m 128,-1,34
 456 226 456 226 471 302 c 128,-1,35
 486 378 486 378 486 449 c 0,36,37
 486 501 486 501 477 529 c 1,38,-1
 297 115 l 1,39,-1
 316 115 l 2,40,33
 380 115 380 115 418 170.5 c 128,-1,34
EndSplineSet
Substitution2: "'c2sc' Capitals to Small Capitals lookup 27 subtable" oslash.sc
Substitution2: "'aalt' Access All Alternates lookup 0 subtable" oslash.sc
Position2: "'cpsp' Capital Spacing lookup 0 subtable" dx=5 dy=0 dh=10 dv=0
EndChar

StartChar: uni022C
Encoding: 556 556 216
Width: 679
GlyphClass: 2
Flags: W
AnchorPoint: "Anchor-18" 0 0 basechar 0
AnchorPoint: "Anchor-17" 636 695 basechar 0
AnchorPoint: "Anchor-16" 435 1075 basechar 0
AnchorPoint: "Anchor-15" 430 0 basechar 0
AnchorPoint: "Anchor-14" 303 0 basechar 0
LayerCount: 2
Fore
SplineSet
580 953 m 1,0,-1
 270 953 l 1,1,-1
 287 1075 l 1,2,-1
 597 1075 l 1,3,-1
 580 953 l 1,0,-1
431.5 761 m 128,-1,5
 416 768 416 768 398 780 c 0,6,7
 384 789 384 789 375 793.5 c 128,-1,8
 366 798 366 798 357 798 c 0,9,10
 339 798 339 798 326 787.5 c 128,-1,11
 313 777 313 777 297 753 c 1,12,-1
 218 798 l 1,13,14
 246 853 246 853 284.5 888.5 c 128,-1,15
 323 924 323 924 366 924 c 0,16,17
 388 924 388 924 403 917 c 128,-1,18
 418 910 418 910 438 897 c 0,19,20
 449 888 449 888 457 884 c 128,-1,21
 465 880 465 880 474 880 c 0,22,23
 490 880 490 880 503.5 890.5 c 128,-1,24
 517 901 517 901 533 924 c 1,25,-1
 612 880 l 1,26,27
 584 824 584 824 545.5 789 c 128,-1,28
 507 754 507 754 465 754 c 0,29,4
 447 754 447 754 431.5 761 c 128,-1,5
601 638.5 m 128,-1,31
 671 564 671 564 671 428 c 0,32,33
 671 322 671 322 635.5 220.5 c 128,-1,34
 600 119 600 119 517 50 c 128,-1,35
 434 -19 434 -19 302 -19 c 0,36,37
 172 -19 172 -19 102 56.5 c 128,-1,38
 32 132 32 132 32 267 c 0,39,40
 32 373 32 373 67.5 474.5 c 128,-1,41
 103 576 103 576 185.5 644.5 c 128,-1,42
 268 713 268 713 400 713 c 0,43,30
 531 713 531 713 601 638.5 c 128,-1,31
285.5 524.5 m 128,-1,45
 248 469 248 469 233.5 394.5 c 128,-1,46
 219 320 219 320 219 253 c 0,47,48
 219 180 219 180 243 147.5 c 128,-1,49
 267 115 267 115 316 115 c 0,50,51
 380 115 380 115 417.5 170 c 128,-1,52
 455 225 455 225 469 299.5 c 128,-1,53
 483 374 483 374 483 443 c 0,54,55
 483 516 483 516 459.5 548 c 128,-1,56
 436 580 436 580 387 580 c 0,57,44
 323 580 323 580 285.5 524.5 c 128,-1,45
EndSplineSet
Substitution2: "'c2sc' Capitals to Small Capitals lookup 27 subtable" uni022D.sc
Substitution2: "'aalt' Access All Alternates lookup 0 subtable" uni022D.sc
Position2: "'cpsp' Capital Spacing lookup 0 subtable" dx=5 dy=0 dh=10 dv=0
EndChar

StartChar: OE
Encoding: 338 338 217
Width: 890
GlyphClass: 2
Flags: W
AnchorPoint: "Anchor-18" 0 0 basechar 0
AnchorPoint: "Anchor-17" 0 0 basechar 0
AnchorPoint: "Anchor-16" 506 695 basechar 0
AnchorPoint: "Anchor-15" 0 0 basechar 0
AnchorPoint: "Anchor-14" 409 0 basechar 0
LayerCount: 2
Fore
SplineSet
614 564 m 1,0,1
 644 503 644 503 646 417 c 1,2,-1
 837 417 l 1,3,-1
 820 289 l 1,4,-1
 634 289 l 1,5,6
 613 195 613 195 559 131 c 1,7,-1
 843 131 l 1,8,-1
 825 0 l 1,9,-1
 389 0 l 1,10,11
 341 -19 341 -19 285 -19 c 0,12,13
 165 -19 165 -19 98.5 56 c 128,-1,14
 32 131 32 131 32 266 c 0,15,16
 32 369 32 369 67.5 471.5 c 128,-1,17
 103 574 103 574 181.5 643.5 c 128,-1,18
 260 713 260 713 383 713 c 0,19,20
 439 713 439 713 483 695 c 1,21,-1
 924 695 l 1,22,-1
 887 564 l 1,23,-1
 614 564 l 1,0,1
240.5 146 m 128,-1,25
 262 115 262 115 305 115 c 0,26,27
 389 115 389 115 425.5 216 c 128,-1,28
 462 317 462 317 462 452 c 0,29,30
 462 519 462 519 440 549.5 c 128,-1,31
 418 580 418 580 375 580 c 0,32,33
 290 580 290 580 254.5 480 c 128,-1,34
 219 380 219 380 219 246 c 0,35,24
 219 177 219 177 240.5 146 c 128,-1,25
EndSplineSet
Substitution2: "'c2sc' Capitals to Small Capitals lookup 27 subtable" oe.sc
Substitution2: "'aalt' Access All Alternates lookup 0 subtable" oe.sc
Position2: "'cpsp' Capital Spacing lookup 0 subtable" dx=5 dy=0 dh=10 dv=0
EndChar

StartChar: P
Encoding: 80 80 218
Width: 595
GlyphClass: 2
Flags: W
AnchorPoint: "Anchor-18" 0 0 basechar 0
AnchorPoint: "Anchor-17" 0 0 basechar 0
AnchorPoint: "Anchor-16" 358 695 basechar 0
AnchorPoint: "Anchor-15" 0 0 basechar 0
AnchorPoint: "Anchor-14" 260 0 basechar 0
LayerCount: 2
Fore
SplineSet
540 644.5 m 128,-1,1
 609 594 609 594 609 497 c 0,2,3
 609 429 609 429 577.5 367 c 128,-1,4
 546 305 546 305 477 264.5 c 128,-1,5
 408 224 408 224 301 224 c 2,6,-1
 229 224 l 1,7,-1
 198 0 l 1,8,-1
 16 0 l 1,9,-1
 113 695 l 1,10,-1
 347 695 l 2,11,0
 471 695 471 695 540 644.5 c 128,-1,1
393.5 396 m 128,-1,13
 421 436 421 436 421 487 c 0,14,15
 421 526 421 526 398 545 c 128,-1,16
 375 564 375 564 328 564 c 2,17,-1
 277 564 l 1,18,-1
 248 356 l 1,19,-1
 300 356 l 2,20,12
 366 356 366 356 393.5 396 c 128,-1,13
EndSplineSet
Substitution2: "'c2sc' Capitals to Small Capitals lookup 27 subtable" p.sc
Substitution2: "'aalt' Access All Alternates lookup 0 subtable" p.sc
Position2: "'cpsp' Capital Spacing lookup 0 subtable" dx=5 dy=0 dh=10 dv=0
EndChar

StartChar: uni01A4
Encoding: 420 420 221
Width: 753
GlyphClass: 2
Flags: W
AnchorPoint: "Anchor-18" 0 0 basechar 0
AnchorPoint: "Anchor-17" 0 0 basechar 0
AnchorPoint: "Anchor-16" 516 695 basechar 0
AnchorPoint: "Anchor-15" 0 0 basechar 0
AnchorPoint: "Anchor-14" 418 0 basechar 0
LayerCount: 2
Fore
SplineSet
698 644.5 m 128,-1,1
 767 594 767 594 767 497 c 0,2,3
 767 429 767 429 735.5 367 c 128,-1,4
 704 305 704 305 635 264.5 c 128,-1,5
 566 224 566 224 459 224 c 2,6,-1
 387 224 l 1,7,-1
 356 0 l 1,8,-1
 174 0 l 1,9,-1
 253 564 l 1,10,-1
 227 564 l 2,11,12
 203 564 203 564 190 550.5 c 128,-1,13
 177 537 177 537 177 511 c 0,14,15
 177 495 177 495 180 480 c 128,-1,16
 183 465 183 465 184 461 c 1,17,-1
 64 415 l 1,18,19
 39 467 39 467 39 515 c 0,20,21
 39 598 39 598 94 646.5 c 128,-1,22
 149 695 149 695 240 695 c 2,23,-1
 505 695 l 2,24,0
 629 695 629 695 698 644.5 c 128,-1,1
551.5 396 m 128,-1,26
 579 436 579 436 579 487 c 0,27,28
 579 526 579 526 556 545 c 128,-1,29
 533 564 533 564 486 564 c 2,30,-1
 435 564 l 1,31,-1
 406 356 l 1,32,-1
 458 356 l 2,33,25
 524 356 524 356 551.5 396 c 128,-1,26
EndSplineSet
Substitution2: "'c2sc' Capitals to Small Capitals lookup 27 subtable" uni01A5.sc
Substitution2: "'aalt' Access All Alternates lookup 0 subtable" uni01A5.sc
Position2: "'cpsp' Capital Spacing lookup 0 subtable" dx=5 dy=0 dh=10 dv=0
EndChar

StartChar: Thorn
Encoding: 222 222 222
Width: 595
GlyphClass: 2
Flags: W
AnchorPoint: "Anchor-18" 0 0 basechar 0
AnchorPoint: "Anchor-17" 0 0 basechar 0
AnchorPoint: "Anchor-16" 358 695 basechar 0
AnchorPoint: "Anchor-15" 0 0 basechar 0
AnchorPoint: "Anchor-14" 260 0 basechar 0
LayerCount: 2
Fore
SplineSet
525.5 538 m 128,-1,1
 594 487 594 487 594 386 c 0,2,3
 594 320 594 320 565 257.5 c 128,-1,4
 536 195 536 195 466.5 152.5 c 128,-1,5
 397 110 397 110 285 110 c 2,6,-1
 213 110 l 1,7,-1
 198 0 l 1,8,-1
 16 0 l 1,9,-1
 113 695 l 1,10,-1
 295 695 l 1,11,-1
 280 589 l 1,12,-1
 331 589 l 2,13,0
 457 589 457 589 525.5 538 c 128,-1,1
378 285 m 128,-1,15
 406 328 406 328 406 381 c 0,16,17
 406 459 406 459 313 459 c 2,18,-1
 262 459 l 1,19,-1
 232 242 l 1,20,-1
 284 242 l 2,21,14
 350 242 350 242 378 285 c 128,-1,15
EndSplineSet
Substitution2: "'c2sc' Capitals to Small Capitals lookup 27 subtable" thorn.sc
Substitution2: "'aalt' Access All Alternates lookup 0 subtable" thorn.sc
Position2: "'cpsp' Capital Spacing lookup 0 subtable" dx=5 dy=0 dh=10 dv=0
EndChar

StartChar: Q
Encoding: 81 81 223
Width: 679
GlyphClass: 2
Flags: W
AnchorPoint: "Anchor-18" 0 0 basechar 0
AnchorPoint: "Anchor-17" 0 0 basechar 0
AnchorPoint: "Anchor-16" 400 695 basechar 0
AnchorPoint: "Anchor-15" 0 0 basechar 0
AnchorPoint: "Anchor-14" 302 0 basechar 0
LayerCount: 2
Fore
SplineSet
624.5 202.5 m 128,-1,1
 578 96 578 96 474 44 c 1,2,3
 545 41 545 41 589.5 25.5 c 128,-1,4
 634 10 634 10 671 -21 c 1,5,-1
 545 -163 l 1,6,7
 500 -96 500 -96 444.5 -57.5 c 128,-1,8
 389 -19 389 -19 302 -19 c 0,9,10
 172 -19 172 -19 102 56.5 c 128,-1,11
 32 132 32 132 32 267 c 0,12,13
 32 373 32 373 67.5 474.5 c 128,-1,14
 103 576 103 576 185.5 644.5 c 128,-1,15
 268 713 268 713 400 713 c 0,16,17
 531 713 531 713 601 638.5 c 128,-1,18
 671 564 671 564 671 428 c 0,19,0
 671 309 671 309 624.5 202.5 c 128,-1,1
243 146.5 m 128,-1,21
 267 115 267 115 316 115 c 0,22,23
 380 115 380 115 417.5 170.5 c 128,-1,24
 455 226 455 226 469 301.5 c 128,-1,25
 483 377 483 377 483 449 c 0,26,27
 483 518 483 518 459.5 549 c 128,-1,28
 436 580 436 580 387 580 c 0,29,30
 323 580 323 580 285.5 524.5 c 128,-1,31
 248 469 248 469 233.5 393 c 128,-1,32
 219 317 219 317 219 248 c 0,33,20
 219 178 219 178 243 146.5 c 128,-1,21
EndSplineSet
Substitution2: "'c2sc' Capitals to Small Capitals lookup 27 subtable" q.sc
Substitution2: "'aalt' Access All Alternates lookup 0 subtable" q.sc
Position2: "'cpsp' Capital Spacing lookup 0 subtable" dx=5 dy=0 dh=10 dv=0
EndChar

StartChar: uni024A
Encoding: 586 586 224
Width: 667
GlyphClass: 2
Flags: W
AnchorPoint: "Anchor-18" 0 0 basechar 0
AnchorPoint: "Anchor-17" 0 0 basechar 0
AnchorPoint: "Anchor-16" 397 695 basechar 0
AnchorPoint: "Anchor-15" 0 0 basechar 0
AnchorPoint: "Anchor-14" 0 0 basechar 0
LayerCount: 2
Fore
SplineSet
725 -182 m 1,0,1
 663 -224 663 -224 574 -224 c 0,2,3
 486 -224 486 -224 435.5 -182 c 128,-1,4
 385 -140 385 -140 385 -60 c 0,5,6
 385 -42 385 -42 388 -22 c 2,7,-1
 391 0 l 1,8,-1
 396 37 l 1,9,10
 337 -19 337 -19 250 -19 c 0,11,12
 148 -19 148 -19 89 55 c 128,-1,13
 30 129 30 129 30 256 c 0,14,15
 30 374 30 374 69.5 479 c 128,-1,16
 109 584 109 584 182.5 648.5 c 128,-1,17
 256 713 256 713 353 713 c 0,18,19
 401 713 401 713 434.5 697 c 128,-1,20
 468 681 468 681 496 653 c 1,21,-1
 508 695 l 1,22,-1
 670 695 l 1,23,-1
 573 0 l 1,24,-1
 574 0 l 1,25,-1
 569 -37 l 2,26,27
 568 -43 568 -43 568 -52 c 0,28,29
 568 -92 568 -92 609 -92 c 0,30,31
 629 -92 629 -92 644.5 -87.5 c 128,-1,32
 660 -83 660 -83 680 -73 c 1,33,-1
 725 -182 l 1,0,1
412 153 m 1,35,-1
 467 540 l 1,36,37
 450 559 450 559 429 569.5 c 128,-1,38
 408 580 408 580 379 580 c 0,39,40
 325 580 325 580 288.5 530 c 128,-1,41
 252 480 252 480 234.5 404 c 128,-1,42
 217 328 217 328 217 248 c 0,43,44
 217 174 217 174 241 142.5 c 128,-1,45
 265 111 265 111 310 111 c 0,46,34
 367 111 367 111 412 153 c 1,35,-1
EndSplineSet
Substitution2: "'c2sc' Capitals to Small Capitals lookup 27 subtable" uni024B.sc
Substitution2: "'aalt' Access All Alternates lookup 0 subtable" uni024B.sc
Position2: "'cpsp' Capital Spacing lookup 0 subtable" dx=5 dy=0 dh=10 dv=0
EndChar

StartChar: R
Encoding: 82 82 225
Width: 610
GlyphClass: 2
Flags: W
AnchorPoint: "Anchor-18" 0 0 basechar 0
AnchorPoint: "Anchor-17" 0 0 basechar 0
AnchorPoint: "Anchor-16" 365 695 basechar 0
AnchorPoint: "Anchor-15" 0 0 basechar 0
AnchorPoint: "Anchor-14" 270 0 basechar 0
LayerCount: 2
Fore
SplineSet
577.5 381 m 128,-1,1
 545 327 545 327 457 286 c 1,2,-1
 584 0 l 1,3,-1
 386 0 l 1,4,-1
 288 256 l 1,5,-1
 234 256 l 1,6,-1
 198 0 l 1,7,-1
 16 0 l 1,8,-1
 113 695 l 1,9,-1
 351 695 l 2,10,11
 477 695 477 695 543.5 644.5 c 128,-1,12
 610 594 610 594 610 507 c 0,13,0
 610 435 610 435 577.5 381 c 128,-1,1
251 382 m 1,14,-1
 313 382 l 2,15,16
 370 382 370 382 396 415.5 c 128,-1,17
 422 449 422 449 422 496 c 0,18,19
 422 532 422 532 399 549 c 128,-1,20
 376 566 376 566 329 566 c 2,21,-1
 277 566 l 1,22,-1
 251 382 l 1,14,-1
EndSplineSet
Substitution2: "'c2sc' Capitals to Small Capitals lookup 27 subtable" r.sc
Substitution2: "'aalt' Access All Alternates lookup 0 subtable" r.sc
Position2: "'cpsp' Capital Spacing lookup 0 subtable" dx=5 dy=0 dh=10 dv=0
EndChar

StartChar: uni024C
Encoding: 588 588 232
Width: 620
GlyphClass: 2
Flags: W
AnchorPoint: "Anchor-18" 0 0 basechar 0
AnchorPoint: "Anchor-17" 0 0 basechar 0
AnchorPoint: "Anchor-16" 376 695 basechar 0
AnchorPoint: "Anchor-15" 0 0 basechar 0
AnchorPoint: "Anchor-14" 281 0 basechar 0
LayerCount: 2
Fore
SplineSet
588.5 381 m 128,-1,1
 556 327 556 327 468 286 c 1,2,-1
 595 0 l 1,3,-1
 397 0 l 1,4,-1
 299 256 l 1,5,-1
 245 256 l 1,6,-1
 209 0 l 1,7,-1
 27 0 l 1,8,-1
 63 256 l 1,9,-1
 6 256 l 1,10,-1
 24 382 l 1,11,-1
 80 382 l 1,12,-1
 124 695 l 1,13,-1
 362 695 l 2,14,15
 488 695 488 695 554.5 644.5 c 128,-1,16
 621 594 621 594 621 507 c 0,17,0
 621 435 621 435 588.5 381 c 128,-1,1
288 566 m 1,18,-1
 262 382 l 1,19,-1
 324 382 l 2,20,21
 381 382 381 382 407 415.5 c 128,-1,22
 433 449 433 449 433 496 c 0,23,24
 433 532 433 532 410 549 c 128,-1,25
 387 566 387 566 340 566 c 2,26,-1
 288 566 l 1,18,-1
EndSplineSet
Substitution2: "'c2sc' Capitals to Small Capitals lookup 27 subtable" uni024D.sc
Substitution2: "'aalt' Access All Alternates lookup 0 subtable" uni024D.sc
Position2: "'cpsp' Capital Spacing lookup 0 subtable" dx=5 dy=0 dh=10 dv=0
EndChar

StartChar: uni2C64
Encoding: 11364 11364 233
Width: 610
GlyphClass: 2
Flags: W
AnchorPoint: "Anchor-18" 0 0 basechar 0
AnchorPoint: "Anchor-17" 0 0 basechar 0
AnchorPoint: "Anchor-16" 365 695 basechar 0
AnchorPoint: "Anchor-15" 0 0 basechar 0
AnchorPoint: "Anchor-14" 270 0 basechar 0
LayerCount: 2
Fore
SplineSet
577.5 381 m 128,-1,1
 545 327 545 327 457 286 c 1,2,-1
 584 0 l 1,3,-1
 386 0 l 1,4,-1
 288 256 l 1,5,-1
 234 256 l 1,6,-1
 198 0 l 1,7,-1
 199 0 l 1,8,-1
 194 -37 l 2,9,10
 193 -43 193 -43 193 -52 c 0,11,12
 193 -92 193 -92 234 -92 c 0,13,14
 254 -92 254 -92 269.5 -87.5 c 128,-1,15
 285 -83 285 -83 305 -73 c 1,16,-1
 350 -182 l 1,17,18
 288 -224 288 -224 199 -224 c 0,19,20
 111 -224 111 -224 60.5 -182 c 128,-1,21
 10 -140 10 -140 10 -60 c 0,22,23
 10 -42 10 -42 13 -22 c 2,24,-1
 16 0 l 1,25,-1
 113 695 l 1,26,-1
 351 695 l 2,27,28
 477 695 477 695 543.5 644.5 c 128,-1,29
 610 594 610 594 610 507 c 0,30,0
 610 435 610 435 577.5 381 c 128,-1,1
251 382 m 1,31,-1
 313 382 l 2,32,33
 370 382 370 382 396 415.5 c 128,-1,34
 422 449 422 449 422 496 c 0,35,36
 422 532 422 532 399 549 c 128,-1,37
 376 566 376 566 329 566 c 2,38,-1
 277 566 l 1,39,-1
 251 382 l 1,31,-1
EndSplineSet
Substitution2: "'ss01' Style Set 1 lookup 34 subtable" uni2C64.ss01
Substitution2: "'salt' Stylistic Alternatives lookup 33 subtable" uni2C64.ss01
Substitution2: "'c2sc' Capitals to Small Capitals lookup 27 subtable" uni2C64.sc
AlternateSubs2: "'aalt' Access All Alternates lookup 1 subtable" uni2C64.sc uni2C64.ss01
Position2: "'cpsp' Capital Spacing lookup 0 subtable" dx=5 dy=0 dh=10 dv=0
EndChar

StartChar: S
Encoding: 83 83 234
Width: 569
GlyphClass: 2
Flags: W
AnchorPoint: "Anchor-18" 0 0 basechar 0
AnchorPoint: "Anchor-17" 0 0 basechar 0
AnchorPoint: "Anchor-16" 356 695 basechar 0
AnchorPoint: "Anchor-15" 0 0 basechar 0
AnchorPoint: "Anchor-14" 246 0 basechar 0
LayerCount: 2
Fore
SplineSet
582 620 m 1,1,-1
 488 524 l 1,2,3
 456 553 456 553 422 566.5 c 128,-1,4
 388 580 388 580 348 580 c 0,5,6
 305 580 305 580 280 562 c 128,-1,7
 255 544 255 544 255 513 c 0,8,9
 255 486 255 486 278 470 c 128,-1,10
 301 454 301 454 367 432 c 0,11,12
 457 402 457 402 500.5 355 c 128,-1,13
 544 308 544 308 544 233 c 0,14,15
 544 169 544 169 513.5 111.5 c 128,-1,16
 483 54 483 54 415 17.5 c 128,-1,17
 347 -19 347 -19 240 -19 c 0,18,19
 81 -19 81 -19 -21 85 c 1,20,-1
 83 189 l 1,21,22
 149 121 149 121 244 121 c 0,23,24
 295 121 295 121 323.5 142 c 128,-1,25
 352 163 352 163 352 201 c 0,26,27
 352 231 352 231 329 251.5 c 128,-1,28
 306 272 306 272 248 292 c 0,29,30
 149 325 149 325 106 373 c 128,-1,31
 63 421 63 421 63 490 c 0,32,33
 63 548 63 548 93.5 599 c 128,-1,34
 124 650 124 650 187 681.5 c 128,-1,35
 250 713 250 713 342 713 c 0,36,0
 489 713 489 713 582 620 c 1,1,-1
EndSplineSet
Substitution2: "'c2sc' Capitals to Small Capitals lookup 27 subtable" s.sc
Substitution2: "'aalt' Access All Alternates lookup 0 subtable" s.sc
Position2: "'cpsp' Capital Spacing lookup 0 subtable" dx=5 dy=0 dh=10 dv=0
EndChar

StartChar: uniA78B
Encoding: 42891 42891 236
Width: 245
GlyphClass: 2
Flags: W
LayerCount: 2
Fore
SplineSet
70 330 m 1,0,-1
 100 695 l 1,1,-1
 265 695 l 1,2,-1
 192 330 l 1,3,-1
 70 330 l 1,0,-1
EndSplineSet
Position2: "'cpsp' Capital Spacing lookup 0 subtable" dx=5 dy=0 dh=10 dv=0
EndChar

StartChar: Scedilla
Encoding: 350 350 238
Width: 569
GlyphClass: 2
Flags: W
AnchorPoint: "Anchor-18" 0 0 basechar 0
AnchorPoint: "Anchor-17" 0 0 basechar 0
AnchorPoint: "Anchor-16" 356 695 basechar 0
AnchorPoint: "Anchor-15" 0 0 basechar 0
AnchorPoint: "Anchor-14" 241 -269 basechar 0
LayerCount: 2
Fore
SplineSet
500.5 355 m 128,-1,1
 544 308 544 308 544 233 c 0,2,3
 544 175 544 175 519 122 c 128,-1,4
 494 69 494 69 438 31 c 128,-1,5
 382 -7 382 -7 295 -16 c 1,6,-1
 290 -45 l 1,7,8
 336 -51 336 -51 360 -75.5 c 128,-1,9
 384 -100 384 -100 384 -139 c 0,10,11
 384 -169 384 -169 367 -199 c 128,-1,12
 350 -229 350 -229 312 -249 c 128,-1,13
 274 -269 274 -269 215 -269 c 0,14,15
 148 -269 148 -269 101 -235 c 1,16,-1
 150 -158 l 1,17,18
 179 -174 179 -174 210 -174 c 0,19,20
 260 -174 260 -174 260 -144 c 0,21,22
 260 -128 260 -128 240 -122 c 128,-1,23
 220 -116 220 -116 173 -116 c 1,24,-1
 198 -17 l 1,25,26
 66 -4 66 -4 -21 85 c 1,27,-1
 83 189 l 1,28,29
 149 121 149 121 244 121 c 0,30,31
 295 121 295 121 323.5 142 c 128,-1,32
 352 163 352 163 352 201 c 0,33,34
 352 231 352 231 329 251.5 c 128,-1,35
 306 272 306 272 248 292 c 0,36,37
 149 325 149 325 106 373 c 128,-1,38
 63 421 63 421 63 490 c 0,39,40
 63 548 63 548 93.5 599 c 128,-1,41
 124 650 124 650 187 681.5 c 128,-1,42
 250 713 250 713 342 713 c 0,43,44
 489 713 489 713 582 620 c 1,45,-1
 488 524 l 1,46,47
 456 553 456 553 422 566.5 c 128,-1,48
 388 580 388 580 348 580 c 0,49,50
 305 580 305 580 280 562 c 128,-1,51
 255 544 255 544 255 513 c 0,52,53
 255 486 255 486 278 470 c 128,-1,54
 301 454 301 454 367 432 c 0,55,0
 457 402 457 402 500.5 355 c 128,-1,1
EndSplineSet
Substitution2: "'c2sc' Capitals to Small Capitals lookup 27 subtable" scedilla.sc
Substitution2: "'locl' Localized Forms in Latin lookup 5 subtable" Scommaaccent
Substitution2: "'locl' Localized Forms in Latin lookup 4 subtable" Scommaaccent
AlternateSubs2: "'aalt' Access All Alternates lookup 1 subtable" Scommaaccent scedilla.sc
Position2: "'cpsp' Capital Spacing lookup 0 subtable" dx=5 dy=0 dh=10 dv=0
EndChar

StartChar: uni1E9E
Encoding: 7838 7838 243
Width: 660
GlyphClass: 2
Flags: W
LayerCount: 2
Fore
SplineSet
514 691.5 m 128,-1,1
 582 670 582 670 650 633 c 1,2,-1
 640 557 l 1,3,-1
 483 395 l 1,4,5
 635 362 635 362 635 228 c 0,6,7
 635 155 635 155 599 99 c 128,-1,8
 563 43 563 43 501 12 c 128,-1,9
 439 -19 439 -19 363 -19 c 0,10,11
 286 -19 286 -19 233 10 c 1,12,-1
 299 129 l 1,13,14
 320 119 320 119 353 119 c 0,15,16
 395 119 395 119 419.5 148 c 128,-1,17
 444 177 444 177 444 221 c 0,18,19
 444 263 444 263 413 285 c 128,-1,20
 382 307 382 307 311 311 c 1,21,-1
 323 401 l 1,22,-1
 473 562 l 1,23,24
 412 580 412 580 362 580 c 0,25,26
 320 580 320 580 297 558 c 128,-1,27
 274 536 274 536 267 488 c 2,28,-1
 198 0 l 1,29,-1
 16 0 l 1,30,-1
 84 485 l 2,31,32
 99 594 99 594 169.5 653.5 c 128,-1,33
 240 713 240 713 362 713 c 0,34,0
 446 713 446 713 514 691.5 c 128,-1,1
EndSplineSet
Substitution2: "'c2sc' Capitals to Small Capitals lookup 27 subtable" germandbls.sc
Substitution2: "'aalt' Access All Alternates lookup 0 subtable" germandbls.sc
Position2: "'cpsp' Capital Spacing lookup 0 subtable" dx=5 dy=0 dh=10 dv=0
EndChar

StartChar: T
Encoding: 84 84 245
Width: 536
GlyphClass: 2
Flags: W
AnchorPoint: "Anchor-18" 280 347 basechar 0
AnchorPoint: "Anchor-17" 0 0 basechar 0
AnchorPoint: "Anchor-16" 329 695 basechar 0
AnchorPoint: "Anchor-15" 0 0 basechar 0
AnchorPoint: "Anchor-14" 231 0 basechar 0
LayerCount: 2
Fore
SplineSet
600 695 m 1,0,-1
 561 554 l 1,1,-1
 400 554 l 1,2,-1
 322 0 l 1,3,-1
 140 0 l 1,4,-1
 218 554 l 1,5,-1
 47 554 l 1,6,-1
 66 695 l 1,7,-1
 600 695 l 1,0,-1
EndSplineSet
Substitution2: "'c2sc' Capitals to Small Capitals lookup 27 subtable" t.sc
Substitution2: "'aalt' Access All Alternates lookup 0 subtable" t.sc
Position2: "'cpsp' Capital Spacing lookup 0 subtable" dx=5 dy=0 dh=10 dv=0
EndChar

StartChar: Tbar
Encoding: 358 358 246
Width: 536
GlyphClass: 2
Flags: W
AnchorPoint: "Anchor-18" 280 347 basechar 0
AnchorPoint: "Anchor-17" 0 0 basechar 0
AnchorPoint: "Anchor-16" 329 695 basechar 0
AnchorPoint: "Anchor-15" 0 0 basechar 0
AnchorPoint: "Anchor-14" 231 0 basechar 0
LayerCount: 2
Fore
SplineSet
561 554 m 1,0,-1
 400 554 l 1,1,-1
 377 391 l 1,2,-1
 486 391 l 1,3,-1
 473 291 l 1,4,-1
 363 291 l 1,5,-1
 322 0 l 1,6,-1
 140 0 l 1,7,-1
 181 291 l 1,8,-1
 72 291 l 1,9,-1
 85 391 l 1,10,-1
 195 391 l 1,11,-1
 218 554 l 1,12,-1
 47 554 l 1,13,-1
 66 695 l 1,14,-1
 600 695 l 1,15,-1
 561 554 l 1,0,-1
EndSplineSet
Substitution2: "'c2sc' Capitals to Small Capitals lookup 27 subtable" tbar.sc
Substitution2: "'aalt' Access All Alternates lookup 0 subtable" tbar.sc
Position2: "'cpsp' Capital Spacing lookup 0 subtable" dx=5 dy=0 dh=10 dv=0
EndChar

StartChar: uni0162
Encoding: 354 354 248
Width: 536
GlyphClass: 2
Flags: W
AnchorPoint: "Anchor-18" 280 347 basechar 0
AnchorPoint: "Anchor-17" 0 0 basechar 0
AnchorPoint: "Anchor-16" 329 695 basechar 0
AnchorPoint: "Anchor-15" 0 0 basechar 0
AnchorPoint: "Anchor-14" 231 0 basechar 0
LayerCount: 2
Fore
SplineSet
322 0 m 1,0,-1
 315 -45 l 1,1,2
 360 -51 360 -51 383.5 -75 c 128,-1,3
 407 -99 407 -99 407 -139 c 0,4,5
 407 -168 407 -168 390 -198 c 128,-1,6
 373 -228 373 -228 335.5 -248.5 c 128,-1,7
 298 -269 298 -269 238 -269 c 0,8,9
 171 -269 171 -269 124 -235 c 1,10,-1
 173 -158 l 1,11,12
 202 -174 202 -174 232 -174 c 0,13,14
 283 -174 283 -174 283 -144 c 0,15,16
 283 -128 283 -128 263.5 -122 c 128,-1,17
 244 -116 244 -116 196 -116 c 1,18,-1
 225 0 l 1,19,-1
 140 0 l 1,20,-1
 218 554 l 1,21,-1
 47 554 l 1,22,-1
 66 695 l 1,23,-1
 600 695 l 1,24,-1
 561 554 l 1,25,-1
 400 554 l 1,26,-1
 322 0 l 1,0,-1
EndSplineSet
Substitution2: "'c2sc' Capitals to Small Capitals lookup 27 subtable" uni0163.sc
Substitution2: "'locl' Localized Forms in Latin lookup 5 subtable" uni021A
Substitution2: "'locl' Localized Forms in Latin lookup 4 subtable" uni021A
AlternateSubs2: "'aalt' Access All Alternates lookup 1 subtable" uni021A uni0163.sc
Position2: "'cpsp' Capital Spacing lookup 0 subtable" dx=5 dy=0 dh=10 dv=0
EndChar

StartChar: uni023E
Encoding: 574 574 251
Width: 536
GlyphClass: 2
Flags: W
AnchorPoint: "Anchor-18" 0 0 basechar 0
AnchorPoint: "Anchor-17" 0 0 basechar 0
AnchorPoint: "Anchor-16" 328 695 basechar 0
AnchorPoint: "Anchor-15" 0 0 basechar 0
AnchorPoint: "Anchor-14" 231 0 basechar 0
LayerCount: 2
Fore
SplineSet
563 562 m 1,0,-1
 478 562 l 1,1,-1
 360 354 l 1,2,-1
 310 0 l 1,3,-1
 159 0 l 1,4,-1
 116 -76 l 1,5,-1
 69 -52 l 1,6,-1
 170 125 l 1,7,-1
 232 562 l 1,8,-1
 48 562 l 1,9,-1
 66 695 l 1,10,-1
 494 695 l 1,11,-1
 529 757 l 1,12,-1
 575 734 l 1,13,-1
 553 695 l 1,14,-1
 600 695 l 1,15,-1
 563 562 l 1,0,-1
379 494 m 1,16,-1
 418 562 l 1,17,-1
 389 562 l 1,18,-1
 379 494 l 1,16,-1
EndSplineSet
Substitution2: "'c2sc' Capitals to Small Capitals lookup 27 subtable" uni2C66.sc
Substitution2: "'aalt' Access All Alternates lookup 0 subtable" uni2C66.sc
Position2: "'cpsp' Capital Spacing lookup 0 subtable" dx=5 dy=0 dh=10 dv=0
EndChar

StartChar: uni01AC
Encoding: 428 428 254
Width: 596
GlyphClass: 2
Flags: W
AnchorPoint: "Anchor-18" 0 0 basechar 0
AnchorPoint: "Anchor-17" 0 0 basechar 0
AnchorPoint: "Anchor-16" 358 695 basechar 0
AnchorPoint: "Anchor-15" 0 0 basechar 0
AnchorPoint: "Anchor-14" 291 0 basechar 0
LayerCount: 2
Fore
SplineSet
621 554 m 1,0,-1
 460 554 l 1,1,-1
 382 0 l 1,2,-1
 200 0 l 1,3,-1
 278 554 l 1,4,-1
 222 554 l 2,5,6
 200 554 200 554 188.5 542 c 128,-1,7
 177 530 177 530 177 508 c 0,8,9
 177 496 177 496 184 461 c 1,10,-1
 64 415 l 1,11,12
 39 467 39 467 39 515 c 0,13,14
 39 598 39 598 92 646.5 c 128,-1,15
 145 695 145 695 229 695 c 2,16,-1
 660 695 l 1,17,-1
 621 554 l 1,0,-1
EndSplineSet
Substitution2: "'c2sc' Capitals to Small Capitals lookup 27 subtable" uni01AD.sc
Substitution2: "'aalt' Access All Alternates lookup 0 subtable" uni01AD.sc
Position2: "'cpsp' Capital Spacing lookup 0 subtable" dx=5 dy=0 dh=10 dv=0
EndChar

StartChar: uni0184
Encoding: 388 388 257
Width: 607
GlyphClass: 2
Flags: W
AnchorPoint: "Anchor-18" 0 0 basechar 0
AnchorPoint: "Anchor-17" 0 0 basechar 0
AnchorPoint: "Anchor-16" 364 695 basechar 0
AnchorPoint: "Anchor-15" 0 0 basechar 0
AnchorPoint: "Anchor-14" 267 0 basechar 0
LayerCount: 2
Fore
SplineSet
530.5 413.5 m 128,-1,1
 595 364 595 364 595 270 c 0,2,3
 595 201 595 201 563.5 140 c 128,-1,4
 532 79 532 79 463.5 39.5 c 128,-1,5
 395 0 395 0 290 0 c 2,6,-1
 33 0 l 1,7,-1
 101 481 l 1,8,-1
 31 535 l 1,9,10
 102 597 102 597 162 695 c 1,11,-1
 313 695 l 1,12,-1
 280 463 l 1,13,-1
 347 463 l 2,14,0
 466 463 466 463 530.5 413.5 c 128,-1,1
376.5 170 m 128,-1,16
 403 208 403 208 403 256 c 0,17,18
 403 295 403 295 381 316 c 128,-1,19
 359 337 359 337 314 337 c 2,20,-1
 263 337 l 1,21,-1
 234 132 l 1,22,-1
 287 132 l 2,23,15
 350 132 350 132 376.5 170 c 128,-1,16
EndSplineSet
Substitution2: "'c2sc' Capitals to Small Capitals lookup 27 subtable" uni0185.sc
Substitution2: "'aalt' Access All Alternates lookup 0 subtable" uni0185.sc
Position2: "'cpsp' Capital Spacing lookup 0 subtable" dx=5 dy=0 dh=10 dv=0
EndChar

StartChar: uni01A7
Encoding: 423 423 258
Width: 560
GlyphClass: 2
Flags: W
AnchorPoint: "Anchor-18" 0 0 basechar 0
AnchorPoint: "Anchor-17" 0 0 basechar 0
AnchorPoint: "Anchor-16" 340 695 basechar 0
AnchorPoint: "Anchor-15" 0 0 basechar 0
AnchorPoint: "Anchor-14" 242 0 basechar 0
LayerCount: 2
Fore
SplineSet
514.5 665 m 128,-1,1
 575 617 575 617 575 536 c 0,2,3
 575 441 575 441 513.5 386 c 128,-1,4
 452 331 452 331 330 293 c 0,5,6
 256 272 256 272 225.5 245.5 c 128,-1,7
 195 219 195 219 195 182 c 0,8,9
 195 153 195 153 215 136 c 128,-1,10
 235 119 235 119 276 119 c 0,11,12
 361 119 361 119 450 186 c 1,13,-1
 529 82 l 1,14,15
 477 37 477 37 406 9 c 128,-1,16
 335 -19 335 -19 249 -19 c 0,17,18
 174 -19 174 -19 119.5 5.5 c 128,-1,19
 65 30 65 30 36.5 73.5 c 128,-1,20
 8 117 8 117 8 175 c 0,21,22
 8 274 8 274 66 332 c 128,-1,23
 124 390 124 390 239 427 c 0,24,25
 298 444 298 444 329.5 458 c 128,-1,26
 361 472 361 472 374.5 489 c 128,-1,27
 388 506 388 506 388 530 c 0,28,29
 388 580 388 580 320 580 c 0,30,31
 276 580 276 580 237 565.5 c 128,-1,32
 198 551 198 551 158 522 c 1,33,-1
 88 622 l 1,34,35
 200 713 200 713 352 713 c 0,36,0
 454 713 454 713 514.5 665 c 128,-1,1
EndSplineSet
Substitution2: "'c2sc' Capitals to Small Capitals lookup 27 subtable" uni01A8.sc
Substitution2: "'aalt' Access All Alternates lookup 0 subtable" uni01A8.sc
Position2: "'cpsp' Capital Spacing lookup 0 subtable" dx=5 dy=0 dh=10 dv=0
EndChar

StartChar: uni01AE
Encoding: 430 430 259
Width: 536
GlyphClass: 2
Flags: W
AnchorPoint: "Anchor-18" 280 347 basechar 0
AnchorPoint: "Anchor-17" 0 0 basechar 0
AnchorPoint: "Anchor-16" 329 695 basechar 0
AnchorPoint: "Anchor-15" 0 0 basechar 0
AnchorPoint: "Anchor-14" 231 0 basechar 0
LayerCount: 2
Fore
SplineSet
400 554 m 1,0,-1
 322 0 l 1,1,-1
 323 0 l 1,2,-1
 318 -37 l 2,3,4
 317 -43 317 -43 317 -52 c 0,5,6
 317 -92 317 -92 358 -92 c 0,7,8
 378 -92 378 -92 393.5 -87.5 c 128,-1,9
 409 -83 409 -83 429 -73 c 1,10,-1
 474 -182 l 1,11,12
 412 -224 412 -224 323 -224 c 0,13,14
 235 -224 235 -224 184.5 -182 c 128,-1,15
 134 -140 134 -140 134 -60 c 0,16,17
 134 -42 134 -42 137 -22 c 2,18,-1
 140 0 l 1,19,-1
 218 554 l 1,20,-1
 47 554 l 1,21,-1
 66 695 l 1,22,-1
 600 695 l 1,23,-1
 561 554 l 1,24,-1
 400 554 l 1,0,-1
EndSplineSet
Substitution2: "'c2sc' Capitals to Small Capitals lookup 27 subtable" uni0288.sc
Substitution2: "'aalt' Access All Alternates lookup 0 subtable" uni0288.sc
Position2: "'cpsp' Capital Spacing lookup 0 subtable" dx=5 dy=0 dh=10 dv=0
EndChar

StartChar: U
Encoding: 85 85 260
Width: 636
GlyphClass: 2
Flags: W
AnchorPoint: "Anchor-18" 0 0 basechar 0
AnchorPoint: "Anchor-17" 663 695 basechar 0
AnchorPoint: "Anchor-16" 378 695 basechar 0
AnchorPoint: "Anchor-15" 409 0 basechar 0
AnchorPoint: "Anchor-14" 281 0 basechar 0
LayerCount: 2
Fore
SplineSet
589 232 m 2,0,1
 579 160 579 160 540.5 103 c 128,-1,2
 502 46 502 46 436 13.5 c 128,-1,3
 370 -19 370 -19 281 -19 c 0,4,5
 159 -19 159 -19 97.5 36.5 c 128,-1,6
 36 92 36 92 36 188 c 0,7,8
 36 211 36 211 39 235 c 2,9,-1
 103 695 l 1,10,-1
 285 695 l 1,11,-1
 221 238 l 2,12,13
 218 216 218 216 218 198 c 0,14,15
 218 156 218 156 236.5 136.5 c 128,-1,16
 255 117 255 117 294 117 c 0,17,18
 344 117 344 117 371 147.5 c 128,-1,19
 398 178 398 178 407 241 c 2,20,-1
 471 695 l 1,21,-1
 653 695 l 1,22,-1
 589 232 l 2,0,1
EndSplineSet
Substitution2: "'c2sc' Capitals to Small Capitals lookup 27 subtable" u.sc
Substitution2: "'aalt' Access All Alternates lookup 0 subtable" u.sc
Position2: "'cpsp' Capital Spacing lookup 0 subtable" dx=5 dy=0 dh=10 dv=0
EndChar

StartChar: uni0244
Encoding: 580 580 262
Width: 678
GlyphClass: 2
Flags: W
AnchorPoint: "Anchor-18" 0 0 basechar 0
AnchorPoint: "Anchor-17" 682 695 basechar 0
AnchorPoint: "Anchor-16" 397 695 basechar 0
AnchorPoint: "Anchor-15" 428 0 basechar 0
AnchorPoint: "Anchor-14" 300 0 basechar 0
LayerCount: 2
Fore
SplineSet
698 497 m 1,0,-1
 645 497 l 1,1,-1
 608 232 l 2,2,3
 598 160 598 160 559.5 103 c 128,-1,4
 521 46 521 46 455 13.5 c 128,-1,5
 389 -19 389 -19 300 -19 c 0,6,7
 178 -19 178 -19 116.5 36.5 c 128,-1,8
 55 92 55 92 55 188 c 0,9,10
 55 211 55 211 58 235 c 2,11,-1
 94 497 l 1,12,-1
 43 497 l 1,13,-1
 56 597 l 1,14,-1
 108 597 l 1,15,-1
 122 695 l 1,16,-1
 304 695 l 1,17,-1
 290 597 l 1,18,-1
 476 597 l 1,19,-1
 490 695 l 1,20,-1
 672 695 l 1,21,-1
 658 597 l 1,22,-1
 711 597 l 1,23,-1
 698 497 l 1,0,-1
462 497 m 1,24,-1
 276 497 l 1,25,-1
 240 238 l 2,26,27
 237 216 237 216 237 198 c 0,28,29
 237 156 237 156 255.5 136.5 c 128,-1,30
 274 117 274 117 313 117 c 0,31,32
 363 117 363 117 390 147.5 c 128,-1,33
 417 178 417 178 426 241 c 2,34,-1
 462 497 l 1,24,-1
EndSplineSet
Substitution2: "'c2sc' Capitals to Small Capitals lookup 27 subtable" uni0289.sc
Substitution2: "'aalt' Access All Alternates lookup 0 subtable" uni0289.sc
Position2: "'cpsp' Capital Spacing lookup 0 subtable" dx=5 dy=0 dh=10 dv=0
EndChar

StartChar: Uhorn
Encoding: 431 431 275
Width: 724
GlyphClass: 2
Flags: W
AnchorPoint: "Anchor-18" 0 0 basechar 0
AnchorPoint: "Anchor-17" 715 695 basechar 0
AnchorPoint: "Anchor-16" 378 695 basechar 0
AnchorPoint: "Anchor-15" 409 0 basechar 0
AnchorPoint: "Anchor-14" 281 0 basechar 0
LayerCount: 2
Fore
SplineSet
760 592.5 m 128,-1,1
 715 551 715 551 633 550 c 1,2,-1
 589 232 l 2,3,4
 579 160 579 160 540.5 103 c 128,-1,5
 502 46 502 46 436 13.5 c 128,-1,6
 370 -19 370 -19 281 -19 c 0,7,8
 159 -19 159 -19 97.5 36.5 c 128,-1,9
 36 92 36 92 36 188 c 0,10,11
 36 211 36 211 39 235 c 2,12,-1
 103 695 l 1,13,-1
 285 695 l 1,14,-1
 221 238 l 2,15,16
 218 216 218 216 218 198 c 0,17,18
 218 156 218 156 236.5 136.5 c 128,-1,19
 255 117 255 117 294 117 c 0,20,21
 344 117 344 117 371 147.5 c 128,-1,22
 398 178 398 178 407 241 c 2,23,-1
 471 695 l 1,24,-1
 653 695 l 1,25,-1
 645 636 l 1,26,27
 669 643 669 643 679.5 661 c 128,-1,28
 690 679 690 679 690 710 c 0,29,30
 690 731 690 731 684 759 c 1,31,-1
 796 772 l 1,32,33
 805 747 805 747 805 713 c 0,34,0
 805 634 805 634 760 592.5 c 128,-1,1
EndSplineSet
Substitution2: "'c2sc' Capitals to Small Capitals lookup 27 subtable" uhorn.sc
Substitution2: "'aalt' Access All Alternates lookup 0 subtable" uhorn.sc
Position2: "'cpsp' Capital Spacing lookup 0 subtable" dx=5 dy=0 dh=10 dv=0
EndChar

StartChar: uni1EE8
Encoding: 7912 7912 276
Width: 724
GlyphClass: 2
Flags: W
AnchorPoint: "Anchor-18" 0 0 basechar 0
AnchorPoint: "Anchor-17" 715 695 basechar 0
AnchorPoint: "Anchor-16" 403 971 basechar 0
AnchorPoint: "Anchor-15" 409 0 basechar 0
AnchorPoint: "Anchor-14" 281 0 basechar 0
LayerCount: 2
Fore
SplineSet
555 831 m 1,0,-1
 302 744 l 1,1,-1
 264 832 l 1,2,-1
 500 963 l 1,3,-1
 555 831 l 1,0,-1
760 592.5 m 128,-1,5
 715 551 715 551 633 550 c 1,6,-1
 589 232 l 2,7,8
 579 160 579 160 540.5 103 c 128,-1,9
 502 46 502 46 436 13.5 c 128,-1,10
 370 -19 370 -19 281 -19 c 0,11,12
 159 -19 159 -19 97.5 36.5 c 128,-1,13
 36 92 36 92 36 188 c 0,14,15
 36 211 36 211 39 235 c 2,16,-1
 103 695 l 1,17,-1
 285 695 l 1,18,-1
 221 238 l 2,19,20
 218 216 218 216 218 198 c 0,21,22
 218 156 218 156 236.5 136.5 c 128,-1,23
 255 117 255 117 294 117 c 0,24,25
 344 117 344 117 371 147.5 c 128,-1,26
 398 178 398 178 407 241 c 2,27,-1
 471 695 l 1,28,-1
 653 695 l 1,29,-1
 645 636 l 1,30,31
 669 643 669 643 679.5 661 c 128,-1,32
 690 679 690 679 690 710 c 0,33,34
 690 731 690 731 684 759 c 1,35,-1
 796 772 l 1,36,37
 805 747 805 747 805 713 c 0,38,4
 805 634 805 634 760 592.5 c 128,-1,5
EndSplineSet
Substitution2: "'c2sc' Capitals to Small Capitals lookup 27 subtable" uni1EE9.sc
Substitution2: "'aalt' Access All Alternates lookup 0 subtable" uni1EE9.sc
Position2: "'cpsp' Capital Spacing lookup 0 subtable" dx=5 dy=0 dh=10 dv=0
EndChar

StartChar: uni1EF0
Encoding: 7920 7920 277
Width: 724
GlyphClass: 2
Flags: W
AnchorPoint: "Anchor-18" 0 0 basechar 0
AnchorPoint: "Anchor-17" 715 695 basechar 0
AnchorPoint: "Anchor-16" 378 695 basechar 0
AnchorPoint: "Anchor-15" 409 0 basechar 0
AnchorPoint: "Anchor-14" 251 -252 basechar 0
LayerCount: 2
Fore
SplineSet
760 592.5 m 128,-1,1
 715 551 715 551 633 550 c 1,2,-1
 589 232 l 2,3,4
 579 160 579 160 540.5 103 c 128,-1,5
 502 46 502 46 436 13.5 c 128,-1,6
 370 -19 370 -19 281 -19 c 0,7,8
 159 -19 159 -19 97.5 36.5 c 128,-1,9
 36 92 36 92 36 188 c 0,10,11
 36 211 36 211 39 235 c 2,12,-1
 103 695 l 1,13,-1
 285 695 l 1,14,-1
 221 238 l 2,15,16
 218 216 218 216 218 198 c 0,17,18
 218 156 218 156 236.5 136.5 c 128,-1,19
 255 117 255 117 294 117 c 0,20,21
 344 117 344 117 371 147.5 c 128,-1,22
 398 178 398 178 407 241 c 2,23,-1
 471 695 l 1,24,-1
 653 695 l 1,25,-1
 645 636 l 1,26,27
 669 643 669 643 679.5 661 c 128,-1,28
 690 679 690 679 690 710 c 0,29,30
 690 731 690 731 684 759 c 1,31,-1
 796 772 l 1,32,33
 805 747 805 747 805 713 c 0,34,0
 805 634 805 634 760 592.5 c 128,-1,1
335.5 -80 m 128,-1,36
 360 -104 360 -104 360 -142 c 0,37,38
 360 -189 360 -189 327.5 -220.5 c 128,-1,39
 295 -252 295 -252 247 -252 c 0,40,41
 206 -252 206 -252 181.5 -228 c 128,-1,42
 157 -204 157 -204 157 -166 c 0,43,44
 157 -119 157 -119 189.5 -87.5 c 128,-1,45
 222 -56 222 -56 270 -56 c 0,46,35
 311 -56 311 -56 335.5 -80 c 128,-1,36
EndSplineSet
Substitution2: "'c2sc' Capitals to Small Capitals lookup 27 subtable" uni1EF1.sc
Substitution2: "'aalt' Access All Alternates lookup 0 subtable" uni1EF1.sc
Position2: "'cpsp' Capital Spacing lookup 0 subtable" dx=5 dy=0 dh=10 dv=0
EndChar

StartChar: uni1EEA
Encoding: 7914 7914 278
Width: 724
GlyphClass: 2
Flags: W
AnchorPoint: "Anchor-18" 0 0 basechar 0
AnchorPoint: "Anchor-17" 715 695 basechar 0
AnchorPoint: "Anchor-16" 403 972 basechar 0
AnchorPoint: "Anchor-15" 409 0 basechar 0
AnchorPoint: "Anchor-14" 281 0 basechar 0
LayerCount: 2
Fore
SplineSet
543 832 m 1,0,-1
 498 746 l 1,1,-1
 266 830 l 1,2,-1
 339 962 l 1,3,-1
 543 832 l 1,0,-1
760 592.5 m 128,-1,5
 715 551 715 551 633 550 c 1,6,-1
 589 232 l 2,7,8
 579 160 579 160 540.5 103 c 128,-1,9
 502 46 502 46 436 13.5 c 128,-1,10
 370 -19 370 -19 281 -19 c 0,11,12
 159 -19 159 -19 97.5 36.5 c 128,-1,13
 36 92 36 92 36 188 c 0,14,15
 36 211 36 211 39 235 c 2,16,-1
 103 695 l 1,17,-1
 285 695 l 1,18,-1
 221 238 l 2,19,20
 218 216 218 216 218 198 c 0,21,22
 218 156 218 156 236.5 136.5 c 128,-1,23
 255 117 255 117 294 117 c 0,24,25
 344 117 344 117 371 147.5 c 128,-1,26
 398 178 398 178 407 241 c 2,27,-1
 471 695 l 1,28,-1
 653 695 l 1,29,-1
 645 636 l 1,30,31
 669 643 669 643 679.5 661 c 128,-1,32
 690 679 690 679 690 710 c 0,33,34
 690 731 690 731 684 759 c 1,35,-1
 796 772 l 1,36,37
 805 747 805 747 805 713 c 0,38,4
 805 634 805 634 760 592.5 c 128,-1,5
EndSplineSet
Substitution2: "'c2sc' Capitals to Small Capitals lookup 27 subtable" uni1EEB.sc
Substitution2: "'aalt' Access All Alternates lookup 0 subtable" uni1EEB.sc
Position2: "'cpsp' Capital Spacing lookup 0 subtable" dx=5 dy=0 dh=10 dv=0
EndChar

StartChar: uni1EEC
Encoding: 7916 7916 279
Width: 724
GlyphClass: 2
Flags: W
AnchorPoint: "Anchor-18" 0 0 basechar 0
AnchorPoint: "Anchor-17" 715 695 basechar 0
AnchorPoint: "Anchor-16" 425 1005 basechar 0
AnchorPoint: "Anchor-15" 409 0 basechar 0
AnchorPoint: "Anchor-14" 281 0 basechar 0
LayerCount: 2
Fore
SplineSet
330 908 m 1,1,-1
 311 979 l 1,2,3
 360 1005 360 1005 419 1005 c 0,4,5
 479 1005 479 1005 510 977.5 c 128,-1,6
 541 950 541 950 541 906 c 0,7,8
 541 824 541 824 443 804 c 1,9,-1
 438 764 l 1,10,-1
 338 764 l 1,11,-1
 348 855 l 1,12,13
 425 858 425 858 425 896 c 0,14,15
 425 921 425 921 390 921 c 0,16,0
 364 921 364 921 330 908 c 1,1,-1
760 592.5 m 128,-1,18
 715 551 715 551 633 550 c 1,19,-1
 589 232 l 2,20,21
 579 160 579 160 540.5 103 c 128,-1,22
 502 46 502 46 436 13.5 c 128,-1,23
 370 -19 370 -19 281 -19 c 0,24,25
 159 -19 159 -19 97.5 36.5 c 128,-1,26
 36 92 36 92 36 188 c 0,27,28
 36 211 36 211 39 235 c 2,29,-1
 103 695 l 1,30,-1
 285 695 l 1,31,-1
 221 238 l 2,32,33
 218 216 218 216 218 198 c 0,34,35
 218 156 218 156 236.5 136.5 c 128,-1,36
 255 117 255 117 294 117 c 0,37,38
 344 117 344 117 371 147.5 c 128,-1,39
 398 178 398 178 407 241 c 2,40,-1
 471 695 l 1,41,-1
 653 695 l 1,42,-1
 645 636 l 1,43,44
 669 643 669 643 679.5 661 c 128,-1,45
 690 679 690 679 690 710 c 0,46,47
 690 731 690 731 684 759 c 1,48,-1
 796 772 l 1,49,50
 805 747 805 747 805 713 c 0,51,17
 805 634 805 634 760 592.5 c 128,-1,18
EndSplineSet
Substitution2: "'c2sc' Capitals to Small Capitals lookup 27 subtable" uni1EED.sc
Substitution2: "'aalt' Access All Alternates lookup 0 subtable" uni1EED.sc
Position2: "'cpsp' Capital Spacing lookup 0 subtable" dx=5 dy=0 dh=10 dv=0
EndChar

StartChar: uni1EEE
Encoding: 7918 7918 280
Width: 724
GlyphClass: 2
Flags: W
AnchorPoint: "Anchor-18" 0 0 basechar 0
AnchorPoint: "Anchor-17" 715 695 basechar 0
AnchorPoint: "Anchor-16" 401 924 basechar 0
AnchorPoint: "Anchor-15" 409 0 basechar 0
AnchorPoint: "Anchor-14" 281 0 basechar 0
LayerCount: 2
Fore
SplineSet
310 787.5 m 128,-1,1
 297 777 297 777 281 753 c 1,2,-1
 202 798 l 1,3,4
 230 853 230 853 268.5 888.5 c 128,-1,5
 307 924 307 924 350 924 c 0,6,7
 372 924 372 924 387 917 c 128,-1,8
 402 910 402 910 422 897 c 0,9,10
 433 888 433 888 441 884 c 128,-1,11
 449 880 449 880 458 880 c 0,12,13
 474 880 474 880 487.5 890.5 c 128,-1,14
 501 901 501 901 517 924 c 1,15,-1
 596 880 l 1,16,17
 568 824 568 824 529.5 789 c 128,-1,18
 491 754 491 754 449 754 c 0,19,20
 431 754 431 754 415.5 761 c 128,-1,21
 400 768 400 768 382 780 c 0,22,23
 368 789 368 789 359 793.5 c 128,-1,24
 350 798 350 798 341 798 c 0,25,0
 323 798 323 798 310 787.5 c 128,-1,1
760 592.5 m 128,-1,27
 715 551 715 551 633 550 c 1,28,-1
 589 232 l 2,29,30
 579 160 579 160 540.5 103 c 128,-1,31
 502 46 502 46 436 13.5 c 128,-1,32
 370 -19 370 -19 281 -19 c 0,33,34
 159 -19 159 -19 97.5 36.5 c 128,-1,35
 36 92 36 92 36 188 c 0,36,37
 36 211 36 211 39 235 c 2,38,-1
 103 695 l 1,39,-1
 285 695 l 1,40,-1
 221 238 l 2,41,42
 218 216 218 216 218 198 c 0,43,44
 218 156 218 156 236.5 136.5 c 128,-1,45
 255 117 255 117 294 117 c 0,46,47
 344 117 344 117 371 147.5 c 128,-1,48
 398 178 398 178 407 241 c 2,49,-1
 471 695 l 1,50,-1
 653 695 l 1,51,-1
 645 636 l 1,52,53
 669 643 669 643 679.5 661 c 128,-1,54
 690 679 690 679 690 710 c 0,55,56
 690 731 690 731 684 759 c 1,57,-1
 796 772 l 1,58,59
 805 747 805 747 805 713 c 0,60,26
 805 634 805 634 760 592.5 c 128,-1,27
EndSplineSet
Substitution2: "'c2sc' Capitals to Small Capitals lookup 27 subtable" uni1EEF.sc
Substitution2: "'aalt' Access All Alternates lookup 0 subtable" uni1EEF.sc
Position2: "'cpsp' Capital Spacing lookup 0 subtable" dx=5 dy=0 dh=10 dv=0
EndChar

StartChar: Uogonek
Encoding: 370 370 284
Width: 636
GlyphClass: 2
Flags: W
AnchorPoint: "Anchor-18" 0 0 basechar 0
AnchorPoint: "Anchor-17" 663 695 basechar 0
AnchorPoint: "Anchor-16" 378 695 basechar 0
AnchorPoint: "Anchor-15" 409 0 basechar 0
AnchorPoint: "Anchor-14" 281 0 basechar 0
LayerCount: 2
Fore
SplineSet
653 695 m 1,0,-1
 589 232 l 2,1,2
 577 145 577 145 524.5 82 c 128,-1,3
 472 19 472 19 384 -6 c 1,4,5
 280 -44 280 -44 271 -101 c 0,6,7
 267 -143 267 -143 317 -143 c 0,8,9
 344 -143 344 -143 379 -135 c 1,10,-1
 356 -242 l 1,11,12
 322 -250 322 -250 284 -250 c 0,13,14
 221 -250 221 -250 181.5 -221 c 128,-1,15
 142 -192 142 -192 142 -141 c 0,16,17
 142 -99 142 -99 167 -68 c 128,-1,18
 192 -37 192 -37 235 -17 c 1,19,20
 136 -6 136 -6 86 48 c 128,-1,21
 36 102 36 102 36 188 c 0,22,23
 36 211 36 211 39 235 c 2,24,-1
 103 695 l 1,25,-1
 285 695 l 1,26,-1
 221 238 l 2,27,28
 218 216 218 216 218 198 c 0,29,30
 218 156 218 156 236.5 136.5 c 128,-1,31
 255 117 255 117 294 117 c 0,32,33
 344 117 344 117 371 147.5 c 128,-1,34
 398 178 398 178 407 241 c 2,35,-1
 471 695 l 1,36,-1
 653 695 l 1,0,-1
EndSplineSet
Substitution2: "'c2sc' Capitals to Small Capitals lookup 27 subtable" uogonek.sc
Substitution2: "'aalt' Access All Alternates lookup 0 subtable" uogonek.sc
Position2: "'cpsp' Capital Spacing lookup 0 subtable" dx=5 dy=0 dh=10 dv=0
EndChar

StartChar: uni01B1
Encoding: 433 433 285
Width: 680
GlyphClass: 2
Flags: W
AnchorPoint: "Anchor-18" 0 0 basechar 0
AnchorPoint: "Anchor-17" 0 0 basechar 0
AnchorPoint: "Anchor-16" 401 695 basechar 0
AnchorPoint: "Anchor-15" 0 0 basechar 0
AnchorPoint: "Anchor-14" 303 0 basechar 0
LayerCount: 2
Fore
SplineSet
154 15.5 m 128,-1,1
 92 50 92 50 59.5 110.5 c 128,-1,2
 27 171 27 171 27 247 c 0,3,4
 27 349 27 349 72 431 c 128,-1,5
 117 513 117 513 204 566 c 1,6,-1
 89 566 l 1,7,-1
 107 695 l 1,8,-1
 349 695 l 1,9,-1
 333 571 l 1,10,11
 276 506 276 506 246.5 419 c 128,-1,12
 217 332 217 332 217 246 c 0,13,14
 217 180 217 180 241.5 147.5 c 128,-1,15
 266 115 266 115 316 115 c 0,16,17
 400 115 400 115 438.5 197 c 128,-1,18
 477 279 477 279 477 393 c 0,19,20
 477 457 477 457 466.5 497.5 c 128,-1,21
 456 538 456 538 434 574 c 1,22,-1
 450 695 l 1,23,-1
 692 695 l 1,24,-1
 674 563 l 1,25,-1
 563 563 l 1,26,27
 662 491 662 491 662 358 c 0,28,29
 662 250 662 250 617 164 c 128,-1,30
 572 78 572 78 490.5 29.5 c 128,-1,31
 409 -19 409 -19 302 -19 c 0,32,0
 216 -19 216 -19 154 15.5 c 128,-1,1
EndSplineSet
Substitution2: "'c2sc' Capitals to Small Capitals lookup 27 subtable" uni01B1.sc
Substitution2: "'aalt' Access All Alternates lookup 0 subtable" uni01B1.sc
Position2: "'cpsp' Capital Spacing lookup 0 subtable" dx=5 dy=0 dh=10 dv=0
EndChar

StartChar: V
Encoding: 86 86 289
Width: 564
GlyphClass: 2
Flags: W
AnchorPoint: "Anchor-18" 0 0 basechar 0
AnchorPoint: "Anchor-17" 0 0 basechar 0
AnchorPoint: "Anchor-16" 342 695 basechar 0
AnchorPoint: "Anchor-15" 0 0 basechar 0
AnchorPoint: "Anchor-14" 244 0 basechar 0
LayerCount: 2
Fore
SplineSet
643 695 m 1,0,-1
 365 0 l 1,1,-1
 134 0 l 1,2,-1
 41 695 l 1,3,-1
 231 695 l 1,4,-1
 269 136 l 1,5,-1
 455 695 l 1,6,-1
 643 695 l 1,0,-1
EndSplineSet
Substitution2: "'c2sc' Capitals to Small Capitals lookup 27 subtable" v.sc
Substitution2: "'aalt' Access All Alternates lookup 0 subtable" v.sc
Position2: "'cpsp' Capital Spacing lookup 0 subtable" dx=5 dy=0 dh=10 dv=0
EndChar

StartChar: uni01B2
Encoding: 434 434 290
Width: 628
GlyphClass: 2
Flags: W
AnchorPoint: "Anchor-18" 0 0 basechar 0
AnchorPoint: "Anchor-17" 0 0 basechar 0
AnchorPoint: "Anchor-16" 364 695 basechar 0
AnchorPoint: "Anchor-15" 0 0 basechar 0
AnchorPoint: "Anchor-14" 267 0 basechar 0
LayerCount: 2
Fore
SplineSet
634 574 m 0,1,2
 634 560 634 560 630 526 c 2,3,-1
 597 287 l 2,4,5
 577 139 577 139 489 60 c 128,-1,6
 401 -19 401 -19 263 -19 c 0,7,8
 155 -19 155 -19 94.5 36 c 128,-1,9
 34 91 34 91 34 181 c 0,10,11
 34 204 34 204 36 216 c 2,12,-1
 104 695 l 1,13,-1
 286 695 l 1,14,-1
 219 213 l 2,15,16
 217 193 217 193 217 186 c 0,17,18
 217 117 217 117 280 117 c 0,19,20
 330 117 330 117 365.5 157.5 c 128,-1,21
 401 198 401 198 414 286 c 2,22,-1
 450 547 l 1,23,-1
 451 558 l 2,24,25
 451 581 451 581 430 581 c 0,26,27
 424 581 424 581 406 577 c 1,28,-1
 393 696 l 1,29,30
 439 713 439 713 490 713 c 0,31,0
 634 713 634 713 634 574 c 0,1,2
EndSplineSet
Substitution2: "'c2sc' Capitals to Small Capitals lookup 27 subtable" uni028B.sc
Substitution2: "'aalt' Access All Alternates lookup 0 subtable" uni028B.sc
Position2: "'cpsp' Capital Spacing lookup 0 subtable" dx=5 dy=0 dh=10 dv=0
EndChar

StartChar: W
Encoding: 87 87 292
Width: 842
GlyphClass: 2
Flags: W
AnchorPoint: "Anchor-18" 0 0 basechar 0
AnchorPoint: "Anchor-17" 0 0 basechar 0
AnchorPoint: "Anchor-16" 483 695 basechar 0
AnchorPoint: "Anchor-15" 0 0 basechar 0
AnchorPoint: "Anchor-14" 384 0 basechar 0
LayerCount: 2
Fore
SplineSet
896 695 m 1,0,-1
 692 0 l 1,1,-1
 456 0 l 1,2,-1
 455 514 l 1,3,-1
 304 0 l 1,4,-1
 73 0 l 1,5,-1
 66 695 l 1,6,-1
 246 695 l 1,7,-1
 224 137 l 1,8,-1
 385 695 l 1,9,-1
 577 695 l 1,10,-1
 573 137 l 1,11,-1
 720 695 l 1,12,-1
 896 695 l 1,0,-1
EndSplineSet
Substitution2: "'c2sc' Capitals to Small Capitals lookup 27 subtable" w.sc
Substitution2: "'aalt' Access All Alternates lookup 0 subtable" w.sc
Position2: "'cpsp' Capital Spacing lookup 0 subtable" dx=5 dy=0 dh=10 dv=0
EndChar

StartChar: uni2C72
Encoding: 11378 11378 297
Width: 899
GlyphClass: 2
Flags: W
AnchorPoint: "Anchor-18" 0 0 basechar 0
AnchorPoint: "Anchor-17" 0 0 basechar 0
AnchorPoint: "Anchor-16" 481 695 basechar 0
AnchorPoint: "Anchor-15" 0 0 basechar 0
AnchorPoint: "Anchor-14" 380 0 basechar 0
LayerCount: 2
Fore
SplineSet
304 0 m 1,0,-1
 455 514 l 1,1,-1
 456 0 l 1,2,-1
 688 0 l 1,3,-1
 830 533 l 2,4,5
 838 561 838 561 851.5 572.5 c 128,-1,6
 865 584 865 584 885 584 c 0,7,8
 909 584 909 584 929 571 c 1,9,-1
 990 676 l 1,10,11
 937 713 937 713 865 713 c 0,12,13
 788 713 788 713 742 674 c 128,-1,14
 696 635 696 635 673 538 c 2,15,-1
 573 137 l 1,16,-1
 577 695 l 1,17,-1
 385 695 l 1,18,-1
 224 137 l 1,19,-1
 246 695 l 1,20,-1
 66 695 l 1,21,-1
 73 0 l 1,22,-1
 304 0 l 1,0,-1
EndSplineSet
Substitution2: "'c2sc' Capitals to Small Capitals lookup 27 subtable" uni2C73.sc
Substitution2: "'aalt' Access All Alternates lookup 0 subtable" uni2C73.sc
Position2: "'cpsp' Capital Spacing lookup 0 subtable" dx=5 dy=0 dh=10 dv=0
EndChar

StartChar: uni01F7
Encoding: 503 503 298
Width: 595
GlyphClass: 2
Flags: W
AnchorPoint: "Anchor-18" 0 0 basechar 0
AnchorPoint: "Anchor-17" 0 0 basechar 0
AnchorPoint: "Anchor-16" 358 695 basechar 0
AnchorPoint: "Anchor-15" 0 0 basechar 0
AnchorPoint: "Anchor-14" 260 0 basechar 0
LayerCount: 2
Fore
SplineSet
569.5 667.5 m 128,-1,1
 616 622 616 622 616 544 c 0,2,3
 616 459 616 459 575.5 400 c 128,-1,4
 535 341 535 341 467.5 301.5 c 128,-1,5
 400 262 400 262 302 228 c 2,6,-1
 226 202 l 1,7,-1
 198 0 l 1,8,-1
 16 0 l 1,9,-1
 113 695 l 1,10,-1
 295 695 l 1,11,-1
 289 655 l 1,12,13
 321 683 321 683 362 698 c 128,-1,14
 403 713 403 713 449 713 c 0,15,0
 523 713 523 713 569.5 667.5 c 128,-1,1
426 522 m 0,17,18
 426 552 426 552 411 567 c 128,-1,19
 396 582 396 582 369 582 c 0,20,21
 320 582 320 582 274 546 c 1,22,-1
 244 328 l 1,23,-1
 274 342 l 2,24,16
 426 414 426 414 426 522 c 0,17,18
EndSplineSet
Substitution2: "'c2sc' Capitals to Small Capitals lookup 27 subtable" uni01BF.sc
Substitution2: "'aalt' Access All Alternates lookup 0 subtable" uni01BF.sc
Position2: "'cpsp' Capital Spacing lookup 0 subtable" dx=5 dy=0 dh=10 dv=0
EndChar

StartChar: X
Encoding: 88 88 299
Width: 583
GlyphClass: 2
Flags: W
AnchorPoint: "Anchor-18" 0 0 basechar 0
AnchorPoint: "Anchor-17" 0 0 basechar 0
AnchorPoint: "Anchor-16" 351 695 basechar 0
AnchorPoint: "Anchor-15" 0 0 basechar 0
AnchorPoint: "Anchor-14" 253 0 basechar 0
LayerCount: 2
Fore
SplineSet
634 695 m 1,0,-1
 411 374 l 1,1,-1
 552 0 l 1,2,-1
 357 0 l 1,3,-1
 287 259 l 1,4,-1
 150 0 l 1,5,-1
 -45 0 l 1,6,-1
 193 369 l 1,7,-1
 66 695 l 1,8,-1
 260 695 l 1,9,-1
 315 476 l 1,10,-1
 439 695 l 1,11,-1
 634 695 l 1,0,-1
EndSplineSet
Substitution2: "'c2sc' Capitals to Small Capitals lookup 27 subtable" x.sc
Substitution2: "'aalt' Access All Alternates lookup 0 subtable" x.sc
Position2: "'cpsp' Capital Spacing lookup 0 subtable" dx=5 dy=0 dh=10 dv=0
EndChar

StartChar: Y
Encoding: 89 89 300
Width: 596
GlyphClass: 2
Flags: W
AnchorPoint: "Anchor-18" 0 0 basechar 0
AnchorPoint: "Anchor-17" 0 0 basechar 0
AnchorPoint: "Anchor-16" 359 695 basechar 0
AnchorPoint: "Anchor-15" 0 0 basechar 0
AnchorPoint: "Anchor-14" 261 0 basechar 0
LayerCount: 2
Fore
SplineSet
668 695 m 1,0,-1
 389 258 l 1,1,-1
 352 0 l 1,2,-1
 170 0 l 1,3,-1
 206 257 l 1,4,-1
 49 695 l 1,5,-1
 244 695 l 1,6,-1
 317 400 l 1,7,-1
 473 695 l 1,8,-1
 668 695 l 1,0,-1
EndSplineSet
Substitution2: "'c2sc' Capitals to Small Capitals lookup 27 subtable" y.sc
Substitution2: "'aalt' Access All Alternates lookup 0 subtable" y.sc
Position2: "'cpsp' Capital Spacing lookup 0 subtable" dx=5 dy=0 dh=10 dv=0
EndChar

StartChar: uni01B3
Encoding: 435 435 306
Width: 630
GlyphClass: 2
Flags: W
AnchorPoint: "Anchor-18" 0 0 basechar 0
AnchorPoint: "Anchor-17" 0 0 basechar 0
AnchorPoint: "Anchor-16" 375 695 basechar 0
AnchorPoint: "Anchor-15" 0 0 basechar 0
AnchorPoint: "Anchor-14" 261 0 basechar 0
LayerCount: 2
Fore
SplineSet
206 257 m 1,0,-1
 49 695 l 1,1,-1
 244 695 l 1,2,-1
 317 400 l 1,3,-1
 400 565 l 2,4,5
 439 647 439 647 482 680 c 128,-1,6
 525 713 525 713 598 713 c 0,7,8
 638 713 638 713 667.5 703.5 c 128,-1,9
 697 694 697 694 721 676 c 1,10,-1
 661 571 l 1,11,12
 640 584 640 584 616 584 c 0,13,14
 596 584 596 584 582.5 573.5 c 128,-1,15
 569 563 569 563 552 533 c 2,16,-1
 389 258 l 1,17,-1
 352 0 l 1,18,-1
 170 0 l 1,19,-1
 206 257 l 1,0,-1
EndSplineSet
Substitution2: "'c2sc' Capitals to Small Capitals lookup 27 subtable" uni01B4.sc
Substitution2: "'aalt' Access All Alternates lookup 0 subtable" uni01B4.sc
Position2: "'cpsp' Capital Spacing lookup 0 subtable" dx=5 dy=0 dh=10 dv=0
EndChar

StartChar: uni01A6
Encoding: 422 422 309
Width: 610
GlyphClass: 2
Flags: W
AnchorPoint: "Anchor-18" 0 0 basechar 0
AnchorPoint: "Anchor-17" 0 0 basechar 0
AnchorPoint: "Anchor-16" 365 695 basechar 0
AnchorPoint: "Anchor-15" 0 0 basechar 0
AnchorPoint: "Anchor-14" 0 0 basechar 0
LayerCount: 2
Fore
SplineSet
561.5 272.5 m 128,-1,1
 529 217 529 217 441 175 c 1,2,-1
 569 -112 l 1,3,-1
 374 -112 l 1,4,-1
 273 144 l 1,5,-1
 218 144 l 1,6,-1
 198 0 l 1,7,-1
 16 0 l 1,8,-1
 113 695 l 1,9,-1
 295 695 l 1,10,-1
 279 582 l 1,11,-1
 335 582 l 2,12,13
 594 582 594 582 594 404 c 0,14,0
 594 328 594 328 561.5 272.5 c 128,-1,1
236 270 m 1,15,-1
 298 270 l 2,16,17
 357 270 357 270 381.5 304.5 c 128,-1,18
 406 339 406 339 406 386 c 0,19,20
 406 454 406 454 314 454 c 2,21,-1
 261 454 l 1,22,-1
 236 270 l 1,15,-1
EndSplineSet
Substitution2: "'c2sc' Capitals to Small Capitals lookup 27 subtable" uni0280.sc
Substitution2: "'aalt' Access All Alternates lookup 0 subtable" uni0280.sc
Position2: "'cpsp' Capital Spacing lookup 0 subtable" dx=5 dy=0 dh=10 dv=0
EndChar

StartChar: uni024E
Encoding: 590 590 310
Width: 598
GlyphClass: 2
Flags: W
AnchorPoint: "Anchor-18" 0 0 basechar 0
AnchorPoint: "Anchor-17" 0 0 basechar 0
AnchorPoint: "Anchor-16" 359 695 basechar 0
AnchorPoint: "Anchor-15" 0 0 basechar 0
AnchorPoint: "Anchor-14" 261 0 basechar 0
LayerCount: 2
Fore
SplineSet
620 618 m 1,0,-1
 658 618 l 1,1,-1
 645 519 l 1,2,-1
 557 519 l 1,3,-1
 390 258 l 1,4,-1
 354 0 l 1,5,-1
 172 0 l 1,6,-1
 208 257 l 1,7,-1
 113 519 l 1,8,-1
 26 519 l 1,9,-1
 39 618 l 1,10,-1
 78 618 l 1,11,-1
 50 695 l 1,12,-1
 229 695 l 1,13,-1
 251 618 l 1,14,-1
 447 618 l 1,15,-1
 490 695 l 1,16,-1
 669 695 l 1,17,-1
 620 618 l 1,0,-1
317 384 m 1,18,-1
 392 519 l 1,19,-1
 279 519 l 1,20,-1
 317 384 l 1,18,-1
EndSplineSet
Substitution2: "'c2sc' Capitals to Small Capitals lookup 27 subtable" uni024F.sc
Substitution2: "'aalt' Access All Alternates lookup 0 subtable" uni024F.sc
Position2: "'cpsp' Capital Spacing lookup 0 subtable" dx=5 dy=0 dh=10 dv=0
EndChar

StartChar: Z
Encoding: 90 90 312
Width: 540
GlyphClass: 2
Flags: W
AnchorPoint: "Anchor-18" 0 0 basechar 0
AnchorPoint: "Anchor-17" 0 0 basechar 0
AnchorPoint: "Anchor-16" 332 695 basechar 0
AnchorPoint: "Anchor-15" 0 0 basechar 0
AnchorPoint: "Anchor-14" 220 0 basechar 0
LayerCount: 2
Fore
SplineSet
-24 0 m 1,0,-1
 -6 137 l 1,1,-1
 343 553 l 1,2,-1
 83 553 l 1,3,-1
 102 695 l 1,4,-1
 573 695 l 1,5,-1
 554 556 l 1,6,-1
 210 146 l 1,7,-1
 503 146 l 1,8,-1
 465 0 l 1,9,-1
 -24 0 l 1,0,-1
EndSplineSet
Substitution2: "'c2sc' Capitals to Small Capitals lookup 27 subtable" z.sc
Substitution2: "'aalt' Access All Alternates lookup 0 subtable" z.sc
Position2: "'cpsp' Capital Spacing lookup 0 subtable" dx=5 dy=0 dh=10 dv=0
EndChar

StartChar: uni0224
Encoding: 548 548 317
Width: 532
GlyphClass: 2
Flags: W
AnchorPoint: "Anchor-18" 0 0 basechar 0
AnchorPoint: "Anchor-17" 0 0 basechar 0
AnchorPoint: "Anchor-16" 326 695 basechar 0
AnchorPoint: "Anchor-15" 0 0 basechar 0
AnchorPoint: "Anchor-14" 0 0 basechar 0
LayerCount: 2
Fore
SplineSet
554 556 m 1,0,-1
 214 146 l 1,1,-1
 494 146 l 1,2,-1
 472 0 l 1,3,-1
 467 -32 l 2,4,5
 451 -127 451 -127 392.5 -175.5 c 128,-1,6
 334 -224 334 -224 240 -224 c 0,7,8
 152 -224 152 -224 97 -180 c 1,9,-1
 166 -76 l 1,10,11
 184 -86 184 -86 198.5 -91 c 128,-1,12
 213 -96 213 -96 232 -96 c 0,13,14
 284 -96 284 -96 294 -34 c 2,15,-1
 299 0 l 1,16,-1
 -24 0 l 1,17,-1
 -6 137 l 1,18,-1
 343 553 l 1,19,-1
 83 553 l 1,20,-1
 102 695 l 1,21,-1
 573 695 l 1,22,-1
 554 556 l 1,0,-1
EndSplineSet
Substitution2: "'c2sc' Capitals to Small Capitals lookup 27 subtable" uni0225.sc
Substitution2: "'aalt' Access All Alternates lookup 0 subtable" uni0225.sc
Position2: "'cpsp' Capital Spacing lookup 0 subtable" dx=5 dy=0 dh=10 dv=0
EndChar

StartChar: uni01B5
Encoding: 437 437 318
Width: 540
GlyphClass: 2
Flags: W
AnchorPoint: "Anchor-18" 0 0 basechar 0
AnchorPoint: "Anchor-17" 0 0 basechar 0
AnchorPoint: "Anchor-16" 330 695 basechar 0
AnchorPoint: "Anchor-15" 0 0 basechar 0
AnchorPoint: "Anchor-14" 232 0 basechar 0
LayerCount: 2
Fore
SplineSet
573 695 m 1,0,-1
 554 556 l 1,1,-1
 421 403 l 1,2,-1
 486 403 l 1,3,-1
 470 291 l 1,4,-1
 323 291 l 1,5,-1
 197 146 l 1,6,-1
 503 146 l 1,7,-1
 465 0 l 1,8,-1
 -24 0 l 1,9,-1
 -6 137 l 1,10,-1
 129 291 l 1,11,-1
 54 291 l 1,12,-1
 70 403 l 1,13,-1
 227 403 l 1,14,-1
 359 553 l 1,15,-1
 83 553 l 1,16,-1
 102 695 l 1,17,-1
 573 695 l 1,0,-1
EndSplineSet
Substitution2: "'c2sc' Capitals to Small Capitals lookup 27 subtable" uni01B6.sc
Substitution2: "'aalt' Access All Alternates lookup 0 subtable" uni01B6.sc
Position2: "'cpsp' Capital Spacing lookup 0 subtable" dx=5 dy=0 dh=10 dv=0
EndChar

StartChar: Eng.ss01
Encoding: 65542 -1 324
Width: 638
GlyphClass: 2
Flags: W
AnchorPoint: "Anchor-18" 0 0 basechar 0
AnchorPoint: "Anchor-17" 0 0 basechar 0
AnchorPoint: "Anchor-16" 377 695 basechar 0
AnchorPoint: "Anchor-15" 0 0 basechar 0
AnchorPoint: "Anchor-14" 0 0 basechar 0
LayerCount: 2
Fore
SplineSet
590 672.5 m 128,-1,1
 628 632 628 632 628 564 c 0,2,3
 628 541 628 541 626 529 c 2,4,-1
 553 0 l 1,5,-1
 549 -26 l 2,6,7
 533 -124 533 -124 471 -174 c 128,-1,8
 409 -224 409 -224 312 -224 c 0,9,10
 224 -224 224 -224 169 -180 c 1,11,-1
 241 -73 l 1,12,13
 259 -83 259 -83 272 -87.5 c 128,-1,14
 285 -92 285 -92 304 -92 c 0,15,16
 357 -92 357 -92 366 -34 c 2,17,-1
 371 0 l 1,18,-1
 441 503 l 2,19,20
 443 519 443 519 443 525 c 0,21,22
 443 552 443 552 431 564.5 c 128,-1,23
 419 577 419 577 394 577 c 0,24,25
 363 577 363 577 335.5 562.5 c 128,-1,26
 308 548 308 548 271 517 c 1,27,-1
 198 0 l 1,28,-1
 16 0 l 1,29,-1
 113 695 l 1,30,-1
 273 695 l 1,31,-1
 278 634 l 1,32,33
 327 676 327 676 372 694.5 c 128,-1,34
 417 713 417 713 475 713 c 0,35,0
 552 713 552 713 590 672.5 c 128,-1,1
EndSplineSet
Position2: "'cpsp' Capital Spacing lookup 0 subtable" dx=5 dy=0 dh=10 dv=0
EndChar

StartChar: uni019D.ss01
Encoding: 65543 -1 325
Width: 637
GlyphClass: 2
Flags: W
AnchorPoint: "Anchor-18" 0 0 basechar 0
AnchorPoint: "Anchor-17" 0 0 basechar 0
AnchorPoint: "Anchor-16" 377 695 basechar 0
AnchorPoint: "Anchor-15" 0 0 basechar 0
AnchorPoint: "Anchor-14" 0 0 basechar 0
LayerCount: 2
Fore
SplineSet
590 672.5 m 128,-1,1
 629 632 629 632 629 562 c 0,2,3
 629 545 629 545 626 525 c 2,4,-1
 553 0 l 1,5,-1
 371 0 l 1,6,-1
 441 503 l 2,7,8
 443 521 443 521 443 527 c 0,9,10
 443 553 443 553 431.5 565 c 128,-1,11
 420 577 420 577 394 577 c 0,12,13
 362 577 362 577 333.5 562.5 c 128,-1,14
 305 548 305 548 272 516 c 1,15,-1
 199 0 l 1,16,-1
 195 -26 l 2,17,18
 179 -124 179 -124 117 -174 c 128,-1,19
 55 -224 55 -224 -42 -224 c 0,20,21
 -130 -224 -130 -224 -185 -180 c 1,22,-1
 -113 -73 l 1,23,24
 -95 -83 -95 -83 -82 -87.5 c 128,-1,25
 -69 -92 -69 -92 -50 -92 c 0,26,27
 3 -92 3 -92 12 -34 c 2,28,-1
 17 0 l 1,29,-1
 114 695 l 1,30,-1
 273 695 l 1,31,-1
 278 635 l 1,32,33
 326 676 326 676 371 694.5 c 128,-1,34
 416 713 416 713 473 713 c 0,35,0
 551 713 551 713 590 672.5 c 128,-1,1
EndSplineSet
Position2: "'cpsp' Capital Spacing lookup 0 subtable" dx=5 dy=0 dh=10 dv=0
EndChar

StartChar: uni2C64.ss01
Encoding: 65544 -1 326
Width: 434
GlyphClass: 2
Flags: W
AnchorPoint: "Anchor-18" 0 0 basechar 0
AnchorPoint: "Anchor-17" 0 0 basechar 0
AnchorPoint: "Anchor-16" 277 695 basechar 0
AnchorPoint: "Anchor-15" 0 0 basechar 0
AnchorPoint: "Anchor-14" 0 0 basechar 0
LayerCount: 2
Fore
SplineSet
476 708.5 m 128,-1,1
 489 706 489 706 503 701 c 1,2,-1
 453 525 l 1,3,4
 429 533 429 533 398 533 c 0,5,6
 342 533 342 533 309.5 501 c 128,-1,7
 277 469 277 469 255 407 c 1,8,-1
 198 0 l 1,9,-1
 199 0 l 1,10,-1
 194 -37 l 2,11,12
 193 -43 193 -43 193 -52 c 0,13,14
 193 -92 193 -92 234 -92 c 0,15,16
 254 -92 254 -92 269.5 -87.5 c 128,-1,17
 285 -83 285 -83 305 -73 c 1,18,-1
 350 -182 l 1,19,20
 288 -224 288 -224 199 -224 c 0,21,22
 111 -224 111 -224 60.5 -182 c 128,-1,23
 10 -140 10 -140 10 -60 c 0,24,25
 10 -42 10 -42 13 -22 c 2,26,-1
 16 0 l 1,27,-1
 113 695 l 1,28,-1
 273 695 l 1,29,-1
 274 598 l 1,30,31
 326 711 326 711 440 711 c 0,32,0
 463 711 463 711 476 708.5 c 128,-1,1
EndSplineSet
Position2: "'cpsp' Capital Spacing lookup 0 subtable" dx=5 dy=0 dh=10 dv=0
EndChar

StartChar: uniA78D.ss02
Encoding: 65546 -1 328
Width: 588
GlyphClass: 2
Flags: W
AnchorPoint: "Anchor-18" 0 0 basechar 0
AnchorPoint: "Anchor-17" 0 0 basechar 0
AnchorPoint: "Anchor-16" 336 695 basechar 0
AnchorPoint: "Anchor-15" 0 0 basechar 0
AnchorPoint: "Anchor-14" 256 0 basechar 0
LayerCount: 2
Fore
SplineSet
497 0 m 1,0,-1
 315 0 l 1,1,-1
 348 238 l 1,2,-1
 14 237 l 1,3,-1
 78 695 l 1,4,-1
 260 695 l 1,5,-1
 217 381 l 1,6,-1
 369 381 l 1,7,-1
 412 695 l 1,8,-1
 594 695 l 1,9,-1
 497 0 l 1,0,-1
EndSplineSet
Position2: "'cpsp' Capital Spacing lookup 0 subtable" dx=5 dy=0 dh=10 dv=0
EndChar

StartChar: uni0299
Encoding: 665 665 329
Width: 535
GlyphClass: 2
Flags: W
AnchorPoint: "Anchor-18" 0 0 basechar 0
AnchorPoint: "Anchor-17" 0 0 basechar 0
AnchorPoint: "Anchor-16" 305 533 basechar 0
AnchorPoint: "Anchor-15" 0 0 basechar 0
AnchorPoint: "Anchor-14" 229 0 basechar 0
LayerCount: 2
Fore
SplineSet
507 183 m 0,1,2
 507 91 507 91 436 45.5 c 128,-1,3
 365 0 365 0 246 0 c 2,4,-1
 14 0 l 1,5,-1
 87 528 l 1,6,7
 213 551 213 551 305 551 c 0,8,9
 406 551 406 551 462.5 517.5 c 128,-1,10
 519 484 519 484 519 421 c 0,11,12
 519 372 519 372 486.5 339 c 128,-1,13
 454 306 454 306 390 293 c 1,14,0
 507 278 507 278 507 183 c 0,1,2
324 345.5 m 128,-1,16
 343 365 343 365 343 398 c 0,17,18
 343 441 343 441 293 441 c 0,19,20
 273 441 273 441 252 438 c 1,21,-1
 236 326 l 1,22,-1
 274 326 l 2,23,15
 305 326 305 326 324 345.5 c 128,-1,16
308.5 135 m 128,-1,25
 330 156 330 156 330 195 c 0,26,27
 330 238 330 238 274 238 c 2,28,-1
 223 238 l 1,29,-1
 205 114 l 1,30,-1
 250 114 l 2,31,24
 287 114 287 114 308.5 135 c 128,-1,25
EndSplineSet
EndChar

StartChar: uni0262
Encoding: 610 610 330
Width: 551
GlyphClass: 2
Flags: W
AnchorPoint: "Anchor-18" 0 0 basechar 0
AnchorPoint: "Anchor-17" 0 0 basechar 0
AnchorPoint: "Anchor-16" 334 533 basechar 0
AnchorPoint: "Anchor-15" 0 0 basechar 0
AnchorPoint: "Anchor-14" 259 0 basechar 0
LayerCount: 2
Fore
SplineSet
455 531 m 128,-1,1
 503 511 503 511 541 475 c 1,2,-1
 447 386 l 1,3,4
 397 427 397 427 340 427 c 0,5,6
 268 427 268 427 233.5 361.5 c 128,-1,7
 199 296 199 296 199 202 c 0,8,9
 199 150 199 150 217 129 c 128,-1,10
 235 108 235 108 271 108 c 0,11,12
 302 108 302 108 335 119 c 1,13,-1
 346 202 l 1,14,-1
 289 202 l 1,15,-1
 288 316 l 1,16,-1
 526 316 l 1,17,-1
 489 49 l 1,18,19
 441 18 441 18 381.5 0.5 c 128,-1,20
 322 -17 322 -17 255 -17 c 0,21,22
 137 -17 137 -17 78 38.5 c 128,-1,23
 19 94 19 94 19 202 c 0,24,25
 19 303 19 303 59 382.5 c 128,-1,26
 99 462 99 462 171.5 506.5 c 128,-1,27
 244 551 244 551 338 551 c 0,28,0
 407 551 407 551 455 531 c 128,-1,1
EndSplineSet
EndChar

StartChar: uni029B
Encoding: 667 667 331
Width: 560
GlyphClass: 2
Flags: W
AnchorPoint: "Anchor-18" 0 0 basechar 0
AnchorPoint: "Anchor-17" 0 0 basechar 0
AnchorPoint: "Anchor-16" 347 743 basechar 0
AnchorPoint: "Anchor-15" 0 0 basechar 0
AnchorPoint: "Anchor-14" 258 0 basechar 0
LayerCount: 2
Fore
SplineSet
734 723 m 1,1,-1
 672 615 l 1,2,3
 641 632 641 632 612 632 c 0,4,5
 587 632 587 632 573 617.5 c 128,-1,6
 559 603 559 603 555 573 c 2,7,-1
 541 475 l 1,8,-1
 457 396 l 1,9,10
 395 427 395 427 340 427 c 0,11,12
 268 427 268 427 233.5 362 c 128,-1,13
 199 297 199 297 199 202 c 0,14,15
 199 150 199 150 217 129 c 128,-1,16
 235 108 235 108 271 108 c 0,17,18
 302 108 302 108 335 119 c 1,19,-1
 346 202 l 1,20,-1
 288 202 l 1,21,-1
 288 316 l 1,22,-1
 526 316 l 1,23,-1
 489 49 l 1,24,25
 441 18 441 18 381.5 0.5 c 128,-1,26
 322 -17 322 -17 255 -17 c 0,27,28
 137 -17 137 -17 77.5 38.5 c 128,-1,29
 18 94 18 94 18 202 c 0,30,31
 18 302 18 302 59.5 381.5 c 128,-1,32
 101 461 101 461 169.5 506 c 128,-1,33
 238 551 238 551 319 551 c 0,34,35
 361 551 361 551 399 540 c 1,36,-1
 405 588 l 2,37,38
 417 672 417 672 465.5 716.5 c 128,-1,39
 514 761 514 761 599 761 c 0,40,0
 679 761 679 761 734 723 c 1,1,-1
EndSplineSet
EndChar

StartChar: uni026A
Encoding: 618 618 333
Width: 329
GlyphClass: 2
Flags: W
AnchorPoint: "Anchor-18" 0 0 basechar 0
AnchorPoint: "Anchor-17" 0 0 basechar 0
AnchorPoint: "Anchor-16" 203 533 basechar 0
AnchorPoint: "Anchor-15" 0 0 basechar 0
AnchorPoint: "Anchor-14" 127 0 basechar 0
LayerCount: 2
Fore
SplineSet
339 410 m 1,0,-1
 272 410 l 1,1,-1
 232 123 l 1,2,-1
 298 123 l 1,3,-1
 281 0 l 1,4,-1
 -27 0 l 1,5,-1
 -9 123 l 1,6,-1
 56 123 l 1,7,-1
 97 410 l 1,8,-1
 31 410 l 1,9,-1
 48 533 l 1,10,-1
 356 533 l 1,11,-1
 339 410 l 1,0,-1
EndSplineSet
EndChar

StartChar: uni029F
Encoding: 671 671 334
Width: 450
GlyphClass: 2
Flags: W
AnchorPoint: "Anchor-18" 0 0 basechar 0
AnchorPoint: "Anchor-17" 0 0 basechar 0
AnchorPoint: "Anchor-16" 175 533 basechar 0
AnchorPoint: "Anchor-15" 0 0 basechar 0
AnchorPoint: "Anchor-14" 193 0 basechar 0
LayerCount: 2
Fore
SplineSet
263 533 m 1,0,-1
 208 135 l 1,1,-1
 422 135 l 1,2,-1
 384 0 l 1,3,-1
 14 0 l 1,4,-1
 88 533 l 1,5,-1
 263 533 l 1,0,-1
EndSplineSet
EndChar

StartChar: uni0274
Encoding: 628 628 335
Width: 574
GlyphClass: 2
Flags: W
AnchorPoint: "Anchor-18" 0 0 basechar 0
AnchorPoint: "Anchor-17" 0 0 basechar 0
AnchorPoint: "Anchor-16" 325 533 basechar 0
AnchorPoint: "Anchor-15" 0 0 basechar 0
AnchorPoint: "Anchor-14" 250 0 basechar 0
LayerCount: 2
Fore
SplineSet
487 0 m 1,0,-1
 279 0 l 1,1,-1
 194 380 l 1,2,-1
 195 356 l 2,3,4
 197 316 197 316 197 290 c 0,5,6
 197 215 197 215 186 131 c 2,7,-1
 168 0 l 1,8,-1
 14 0 l 1,9,-1
 88 533 l 1,10,-1
 293 533 l 1,11,-1
 381 153 l 1,12,13
 378 206 378 206 378 250 c 0,14,15
 378 319 378 319 388 394 c 2,16,-1
 407 533 l 1,17,-1
 561 533 l 1,18,-1
 487 0 l 1,0,-1
EndSplineSet
EndChar

StartChar: uni0276
Encoding: 630 630 336
Width: 759
GlyphClass: 2
Flags: W
AnchorPoint: "Anchor-18" 0 0 basechar 0
AnchorPoint: "Anchor-17" 0 0 basechar 0
AnchorPoint: "Anchor-16" 457 533 basechar 0
AnchorPoint: "Anchor-15" 0 0 basechar 0
AnchorPoint: "Anchor-14" 374 0 basechar 0
LayerCount: 2
Fore
SplineSet
517 412 m 1,0,1
 537 372 537 372 543 328 c 1,2,-1
 708 328 l 1,3,-1
 691 211 l 1,4,-1
 532 211 l 1,5,6
 516 160 516 160 483 122 c 1,7,-1
 716 122 l 1,8,-1
 699 0 l 1,9,-1
 348 0 l 1,10,11
 299 -19 299 -19 246 -19 c 0,12,13
 140 -19 140 -19 80 42 c 128,-1,14
 20 103 20 103 20 210 c 0,15,16
 20 295 20 295 50 372.5 c 128,-1,17
 80 450 80 450 147.5 500.5 c 128,-1,18
 215 551 215 551 321 551 c 0,19,20
 372 551 372 551 421 533 c 1,21,-1
 778 533 l 1,22,-1
 743 412 l 1,23,-1
 517 412 l 1,0,1
349 183 m 128,-1,25
 373 255 373 255 373 337 c 0,26,27
 373 381 373 381 357.5 401.5 c 128,-1,28
 342 422 342 422 310 422 c 0,29,30
 247 422 247 422 223 351.5 c 128,-1,31
 199 281 199 281 199 200 c 0,32,33
 199 153 199 153 214 132 c 128,-1,34
 229 111 229 111 262 111 c 0,35,24
 325 111 325 111 349 183 c 128,-1,25
EndSplineSet
EndChar

StartChar: uni0280
Encoding: 640 640 337
Width: 537
GlyphClass: 2
Flags: W
AnchorPoint: "Anchor-18" 0 0 basechar 0
AnchorPoint: "Anchor-17" 0 0 basechar 0
AnchorPoint: "Anchor-16" 304 533 basechar 0
AnchorPoint: "Anchor-15" 0 0 basechar 0
AnchorPoint: "Anchor-14" 241 0 basechar 0
LayerCount: 2
Fore
SplineSet
393 206 m 1,1,-1
 490 0 l 1,2,-1
 311 0 l 1,3,-1
 242 178 l 1,4,-1
 206 178 l 1,5,-1
 181 0 l 1,6,-1
 14 0 l 1,7,-1
 88 533 l 1,8,-1
 290 533 l 2,9,10
 393 533 393 533 447 494 c 128,-1,11
 501 455 501 455 501 377 c 0,12,0
 501 259 501 259 393 206 c 1,1,-1
222 293 m 1,13,-1
 252 293 l 2,14,15
 290 293 290 293 309.5 313.5 c 128,-1,16
 329 334 329 334 329 367 c 0,17,18
 329 392 329 392 315 402 c 128,-1,19
 301 412 301 412 271 412 c 2,20,-1
 238 412 l 1,21,-1
 222 293 l 1,13,-1
EndSplineSet
Substitution2: "'smcp' Lowercase to Small Capitals lookup 28 subtable" uni0280.sc
Substitution2: "'aalt' Access All Alternates lookup 0 subtable" uni0280.sc
EndChar

StartChar: uni0281
Encoding: 641 641 338
Width: 536
GlyphClass: 2
Flags: W
LayerCount: 2
Fore
SplineSet
477 201 m 0,1,2
 477 101 477 101 407.5 50.5 c 128,-1,3
 338 0 338 0 217 0 c 2,4,-1
 14 0 l 1,5,-1
 88 533 l 1,6,-1
 255 533 l 1,7,-1
 230 355 l 1,8,-1
 266 355 l 1,9,-1
 385 533 l 1,10,-1
 564 533 l 1,11,-1
 410 325 l 1,12,0
 477 287 477 287 477 201 c 0,1,2
304 192 m 0,14,15
 304 218 304 218 290 229 c 128,-1,16
 276 240 276 240 247 240 c 2,17,-1
 214 240 l 1,18,-1
 197 121 l 1,19,-1
 227 121 l 2,20,13
 304 121 304 121 304 192 c 0,14,15
EndSplineSet
EndChar

StartChar: uni028F
Encoding: 655 655 339
Width: 510
GlyphClass: 2
Flags: W
AnchorPoint: "Anchor-18" 0 0 basechar 0
AnchorPoint: "Anchor-17" 0 0 basechar 0
AnchorPoint: "Anchor-16" 293 533 basechar 0
AnchorPoint: "Anchor-15" 0 0 basechar 0
AnchorPoint: "Anchor-14" 217 0 basechar 0
LayerCount: 2
Fore
SplineSet
559 533 m 1,0,-1
 333 191 l 1,1,-1
 305 0 l 1,2,-1
 130 0 l 1,3,-1
 158 190 l 1,4,-1
 27 533 l 1,5,-1
 212 533 l 1,6,-1
 260 311 l 1,7,-1
 371 533 l 1,8,-1
 559 533 l 1,0,-1
EndSplineSet
EndChar

StartChar: a
Encoding: 97 97 340
Width: 573
GlyphClass: 2
Flags: W
AnchorPoint: "Anchor-18" 0 0 basechar 0
AnchorPoint: "Anchor-17" 0 0 basechar 0
AnchorPoint: "Anchor-16" 345 533 basechar 0
AnchorPoint: "Anchor-15" 491 -15 basechar 0
AnchorPoint: "Anchor-14" 277 0 basechar 0
LayerCount: 2
Fore
SplineSet
446.5 536.5 m 128,-1,1
 505 522 505 522 557 492 c 1,2,-1
 509 162 l 2,3,4
 507 144 507 144 507 139 c 0,5,6
 507 123 507 123 512.5 114 c 128,-1,7
 518 105 518 105 533 99 c 1,8,-1
 483 -15 l 1,9,10
 435 -12 435 -12 399.5 10 c 128,-1,11
 364 32 364 32 351 73 c 1,12,13
 287 -19 287 -19 192 -19 c 0,14,15
 109 -19 109 -19 63.5 38.5 c 128,-1,16
 18 96 18 96 18 196 c 0,17,18
 18 281 18 281 50 362 c 128,-1,19
 82 443 82 443 152 497 c 128,-1,20
 222 551 222 551 330 551 c 0,21,0
 388 551 388 551 446.5 536.5 c 128,-1,1
229.5 356 m 128,-1,23
 199 285 199 285 199 196 c 0,24,25
 199 148 199 148 212.5 129.5 c 128,-1,26
 226 111 226 111 250 111 c 0,27,28
 298 111 298 111 339 178 c 1,29,-1
 374 419 l 1,30,31
 347 427 347 427 324 427 c 0,32,22
 260 427 260 427 229.5 356 c 128,-1,23
EndSplineSet
Substitution2: "Single Substitution lookup 44 subtable" ordfeminine
Substitution2: "'smcp' Lowercase to Small Capitals lookup 28 subtable" a.sc
AlternateSubs2: "'aalt' Access All Alternates lookup 1 subtable" ordfeminine a.sc
EndChar

StartChar: uni1EAF
Encoding: 7855 7855 343
Width: 573
GlyphClass: 2
Flags: W
AnchorPoint: "Anchor-18" 0 0 basechar 0
AnchorPoint: "Anchor-17" 0 0 basechar 0
AnchorPoint: "Anchor-16" 385 794 basechar 0
AnchorPoint: "Anchor-15" 491 -15 basechar 0
AnchorPoint: "Anchor-14" 0 0 basechar 0
LayerCount: 2
Fore
SplineSet
471 1005 m 1,0,-1
 555 912 l 1,1,-1
 373 768 l 1,2,-1
 314 827 l 1,3,-1
 471 1005 l 1,0,-1
271.5 626.5 m 128,-1,5
 236 651 236 651 220.5 691.5 c 128,-1,6
 205 732 205 732 208 778 c 1,7,-1
 300 792 l 1,8,9
 304 762 304 762 322 743 c 128,-1,10
 340 724 340 724 371 724 c 0,11,12
 403 724 403 724 426.5 743.5 c 128,-1,13
 450 763 450 763 463 794 c 1,14,-1
 558 775 l 1,15,16
 542 703 542 703 490 652.5 c 128,-1,17
 438 602 438 602 360 602 c 0,18,4
 307 602 307 602 271.5 626.5 c 128,-1,5
446.5 536.5 m 128,-1,20
 505 522 505 522 557 492 c 1,21,-1
 509 162 l 2,22,23
 507 144 507 144 507 139 c 0,24,25
 507 123 507 123 512.5 114 c 128,-1,26
 518 105 518 105 533 99 c 1,27,-1
 483 -15 l 1,28,29
 435 -12 435 -12 399.5 10 c 128,-1,30
 364 32 364 32 351 73 c 1,31,32
 287 -19 287 -19 192 -19 c 0,33,34
 109 -19 109 -19 63.5 38.5 c 128,-1,35
 18 96 18 96 18 196 c 0,36,37
 18 281 18 281 50 362 c 128,-1,38
 82 443 82 443 152 497 c 128,-1,39
 222 551 222 551 330 551 c 0,40,19
 388 551 388 551 446.5 536.5 c 128,-1,20
229.5 356 m 128,-1,42
 199 285 199 285 199 196 c 0,43,44
 199 148 199 148 212.5 129.5 c 128,-1,45
 226 111 226 111 250 111 c 0,46,47
 298 111 298 111 339 178 c 1,48,-1
 374 419 l 1,49,50
 347 427 347 427 324 427 c 0,51,41
 260 427 260 427 229.5 356 c 128,-1,42
EndSplineSet
Substitution2: "'smcp' Lowercase to Small Capitals lookup 28 subtable" uni1EAF.sc
Substitution2: "'aalt' Access All Alternates lookup 0 subtable" uni1EAF.sc
EndChar

StartChar: uni1EB1
Encoding: 7857 7857 345
Width: 573
GlyphClass: 2
Flags: W
AnchorPoint: "Anchor-18" 0 0 basechar 0
AnchorPoint: "Anchor-17" 0 0 basechar 0
AnchorPoint: "Anchor-16" 385 794 basechar 0
AnchorPoint: "Anchor-15" 491 -15 basechar 0
AnchorPoint: "Anchor-14" 0 0 basechar 0
LayerCount: 2
Fore
SplineSet
334 1003 m 1,0,-1
 443 822 l 1,1,-1
 372 768 l 1,2,-1
 230 918 l 1,3,-1
 334 1003 l 1,0,-1
271.5 626.5 m 128,-1,5
 236 651 236 651 220.5 691.5 c 128,-1,6
 205 732 205 732 208 778 c 1,7,-1
 300 792 l 1,8,9
 304 762 304 762 322 743 c 128,-1,10
 340 724 340 724 371 724 c 0,11,12
 403 724 403 724 426.5 743.5 c 128,-1,13
 450 763 450 763 463 794 c 1,14,-1
 558 775 l 1,15,16
 542 703 542 703 490 652.5 c 128,-1,17
 438 602 438 602 360 602 c 0,18,4
 307 602 307 602 271.5 626.5 c 128,-1,5
446.5 536.5 m 128,-1,20
 505 522 505 522 557 492 c 1,21,-1
 509 162 l 2,22,23
 507 144 507 144 507 139 c 0,24,25
 507 123 507 123 512.5 114 c 128,-1,26
 518 105 518 105 533 99 c 1,27,-1
 483 -15 l 1,28,29
 435 -12 435 -12 399.5 10 c 128,-1,30
 364 32 364 32 351 73 c 1,31,32
 287 -19 287 -19 192 -19 c 0,33,34
 109 -19 109 -19 63.5 38.5 c 128,-1,35
 18 96 18 96 18 196 c 0,36,37
 18 281 18 281 50 362 c 128,-1,38
 82 443 82 443 152 497 c 128,-1,39
 222 551 222 551 330 551 c 0,40,19
 388 551 388 551 446.5 536.5 c 128,-1,20
229.5 356 m 128,-1,42
 199 285 199 285 199 196 c 0,43,44
 199 148 199 148 212.5 129.5 c 128,-1,45
 226 111 226 111 250 111 c 0,46,47
 298 111 298 111 339 178 c 1,48,-1
 374 419 l 1,49,50
 347 427 347 427 324 427 c 0,51,41
 260 427 260 427 229.5 356 c 128,-1,42
EndSplineSet
Substitution2: "'smcp' Lowercase to Small Capitals lookup 28 subtable" uni1EB1.sc
Substitution2: "'aalt' Access All Alternates lookup 0 subtable" uni1EB1.sc
EndChar

StartChar: uni1EB5
Encoding: 7861 7861 347
Width: 573
GlyphClass: 2
Flags: W
AnchorPoint: "Anchor-18" 0 0 basechar 0
AnchorPoint: "Anchor-17" 0 0 basechar 0
AnchorPoint: "Anchor-16" 405 967 basechar 0
AnchorPoint: "Anchor-15" 491 -15 basechar 0
AnchorPoint: "Anchor-14" 0 0 basechar 0
LayerCount: 2
Fore
SplineSet
421 817 m 128,-1,1
 407 823 407 823 386 835 c 0,2,3
 376 841 376 841 365.5 846 c 128,-1,4
 355 851 355 851 346 851 c 0,5,6
 329 851 329 851 316 841.5 c 128,-1,7
 303 832 303 832 287 810 c 1,8,-1
 210 851 l 1,9,10
 237 902 237 902 274.5 934.5 c 128,-1,11
 312 967 312 967 355 967 c 0,12,13
 377 967 377 967 391 961 c 128,-1,14
 405 955 405 955 426 942 c 0,15,16
 449 927 449 927 461 927 c 0,17,18
 477 927 477 927 490.5 936.5 c 128,-1,19
 504 946 504 946 519 967 c 1,20,-1
 597 927 l 1,21,22
 570 875 570 875 532.5 843 c 128,-1,23
 495 811 495 811 453 811 c 0,24,0
 435 811 435 811 421 817 c 128,-1,1
277.5 626.5 m 128,-1,26
 242 651 242 651 226.5 691.5 c 128,-1,27
 211 732 211 732 214 778 c 1,28,-1
 306 792 l 1,29,30
 310 762 310 762 328 743 c 128,-1,31
 346 724 346 724 377 724 c 0,32,33
 409 724 409 724 432.5 743.5 c 128,-1,34
 456 763 456 763 469 794 c 1,35,-1
 564 775 l 1,36,37
 548 703 548 703 496 652.5 c 128,-1,38
 444 602 444 602 366 602 c 0,39,25
 313 602 313 602 277.5 626.5 c 128,-1,26
446.5 536.5 m 128,-1,41
 505 522 505 522 557 492 c 1,42,-1
 509 162 l 2,43,44
 507 144 507 144 507 139 c 0,45,46
 507 123 507 123 512.5 114 c 128,-1,47
 518 105 518 105 533 99 c 1,48,-1
 483 -15 l 1,49,50
 435 -12 435 -12 399.5 10 c 128,-1,51
 364 32 364 32 351 73 c 1,52,53
 287 -19 287 -19 192 -19 c 0,54,55
 109 -19 109 -19 63.5 38.5 c 128,-1,56
 18 96 18 96 18 196 c 0,57,58
 18 281 18 281 50 362 c 128,-1,59
 82 443 82 443 152 497 c 128,-1,60
 222 551 222 551 330 551 c 0,61,40
 388 551 388 551 446.5 536.5 c 128,-1,41
229.5 356 m 128,-1,63
 199 285 199 285 199 196 c 0,64,65
 199 148 199 148 212.5 129.5 c 128,-1,66
 226 111 226 111 250 111 c 0,67,68
 298 111 298 111 339 178 c 1,69,-1
 374 419 l 1,70,71
 347 427 347 427 324 427 c 0,72,62
 260 427 260 427 229.5 356 c 128,-1,63
EndSplineSet
Substitution2: "'smcp' Lowercase to Small Capitals lookup 28 subtable" uni1EB5.sc
Substitution2: "'aalt' Access All Alternates lookup 0 subtable" uni1EB5.sc
EndChar

StartChar: uni1EA5
Encoding: 7845 7845 350
Width: 573
GlyphClass: 2
Flags: W
AnchorPoint: "Anchor-18" 0 0 basechar 0
AnchorPoint: "Anchor-17" 453 673 basechar 0
AnchorPoint: "Anchor-16" 375 790 basechar 0
AnchorPoint: "Anchor-15" 491 -15 basechar 0
AnchorPoint: "Anchor-14" 0 0 basechar 0
LayerCount: 2
Fore
SplineSet
623 976 m 1,0,-1
 707 883 l 1,1,-1
 525 739 l 1,2,-1
 466 798 l 1,3,-1
 623 976 l 1,0,-1
218 583 m 1,4,-1
 163 654 l 1,5,-1
 323 790 l 1,6,-1
 429 790 l 1,7,-1
 550 654 l 1,8,-1
 483 583 l 1,9,-1
 362 669 l 1,10,-1
 218 583 l 1,4,-1
446.5 536.5 m 128,-1,12
 505 522 505 522 557 492 c 1,13,-1
 509 162 l 2,14,15
 507 144 507 144 507 139 c 0,16,17
 507 123 507 123 512.5 114 c 128,-1,18
 518 105 518 105 533 99 c 1,19,-1
 483 -15 l 1,20,21
 435 -12 435 -12 399.5 10 c 128,-1,22
 364 32 364 32 351 73 c 1,23,24
 287 -19 287 -19 192 -19 c 0,25,26
 109 -19 109 -19 63.5 38.5 c 128,-1,27
 18 96 18 96 18 196 c 0,28,29
 18 281 18 281 50 362 c 128,-1,30
 82 443 82 443 152 497 c 128,-1,31
 222 551 222 551 330 551 c 0,32,11
 388 551 388 551 446.5 536.5 c 128,-1,12
229.5 356 m 128,-1,34
 199 285 199 285 199 196 c 0,35,36
 199 148 199 148 212.5 129.5 c 128,-1,37
 226 111 226 111 250 111 c 0,38,39
 298 111 298 111 339 178 c 1,40,-1
 374 419 l 1,41,42
 347 427 347 427 324 427 c 0,43,33
 260 427 260 427 229.5 356 c 128,-1,34
EndSplineSet
Substitution2: "'smcp' Lowercase to Small Capitals lookup 28 subtable" uni1EA5.sc
Substitution2: "'aalt' Access All Alternates lookup 0 subtable" uni1EA5.sc
EndChar

StartChar: uni1EA7
Encoding: 7847 7847 352
Width: 573
GlyphClass: 2
Flags: W
AnchorPoint: "Anchor-18" 0 0 basechar 0
AnchorPoint: "Anchor-17" 454 673 basechar 0
AnchorPoint: "Anchor-16" 376 790 basechar 0
AnchorPoint: "Anchor-15" 491 -15 basechar 0
AnchorPoint: "Anchor-14" 0 0 basechar 0
LayerCount: 2
Fore
SplineSet
169 974 m 1,0,-1
 278 793 l 1,1,-1
 207 739 l 1,2,-1
 65 889 l 1,3,-1
 169 974 l 1,0,-1
219 583 m 1,4,-1
 164 654 l 1,5,-1
 324 790 l 1,6,-1
 430 790 l 1,7,-1
 551 654 l 1,8,-1
 484 583 l 1,9,-1
 363 669 l 1,10,-1
 219 583 l 1,4,-1
446.5 536.5 m 128,-1,12
 505 522 505 522 557 492 c 1,13,-1
 509 162 l 2,14,15
 507 144 507 144 507 139 c 0,16,17
 507 123 507 123 512.5 114 c 128,-1,18
 518 105 518 105 533 99 c 1,19,-1
 483 -15 l 1,20,21
 435 -12 435 -12 399.5 10 c 128,-1,22
 364 32 364 32 351 73 c 1,23,24
 287 -19 287 -19 192 -19 c 0,25,26
 109 -19 109 -19 63.5 38.5 c 128,-1,27
 18 96 18 96 18 196 c 0,28,29
 18 281 18 281 50 362 c 128,-1,30
 82 443 82 443 152 497 c 128,-1,31
 222 551 222 551 330 551 c 0,32,11
 388 551 388 551 446.5 536.5 c 128,-1,12
229.5 356 m 128,-1,34
 199 285 199 285 199 196 c 0,35,36
 199 148 199 148 212.5 129.5 c 128,-1,37
 226 111 226 111 250 111 c 0,38,39
 298 111 298 111 339 178 c 1,40,-1
 374 419 l 1,41,42
 347 427 347 427 324 427 c 0,43,33
 260 427 260 427 229.5 356 c 128,-1,34
EndSplineSet
Substitution2: "'smcp' Lowercase to Small Capitals lookup 28 subtable" uni1EA7.sc
Substitution2: "'aalt' Access All Alternates lookup 0 subtable" uni1EA7.sc
EndChar

StartChar: uni1EAB
Encoding: 7851 7851 354
Width: 573
GlyphClass: 2
Flags: W
AnchorPoint: "Anchor-18" 0 0 basechar 0
AnchorPoint: "Anchor-17" 450 671 basechar 0
AnchorPoint: "Anchor-16" 394 969 basechar 0
AnchorPoint: "Anchor-15" 491 -15 basechar 0
AnchorPoint: "Anchor-14" 0 0 basechar 0
LayerCount: 2
Fore
SplineSet
410 819 m 128,-1,1
 396 825 396 825 375 837 c 0,2,3
 365 843 365 843 354.5 848 c 128,-1,4
 344 853 344 853 335 853 c 0,5,6
 318 853 318 853 305 843.5 c 128,-1,7
 292 834 292 834 276 812 c 1,8,-1
 199 853 l 1,9,10
 226 904 226 904 263.5 936.5 c 128,-1,11
 301 969 301 969 344 969 c 0,12,13
 366 969 366 969 380 963 c 128,-1,14
 394 957 394 957 415 944 c 0,15,16
 437 929 437 929 450 929 c 0,17,18
 466 929 466 929 479.5 938.5 c 128,-1,19
 493 948 493 948 508 969 c 1,20,-1
 586 929 l 1,21,22
 559 877 559 877 521.5 845 c 128,-1,23
 484 813 484 813 442 813 c 0,24,0
 424 813 424 813 410 819 c 128,-1,1
215 581 m 1,25,-1
 160 652 l 1,26,-1
 320 788 l 1,27,-1
 426 788 l 1,28,-1
 547 652 l 1,29,-1
 480 581 l 1,30,-1
 359 667 l 1,31,-1
 215 581 l 1,25,-1
446.5 536.5 m 128,-1,33
 505 522 505 522 557 492 c 1,34,-1
 509 162 l 2,35,36
 507 144 507 144 507 139 c 0,37,38
 507 123 507 123 512.5 114 c 128,-1,39
 518 105 518 105 533 99 c 1,40,-1
 483 -15 l 1,41,42
 435 -12 435 -12 399.5 10 c 128,-1,43
 364 32 364 32 351 73 c 1,44,45
 287 -19 287 -19 192 -19 c 0,46,47
 109 -19 109 -19 63.5 38.5 c 128,-1,48
 18 96 18 96 18 196 c 0,49,50
 18 281 18 281 50 362 c 128,-1,51
 82 443 82 443 152 497 c 128,-1,52
 222 551 222 551 330 551 c 0,53,32
 388 551 388 551 446.5 536.5 c 128,-1,33
229.5 356 m 128,-1,55
 199 285 199 285 199 196 c 0,56,57
 199 148 199 148 212.5 129.5 c 128,-1,58
 226 111 226 111 250 111 c 0,59,60
 298 111 298 111 339 178 c 1,61,-1
 374 419 l 1,62,63
 347 427 347 427 324 427 c 0,64,54
 260 427 260 427 229.5 356 c 128,-1,55
EndSplineSet
Substitution2: "'smcp' Lowercase to Small Capitals lookup 28 subtable" uni1EAB.sc
Substitution2: "'aalt' Access All Alternates lookup 0 subtable" uni1EAB.sc
EndChar

StartChar: uni0251
Encoding: 593 593 364
Width: 573
GlyphClass: 2
Flags: W
AnchorPoint: "Anchor-18" 0 0 basechar 0
AnchorPoint: "Anchor-17" 0 0 basechar 0
AnchorPoint: "Anchor-16" 325 533 basechar 0
AnchorPoint: "Anchor-15" 0 0 basechar 0
AnchorPoint: "Anchor-14" 250 0 basechar 0
LayerCount: 2
Fore
SplineSet
507 139 m 0,1,2
 507 123 507 123 512.5 114 c 128,-1,3
 518 105 518 105 533 99 c 1,4,-1
 483 -15 l 1,5,6
 435 -12 435 -12 399.5 10 c 128,-1,7
 364 32 364 32 351 73 c 1,8,9
 289 -19 289 -19 194 -19 c 0,10,11
 108 -19 108 -19 63 38.5 c 128,-1,12
 18 96 18 96 18 196 c 0,13,14
 18 285 18 285 52 367 c 128,-1,15
 86 449 86 449 148 500 c 128,-1,16
 210 551 210 551 291 551 c 0,17,18
 379 551 379 551 414 481 c 1,19,-1
 439 533 l 1,20,-1
 563 533 l 1,21,-1
 509 162 l 2,22,0
 507 144 507 144 507 139 c 0,1,2
369 382 m 1,23,24
 347 427 347 427 305 427 c 0,25,26
 252 427 252 427 225.5 358.5 c 128,-1,27
 199 290 199 290 199 197 c 0,28,29
 199 148 199 148 212.5 129.5 c 128,-1,30
 226 111 226 111 251 111 c 0,31,32
 298 111 298 111 339 178 c 1,33,-1
 369 382 l 1,23,24
EndSplineSet
Substitution2: "'smcp' Lowercase to Small Capitals lookup 28 subtable" uni0251.sc
Substitution2: "'aalt' Access All Alternates lookup 0 subtable" uni0251.sc
EndChar

StartChar: uni0252
Encoding: 594 594 365
Width: 573
GlyphClass: 2
Flags: W
AnchorPoint: "Anchor-18" 0 0 basechar 0
AnchorPoint: "Anchor-17" 0 0 basechar 0
AnchorPoint: "Anchor-16" 324 533 basechar 0
AnchorPoint: "Anchor-15" 0 0 basechar 0
AnchorPoint: "Anchor-14" 249 0 basechar 0
LayerCount: 2
Fore
SplineSet
510 494.5 m 128,-1,1
 555 437 555 437 555 337 c 0,2,3
 555 248 555 248 521 166 c 128,-1,4
 487 84 487 84 425 33 c 128,-1,5
 363 -18 363 -18 282 -18 c 0,6,7
 194 -18 194 -18 159 52 c 1,8,-1
 134 0 l 1,9,-1
 10 0 l 1,10,-1
 64 371 l 2,11,12
 66 389 66 389 66 394 c 0,13,14
 66 410 66 410 60.5 419 c 128,-1,15
 55 428 55 428 40 434 c 1,16,-1
 90 548 l 1,17,18
 138 545 138 545 173.5 523 c 128,-1,19
 209 501 209 501 222 460 c 1,20,21
 284 552 284 552 379 552 c 0,22,0
 465 552 465 552 510 494.5 c 128,-1,1
347.5 174.5 m 128,-1,24
 374 243 374 243 374 336 c 0,25,26
 374 385 374 385 360.5 403.5 c 128,-1,27
 347 422 347 422 322 422 c 0,28,29
 275 422 275 422 234 355 c 1,30,-1
 204 151 l 1,31,32
 226 106 226 106 268 106 c 0,33,23
 321 106 321 106 347.5 174.5 c 128,-1,24
EndSplineSet
EndChar

StartChar: aogonek
Encoding: 261 261 367
Width: 573
GlyphClass: 2
Flags: W
AnchorPoint: "Anchor-18" 0 0 basechar 0
AnchorPoint: "Anchor-17" 0 0 basechar 0
AnchorPoint: "Anchor-16" 345 533 basechar 0
AnchorPoint: "Anchor-15" 491 -15 basechar 0
AnchorPoint: "Anchor-14" 277 0 basechar 0
LayerCount: 2
Fore
SplineSet
507 139 m 0,1,2
 507 123 507 123 512.5 114 c 128,-1,3
 518 105 518 105 533 99 c 1,4,-1
 483 -15 l 1,5,6
 407 -41 407 -41 379.5 -70 c 128,-1,7
 352 -99 352 -99 352 -125 c 0,8,9
 352 -158 352 -158 395 -158 c 0,10,11
 421 -158 421 -158 458 -150 c 1,12,-1
 434 -257 l 1,13,14
 399 -265 399 -265 363 -265 c 0,15,16
 302 -265 302 -265 263.5 -236 c 128,-1,17
 225 -207 225 -207 225 -157 c 0,18,19
 225 -43 225 -43 388 18 c 1,20,21
 361 40 361 40 351 73 c 1,22,23
 287 -19 287 -19 192 -19 c 0,24,25
 109 -19 109 -19 63.5 38.5 c 128,-1,26
 18 96 18 96 18 196 c 0,27,28
 18 281 18 281 50 362 c 128,-1,29
 82 443 82 443 152 497 c 128,-1,30
 222 551 222 551 330 551 c 0,31,32
 388 551 388 551 446.5 536.5 c 128,-1,33
 505 522 505 522 557 492 c 1,34,-1
 509 162 l 2,35,0
 507 144 507 144 507 139 c 0,1,2
374 419 m 1,36,37
 347 427 347 427 324 427 c 0,38,39
 260 427 260 427 229.5 356 c 128,-1,40
 199 285 199 285 199 196 c 0,41,42
 199 148 199 148 212.5 129.5 c 128,-1,43
 226 111 226 111 250 111 c 0,44,45
 298 111 298 111 339 178 c 1,46,-1
 374 419 l 1,36,37
EndSplineSet
Substitution2: "'smcp' Lowercase to Small Capitals lookup 28 subtable" aogonek.sc
Substitution2: "'aalt' Access All Alternates lookup 0 subtable" aogonek.sc
EndChar

StartChar: uni2C65
Encoding: 11365 11365 370
Width: 573
GlyphClass: 2
Flags: W
AnchorPoint: "Anchor-18" 0 0 basechar 0
AnchorPoint: "Anchor-17" 0 0 basechar 0
AnchorPoint: "Anchor-16" 324 533 basechar 0
AnchorPoint: "Anchor-15" 0 0 basechar 0
AnchorPoint: "Anchor-14" 249 0 basechar 0
LayerCount: 2
Fore
SplineSet
507 139 m 0,1,2
 507 123 507 123 512.5 114 c 128,-1,3
 518 105 518 105 533 99 c 1,4,-1
 483 -15 l 1,5,6
 435 -12 435 -12 399.5 10 c 128,-1,7
 364 32 364 32 351 73 c 1,8,9
 290 -18 290 -18 197 -19 c 1,10,-1
 174 -76 l 1,11,-1
 117 -61 l 1,12,-1
 137 -11 l 1,13,14
 79 6 79 6 48.5 60 c 128,-1,15
 18 114 18 114 18 196 c 0,16,17
 18 281 18 281 50 362 c 128,-1,18
 82 443 82 443 152 497 c 128,-1,19
 222 551 222 551 330 551 c 0,20,21
 354 551 354 551 366 550 c 1,22,-1
 387 602 l 1,23,-1
 443 588 l 1,24,-1
 424 541 l 1,25,26
 497 526 497 526 557 492 c 1,27,-1
 509 162 l 2,28,0
 507 144 507 144 507 139 c 0,1,2
198 137 m 1,30,-1
 319 435 l 1,31,32
 252 431 252 431 221 360 c 128,-1,33
 190 289 190 289 190 196 c 0,34,29
 190 159 190 159 198 137 c 1,30,-1
384 427 m 1,35,-1
 378 429 l 1,36,-1
 247 103 l 1,37,38
 273 103 273 103 298.5 120 c 128,-1,39
 324 137 324 137 345 169 c 1,40,-1
 384 427 l 1,35,-1
EndSplineSet
Substitution2: "'smcp' Lowercase to Small Capitals lookup 28 subtable" uni2C65.sc
Substitution2: "'aalt' Access All Alternates lookup 0 subtable" uni2C65.sc
EndChar

StartChar: uni0250
Encoding: 592 592 372
Width: 536
GlyphClass: 2
Flags: W
AnchorPoint: "Anchor-18" 0 0 basechar 0
AnchorPoint: "Anchor-17" 0 0 basechar 0
AnchorPoint: "Anchor-16" 308 533 basechar 0
AnchorPoint: "Anchor-15" 0 0 basechar 0
AnchorPoint: "Anchor-14" 232 0 basechar 0
LayerCount: 2
Fore
SplineSet
210 183 m 2,0,1
 208 165 208 165 208 159 c 0,2,3
 208 131 208 131 222.5 120 c 128,-1,4
 237 109 237 109 274 109 c 0,5,6
 332 109 332 109 413 135 c 1,7,-1
 444 21 l 1,8,9
 396 2 396 2 342.5 -8.5 c 128,-1,10
 289 -19 289 -19 238 -19 c 0,11,12
 136 -19 136 -19 84.5 18.5 c 128,-1,13
 33 56 33 56 33 135 c 0,14,15
 33 155 33 155 36 176 c 2,16,-1
 64 370 l 2,17,18
 66 386 66 386 66 392 c 0,19,20
 66 409 66 409 60 418.5 c 128,-1,21
 54 428 54 428 40 434 c 1,22,-1
 90 548 l 1,23,24
 140 544 140 544 169.5 526.5 c 128,-1,25
 199 509 199 509 214 473 c 1,26,27
 246 514 246 514 289 532.5 c 128,-1,28
 332 551 332 551 380 551 c 0,29,30
 452 551 452 551 493 511 c 128,-1,31
 534 471 534 471 534 402 c 0,32,33
 534 303 534 303 458.5 252.5 c 128,-1,34
 383 202 383 202 259 202 c 2,35,-1
 213 202 l 1,36,-1
 210 183 l 2,0,1
272 413.5 m 128,-1,38
 252 402 252 402 238 382 c 1,39,-1
 226 297 l 1,40,-1
 253 297 l 2,41,42
 304 297 304 297 331 318.5 c 128,-1,43
 358 340 358 340 358 382 c 0,44,45
 358 402 358 402 347 413.5 c 128,-1,46
 336 425 336 425 315 425 c 0,47,37
 292 425 292 425 272 413.5 c 128,-1,38
EndSplineSet
EndChar

StartChar: ae
Encoding: 230 230 373
Width: 838
GlyphClass: 2
Flags: W
AnchorPoint: "Anchor-18" 0 0 basechar 0
AnchorPoint: "Anchor-17" 0 0 basechar 0
AnchorPoint: "Anchor-16" 458 533 basechar 0
AnchorPoint: "Anchor-15" 0 0 basechar 0
AnchorPoint: "Anchor-14" 361 0 basechar 0
LayerCount: 2
Fore
SplineSet
387 534 m 128,-1,1
 424 517 424 517 450 483 c 1,2,3
 481 514 481 514 529 532.5 c 128,-1,4
 577 551 577 551 630 551 c 0,5,6
 727 551 727 551 781.5 509 c 128,-1,7
 836 467 836 467 836 402 c 0,8,9
 836 225 836 225 495 193 c 1,10,11
 498 146 498 146 520.5 128 c 128,-1,12
 543 110 543 110 583 110 c 0,13,14
 616 110 616 110 647 121.5 c 128,-1,15
 678 133 678 133 717 159 c 1,16,-1
 779 55 l 1,17,18
 675 -19 675 -19 560 -19 c 0,19,20
 490 -19 490 -19 440 3.5 c 128,-1,21
 390 26 390 26 363 68 c 1,22,23
 320 21 320 21 272 1 c 128,-1,24
 224 -19 224 -19 168 -19 c 0,25,26
 93 -19 93 -19 48 21 c 128,-1,27
 3 61 3 61 3 127 c 0,28,29
 3 212 3 212 67 269 c 128,-1,30
 131 326 131 326 285 326 c 2,31,-1
 337 326 l 1,32,33
 342 344 342 344 354 373 c 1,34,35
 349 396 349 396 324.5 409 c 128,-1,36
 300 422 300 422 264 422 c 0,37,38
 199 422 199 422 121 396 c 1,39,-1
 94 512 l 1,40,41
 195 551 195 551 289 551 c 0,42,0
 350 551 350 551 387 534 c 128,-1,1
540 396 m 128,-1,44
 513 356 513 356 503 296 c 1,45,46
 562 300 562 300 597 316.5 c 128,-1,47
 632 333 632 333 646 353 c 128,-1,48
 660 373 660 373 660 391 c 0,49,50
 660 436 660 436 611 436 c 0,51,43
 567 436 567 436 540 396 c 128,-1,44
287 226 m 2,52,53
 240 226 240 226 214 207.5 c 128,-1,54
 188 189 188 189 188 153 c 0,55,56
 188 108 188 108 234 108 c 0,57,58
 258 108 258 108 279 121 c 128,-1,59
 300 134 300 134 326 160 c 1,60,61
 321 185 321 185 323 226 c 1,62,-1
 287 226 l 2,52,53
EndSplineSet
Substitution2: "'smcp' Lowercase to Small Capitals lookup 28 subtable" ae.sc
Substitution2: "'aalt' Access All Alternates lookup 0 subtable" ae.sc
EndChar

StartChar: b
Encoding: 98 98 376
Width: 582
GlyphClass: 2
Flags: W
AnchorPoint: "Anchor-18" 0 0 basechar 0
AnchorPoint: "Anchor-17" 0 0 basechar 0
AnchorPoint: "Anchor-16" 387 743 basechar 0
AnchorPoint: "Anchor-15" 0 0 basechar 0
AnchorPoint: "Anchor-14" 254 0 basechar 0
LayerCount: 2
Fore
SplineSet
521.5 497.5 m 128,-1,1
 563 444 563 444 563 344 c 0,2,3
 563 255 563 255 535 173 c 128,-1,4
 507 91 507 91 436 36 c 128,-1,5
 365 -19 365 -19 244 -19 c 0,6,7
 131 -19 131 -19 17 29 c 1,8,-1
 117 743 l 1,9,-1
 294 761 l 1,10,-1
 256 490 l 1,11,12
 284 518 284 518 322.5 534.5 c 128,-1,13
 361 551 361 551 400 551 c 0,14,0
 480 551 480 551 521.5 497.5 c 128,-1,1
239 365 m 1,16,-1
 205 121 l 1,17,18
 236 110 236 110 264 110 c 0,19,20
 305 110 305 110 332 145.5 c 128,-1,21
 359 181 359 181 371 233.5 c 128,-1,22
 383 286 383 286 383 338 c 0,23,24
 383 385 383 385 368.5 403.5 c 128,-1,25
 354 422 354 422 329 422 c 0,26,15
 281 422 281 422 239 365 c 1,16,-1
EndSplineSet
Substitution2: "'smcp' Lowercase to Small Capitals lookup 28 subtable" b.sc
Substitution2: "'aalt' Access All Alternates lookup 0 subtable" b.sc
EndChar

StartChar: uni0253
Encoding: 595 595 380
Width: 582
GlyphClass: 2
Flags: W
AnchorPoint: "Anchor-18" 0 0 basechar 0
AnchorPoint: "Anchor-17" 0 0 basechar 0
AnchorPoint: "Anchor-16" 359 743 basechar 0
AnchorPoint: "Anchor-15" 0 0 basechar 0
AnchorPoint: "Anchor-14" 252 0 basechar 0
LayerCount: 2
Fore
SplineSet
521.5 497.5 m 128,-1,1
 563 444 563 444 563 344 c 0,2,3
 563 255 563 255 535 173 c 128,-1,4
 507 91 507 91 436 36 c 128,-1,5
 365 -19 365 -19 244 -19 c 0,6,7
 131 -19 131 -19 17 29 c 1,8,-1
 88 532 l 1,9,-1
 87 532 l 1,10,-1
 93 573 l 2,11,12
 105 656 105 656 165.5 708.5 c 128,-1,13
 226 761 226 761 327 761 c 0,14,15
 368 761 368 761 407 751 c 128,-1,16
 446 741 446 741 473 725 c 1,17,-1
 412 613 l 1,18,19
 379 632 379 632 337 632 c 0,20,21
 306 632 306 632 289.5 616 c 128,-1,22
 273 600 273 600 267 562 c 2,23,-1
 263 532 l 1,24,-1
 257 490 l 1,25,26
 284 518 284 518 323 534.5 c 128,-1,27
 362 551 362 551 398 551 c 0,28,0
 480 551 480 551 521.5 497.5 c 128,-1,1
332 145.5 m 128,-1,30
 359 181 359 181 371 233.5 c 128,-1,31
 383 286 383 286 383 338 c 0,32,33
 383 385 383 385 368.5 403.5 c 128,-1,34
 354 422 354 422 328 422 c 0,35,36
 281 422 281 422 239 365 c 1,37,-1
 205 121 l 1,38,39
 236 110 236 110 264 110 c 0,40,29
 305 110 305 110 332 145.5 c 128,-1,30
EndSplineSet
Substitution2: "'smcp' Lowercase to Small Capitals lookup 28 subtable" uni0253.sc
Substitution2: "'aalt' Access All Alternates lookup 0 subtable" uni0253.sc
EndChar

StartChar: uni02AD
Encoding: 685 685 381
Width: 373
GlyphClass: 2
Flags: W
AnchorPoint: "Anchor-18" 0 0 basechar 0
AnchorPoint: "Anchor-17" 0 0 basechar 0
AnchorPoint: "Anchor-16" 173 169 basechar 0
AnchorPoint: "Anchor-15" 0 0 basechar 0
AnchorPoint: "Anchor-14" 0 0 basechar 0
LayerCount: 2
Fore
SplineSet
358 399 m 1,0,-1
 256 399 l 1,1,-1
 267 481 l 1,2,-1
 165 481 l 1,3,-1
 153 399 l 1,4,-1
 51 399 l 1,5,-1
 74 569 l 1,6,-1
 381 569 l 1,7,-1
 358 399 l 1,0,-1
303 -1 m 1,8,-1
 201 -1 l 1,9,-1
 212 81 l 1,10,-1
 110 81 l 1,11,-1
 98 -1 l 1,12,-1
 -4 -1 l 1,13,-1
 19 169 l 1,14,-1
 326 169 l 1,15,-1
 303 -1 l 1,8,-1
EndSplineSet
EndChar

StartChar: uni0298
Encoding: 664 664 382
Width: 787
GlyphClass: 2
Flags: W
AnchorPoint: "Anchor-18" 0 0 basechar 0
AnchorPoint: "Anchor-17" 0 0 basechar 0
AnchorPoint: "Anchor-16" 454 695 basechar 0
AnchorPoint: "Anchor-15" 0 0 basechar 0
AnchorPoint: "Anchor-14" 356 0 basechar 0
LayerCount: 2
Fore
SplineSet
626 676.5 m 128,-1,1
 699 640 699 640 738 571.5 c 128,-1,2
 777 503 777 503 777 410 c 0,3,4
 777 288 777 288 724 190.5 c 128,-1,5
 671 93 671 93 575.5 37 c 128,-1,6
 480 -19 480 -19 357 -19 c 0,7,8
 258 -19 258 -19 185 18.5 c 128,-1,9
 112 56 112 56 72.5 125 c 128,-1,10
 33 194 33 194 33 287 c 0,11,12
 33 410 33 410 86.5 507 c 128,-1,13
 140 604 140 604 236 658.5 c 128,-1,14
 332 713 332 713 454 713 c 0,15,0
 553 713 553 713 626 676.5 c 128,-1,1
310 550 m 128,-1,17
 257 508 257 508 231.5 437 c 128,-1,18
 206 366 206 366 205 278 c 0,19,20
 205 189 205 189 247.5 146 c 128,-1,21
 290 103 290 103 369 103 c 256,22,23
 448 103 448 103 501 144.5 c 128,-1,24
 554 186 554 186 579.5 256.5 c 128,-1,25
 605 327 605 327 605 414 c 0,26,27
 605 504 605 504 561.5 548 c 128,-1,28
 518 592 518 592 442 592 c 0,29,16
 363 592 363 592 310 550 c 128,-1,17
343.5 285 m 128,-1,31
 323 305 323 305 323 337 c 0,32,33
 323 376 323 376 350.5 402.5 c 128,-1,34
 378 429 378 429 417 429 c 0,35,36
 451 429 451 429 472 409 c 128,-1,37
 493 389 493 389 493 357 c 0,38,39
 493 318 493 318 465.5 291.5 c 128,-1,40
 438 265 438 265 398 265 c 0,41,30
 364 265 364 265 343.5 285 c 128,-1,31
EndSplineSet
EndChar

StartChar: uni0180
Encoding: 384 384 384
Width: 594
GlyphClass: 2
Flags: W
AnchorPoint: "Anchor-18" 0 0 basechar 0
AnchorPoint: "Anchor-17" 0 0 basechar 0
AnchorPoint: "Anchor-16" 398 743 basechar 0
AnchorPoint: "Anchor-15" 0 0 basechar 0
AnchorPoint: "Anchor-14" 265 0 basechar 0
LayerCount: 2
Fore
SplineSet
532.5 497.5 m 128,-1,1
 574 444 574 444 574 344 c 0,2,3
 574 255 574 255 546 173 c 128,-1,4
 518 91 518 91 447 36 c 128,-1,5
 376 -19 376 -19 255 -19 c 0,6,7
 142 -19 142 -19 28 29 c 1,8,-1
 107 593 l 1,9,-1
 51 593 l 1,10,-1
 65 692 l 1,11,-1
 121 692 l 1,12,-1
 128 743 l 1,13,-1
 305 761 l 1,14,-1
 295 692 l 1,15,-1
 428 692 l 1,16,-1
 400 593 l 1,17,-1
 281 593 l 1,18,-1
 267 490 l 1,19,20
 295 518 295 518 333.5 534.5 c 128,-1,21
 372 551 372 551 411 551 c 0,22,0
 491 551 491 551 532.5 497.5 c 128,-1,1
343 145.5 m 128,-1,24
 370 181 370 181 382 233.5 c 128,-1,25
 394 286 394 286 394 338 c 0,26,27
 394 385 394 385 379.5 403.5 c 128,-1,28
 365 422 365 422 340 422 c 0,29,30
 292 422 292 422 250 365 c 1,31,-1
 216 121 l 1,32,33
 247 110 247 110 275 110 c 0,34,23
 316 110 316 110 343 145.5 c 128,-1,24
EndSplineSet
Substitution2: "'smcp' Lowercase to Small Capitals lookup 28 subtable" uni0180.sc
Substitution2: "'aalt' Access All Alternates lookup 0 subtable" uni0180.sc
EndChar

